<svg xmlns="http://www.w3.org/2000/svg" viewBox="5.749 89.122 114.111 32.203" height="70" width="248.278"><path d="M5.696 93.766c.094-.018.17-.044.248-.044 3.162.012 6.325.008 9.487.052 1.078.015 2.068.395 2.954 1.025 2.02 1.438 2.207 5.546-.567 7.02l-.473.253c.527.242 1.046.405 1.48.693 1.669 1.11 2.349 3.59 1.602 5.768-.652 1.9-2.2 2.685-4 3.103a8.362 8.362 0 0 1-1.817.212c-2.957.022-5.913.01-8.914.01zm3.162 15.44c2.199 0 4.334.05 6.466-.018 1.34-.042 2.308-1.479 2.227-2.876-.08-1.377-.927-2.548-2.238-2.609-2.113-.098-4.232-.07-6.348-.093-.032 0-.064.047-.107.08zm.007-7.953c1.966 0 3.86.072 5.748-.024 1.39-.07 2.174-1.18 2.122-2.7-.046-1.344-.84-2.153-2.27-2.19-1.792-.048-3.586-.026-5.38-.03-.073 0-.146.04-.22.06zm98.004-2.485h2.637v1.413c.293-.227.65-.478.98-.76 2.02-1.735 6.812-1.522 8.45 1.97 1.412 3.004 1.35 6.025-.554 8.822-1.055 1.55-2.688 2.103-4.54 2.004-1.606-.087-3.022-.592-4.136-2.08v6.587h-2.836V98.768zm2.678 6.616c.12.658.185 1.331.368 1.97.41 1.428 1.658 2.483 2.95 2.574 1.73.122 2.972-.517 3.597-2.05.794-1.948.766-3.913-.395-5.733-1.37-2.148-4.651-1.969-5.811.281a6.282 6.282 0 0 0-.71 2.958zm-4.545 4.6c0 .538.019 1.085-.014 1.63-.008.133-.177.36-.286.37-.822.068-1.658.188-2.47.103-.715-.074-1.11-.68-1.33-1.382-1.7 1.383-3.647 1.682-5.72 1.425-1.732-.215-3.168-1.638-3.291-3.218-.17-2.177.666-3.595 2.62-4.11 1.373-.363 2.8-.508 4.203-.753.34-.06.685-.107 1.017-.198.638-.174 1.098-.528 1.145-1.254.048-.75-.243-1.336-.95-1.62-1.203-.485-2.43-.473-3.615.082-.541.253-.863.762-1.146 1.627h-2.78a3.816 3.816 0 0 1 1.076-2.699c.93-.99 2.14-1.379 3.446-1.515 1.366-.143 2.724-.137 4.05.31 1.785.602 2.64 1.78 2.637 3.664-.003 2-.001 4.001-.001 6.002 0 1.42-.001 1.42 1.409 1.536zm-4.295-4.515c-.876.152-1.677.268-2.468.434-.832.174-1.68.324-2.472.615-.778.285-1.042 1.011-1.016 1.792.024.746.534 1.164 1.19 1.393 1.127.394 2.256.345 3.33-.157.77-.36 1.356-.949 1.425-1.848.056-.749.01-1.505.01-2.229zm-71.502-7.08c4.358-.05 6.913 3.144 6.644 7.494-.094 1.511-.5 2.924-1.495 4.12-1.072 1.287-2.452 1.965-4.106 2.148-1.382.154-2.724.064-4.004-.517-1.906-.865-2.993-2.375-3.45-4.387a8.615 8.615 0 0 1 .05-4.117c.777-3.009 3.094-4.729 6.36-4.74zm-3.794 6.942c.115.638.175 1.293.354 1.912.457 1.578 1.702 2.62 3.126 2.688 1.76.086 2.99-.655 3.644-2.294.639-1.6.64-3.237-.06-4.818-1.037-2.342-3.863-2.94-5.682-1.2-1.038.993-1.305 2.311-1.382 3.712zm18.914-6.94c3.93-.007 6.605 2.641 6.655 6.581.02 1.664-.25 3.25-1.227 4.644-1.398 1.995-3.417 2.693-5.741 2.587a8.088 8.088 0 0 1-2.543-.543c-1.874-.736-2.992-2.184-3.488-4.123-.436-1.702-.388-3.394.167-5.058.85-2.553 3.183-4.085 6.177-4.09zm3.767 6.586c-.063-.35-.126-1.024-.314-1.663-.48-1.623-1.744-2.608-3.34-2.677-1.5-.066-2.851.82-3.433 2.37-.686 1.827-.636 3.646.398 5.347 1.076 1.773 3.517 2.162 5.118.84 1.22-1.01 1.52-2.404 1.57-4.217zm24.303-2.57c-.897 0-1.77.007-2.644-.01-.107 0-.275-.11-.31-.206-.49-1.363-1.645-1.525-2.84-1.532a3.877 3.877 0 0 0-1.48.31c-.98.411-1.09 1.52-.17 2.051.636.368 1.385.566 2.103.77 1.017.285 2.067.458 3.077.763 2.584.78 3.593 3.37 2.147 5.506-.694 1.024-1.732 1.578-2.921 1.865-1.76.425-3.51.456-5.228-.165-1.838-.664-2.81-1.997-2.953-4.015h2.805c.798 2.082 3.052 2.893 5.164 1.83.489-.247.815-.598.847-1.173.035-.616-.203-1.145-.755-1.35-.984-.368-2.013-.62-3.023-.916-.837-.246-1.701-.423-2.51-.743-1.558-.617-2.235-1.679-2.225-3.297.008-1.412.834-2.622 2.297-3.153 2.014-.73 4.07-.82 6.093-.028 1.368.535 2.183 1.592 2.522 3.015.03.131.004.277.004.478zM57.16 98.73h2.597v2.124h-2.544c-.018.254-.041.432-.042.61-.002 2.143-.003 4.286 0 6.43 0 .284.024.57.05.854.058.567.372.903.943.935.523.028 1.049.006 1.602.006v2.123a7.736 7.736 0 0 1-3.558.018c-1.36-.303-1.91-1.238-1.923-3.007-.016-2.409-.005-4.817-.005-7.226v-.708h-2.157v-2.148h2.128v-3.93h2.91v3.92zm24.286 13.164c-1.118 0-2.175.034-3.23-.01-1.021-.044-1.808-.72-2.031-1.733a8.587 8.587 0 0 1-.201-1.755c-.023-2.266-.01-4.533-.01-6.799v-.717h-2.15v-2.119h2.118v-3.948h2.916v3.884h2.584v2.135h-2.48c-.03.192-.068.325-.068.46-.002 2.306-.01 4.613.005 6.92.008 1.22.328 1.513 1.537 1.505.323-.002.647 0 1.01 0zm4.85-13.12v2.234c1.12-1.9 2.669-2.89 4.957-2.554v2.757c-1.087-.164-2.136-.193-3.064.474-1.218.876-1.644 2.156-1.674 3.566-.047 2.18-.012 4.363-.012 6.592h-2.856v-13.07l2.648.001z" fill="#573e7d"/></svg>