<?xml version="1.0" encoding="UTF-8" standalone="no"?>
<svg
   xmlns:dc="http://purl.org/dc/elements/1.1/"
   xmlns:cc="http://creativecommons.org/ns#"
   xmlns:rdf="http://www.w3.org/1999/02/22-rdf-syntax-ns#"
   xmlns:svg="http://www.w3.org/2000/svg"
   xmlns="http://www.w3.org/2000/svg"
   id="svg4"
   version="1.1"
   width="262.27527"
   height="69.999687"
   viewBox="5.749 89.122 120.54428 32.202856">
  <metadata
     id="metadata10">
    <rdf:RDF>
      <cc:Work
         rdf:about="">
        <dc:format>image/svg+xml</dc:format>
        <dc:type
           rdf:resource="http://purl.org/dc/dcmitype/StillImage" />
        <dc:title></dc:title>
      </cc:Work>
    </rdf:RDF>
  </metadata>
  <defs
     id="defs8" />
  <path
     style="fill:#573e7d"
     id="path2"
     d="m 8.9155398,93.766429 c 0.094,-0.018 0.17,-0.044 0.248,-0.044 3.1620002,0.012 6.3250002,0.008 9.4870002,0.052 1.078,0.015 2.068,0.395 2.954,1.025 2.02,1.438 2.207,5.546001 -0.567,7.020001 l -0.473,0.253 c 0.527,0.242 1.046,0.405 1.48,0.693 1.669,1.11 2.349,3.59 1.602,5.768 -0.652,1.9 -2.2,2.685 -4,3.103 a 8.362,8.362 0 0 1 -1.817,0.212 c -2.957,0.022 -5.913,0.01 -8.9140002,0.01 z M 12.07754,109.20643 c 2.199,0 4.334,0.05 6.466,-0.018 1.34,-0.042 2.308,-1.479 2.227,-2.876 -0.08,-1.377 -0.927,-2.548 -2.238,-2.609 -2.113,-0.098 -4.232,-0.07 -6.348,-0.093 -0.032,0 -0.064,0.047 -0.107,0.08 z m 0.007,-7.953 c 1.966,0 3.86,0.072 5.748,-0.024 1.39,-0.07 2.174,-1.18 2.122,-2.700001 -0.046,-1.344 -0.84,-2.153 -2.27,-2.19 -1.792,-0.048 -3.586,-0.026 -5.38,-0.03 -0.073,0 -0.146,0.04 -0.22,0.06 z m 98.004,-2.485001 h 2.637 v 1.413001 c 0.293,-0.227001 0.65,-0.478001 0.98,-0.760001 2.02,-1.735 6.812,-1.522 8.45,1.970001 1.412,3.004 1.35,6.025 -0.554,8.822 -1.055,1.55 -2.688,2.103 -4.54,2.004 -1.606,-0.087 -3.022,-0.592 -4.136,-2.08 v 6.587 h -2.836 V 98.768429 Z m 2.678,6.616001 c 0.12,0.658 0.185,1.331 0.368,1.97 0.41,1.428 1.658,2.483 2.95,2.574 1.73,0.122 2.972,-0.517 3.597,-2.05 0.794,-1.948 0.766,-3.913 -0.395,-5.733 -1.37,-2.148001 -4.651,-1.969 -5.811,0.281 a 6.282,6.282 0 0 0 -0.71,2.958 z m -4.545,4.6 c 0,0.538 0.019,1.085 -0.014,1.63 -0.008,0.133 -0.177,0.36 -0.286,0.37 -0.822,0.068 -1.658,0.188 -2.47,0.103 -0.715,-0.074 -1.11,-0.68 -1.33,-1.382 -1.7,1.383 -3.647,1.682 -5.72,1.425 -1.732,-0.215 -3.168,-1.638 -3.291,-3.218 -0.17,-2.177 0.666,-3.595 2.62,-4.11 1.373,-0.363 2.8,-0.508 4.203,-0.753 0.34,-0.06 0.685,-0.107 1.017,-0.198 0.638,-0.174 1.098,-0.528 1.145,-1.254 0.048,-0.75 -0.243,-1.336 -0.95,-1.62 -1.203,-0.485 -2.43,-0.473 -3.615,0.082 -0.541,0.253 -0.863,0.762 -1.146,1.627 h -2.78 a 3.816,3.816 0 0 1 1.076,-2.699001 c 0.93,-0.99 2.14,-1.379 3.446,-1.515 1.366,-0.143 2.724,-0.137 4.05,0.31 1.785,0.602 2.64,1.780001 2.637,3.664001 -0.003,2 -0.001,4.001 -0.001,6.002 0,1.42 -0.001,1.42 1.409,1.536 z m -4.295,-4.515 c -0.876,0.152 -1.677,0.268 -2.468,0.434 -0.832,0.174 -1.68,0.324 -2.472,0.615 -0.778,0.285 -1.042,1.011 -1.016,1.792 0.024,0.746 0.534,1.164 1.19,1.393 1.127,0.394 2.256,0.345 3.33,-0.157 0.77,-0.36 1.356,-0.949 1.425,-1.848 0.056,-0.749 0.01,-1.505 0.01,-2.229 z m -71.502,-7.080001 c 4.358,-0.05 6.913,3.144001 6.644,7.494001 -0.094,1.511 -0.5,2.924 -1.495,4.12 -1.072,1.287 -2.452,1.965 -4.106,2.148 -1.382,0.154 -2.724,0.064 -4.004,-0.517 -1.906,-0.865 -2.993,-2.375 -3.45,-4.387 a 8.615,8.615 0 0 1 0.05,-4.117 c 0.777,-3.009 3.094,-4.729001 6.36,-4.740001 z m -3.794,6.942001 c 0.115,0.638 0.175,1.293 0.354,1.912 0.457,1.578 1.702,2.62 3.126,2.688 1.76,0.086 2.99,-0.655 3.644,-2.294 0.639,-1.6 0.64,-3.237 -0.06,-4.818 -1.037,-2.342 -3.863,-2.940001 -5.682,-1.2 -1.038,0.993 -1.305,2.311 -1.382,3.712 z m 18.914,-6.940001 c 3.93,-0.007 6.605,2.641001 6.655,6.581001 0.02,1.664 -0.25,3.25 -1.227,4.644 -1.398,1.995 -3.417,2.693 -5.741,2.587 a 8.088,8.088 0 0 1 -2.543,-0.543 c -1.874,-0.736 -2.992,-2.184 -3.488,-4.123 -0.436,-1.702 -0.388,-3.394 0.167,-5.058 0.85,-2.553001 3.183,-4.085001 6.177,-4.090001 z m 3.767,6.586001 c -0.063,-0.35 -0.126,-1.024 -0.314,-1.663 -0.48,-1.623 -1.744,-2.608 -3.34,-2.677 -1.5,-0.066 -2.851,0.82 -3.433,2.37 -0.686,1.827 -0.636,3.646 0.398,5.347 1.076,1.773 3.517,2.162 5.118,0.84 1.22,-1.01 1.52,-2.404 1.57,-4.217 z m 24.303,-2.57 c -0.897,0 -1.77,0.007 -2.644,-0.01 -0.107,0 -0.275,-0.11 -0.31,-0.206 -0.49,-1.363 -1.645,-1.525 -2.84,-1.532 a 3.877,3.877 0 0 0 -1.48,0.31 c -0.98,0.411 -1.09,1.52 -0.17,2.051 0.636,0.368 1.385,0.566 2.103,0.77 1.017,0.285 2.067,0.458 3.077,0.763 2.584,0.78 3.593,3.37 2.147,5.506 -0.694,1.024 -1.732,1.578 -2.921,1.865 -1.76,0.425 -3.51,0.456 -5.228,-0.165 -1.838,-0.664 -2.81,-1.997 -2.953,-4.015 h 2.805 c 0.798,2.082 3.052,2.893 5.164,1.83 0.489,-0.247 0.815,-0.598 0.847,-1.173 0.035,-0.616 -0.203,-1.145 -0.755,-1.35 -0.984,-0.368 -2.013,-0.62 -3.023,-0.916 -0.837,-0.246 -1.701,-0.423 -2.51,-0.743 -1.558,-0.617 -2.235,-1.679 -2.225,-3.297 0.008,-1.412 0.834,-2.622001 2.297,-3.153001 2.014,-0.73 4.07,-0.82 6.093,-0.028 1.368,0.535 2.183,1.592001 2.522,3.015001 0.03,0.131 0.004,0.277 0.004,0.478 z m -15.235,-3.677001 h 2.597 v 2.124001 h -2.544 c -0.018,0.254 -0.041,0.432 -0.042,0.61 -0.002,2.143 -0.003,4.286 0,6.43 0,0.284 0.024,0.57 0.05,0.854 0.058,0.567 0.372,0.903 0.943,0.935 0.523,0.028 1.049,0.006 1.602,0.006 v 2.123 a 7.736,7.736 0 0 1 -3.558,0.018 c -1.36,-0.303 -1.91,-1.238 -1.923,-3.007 -0.016,-2.409 -0.005,-4.817 -0.005,-7.226 v -0.708 h -2.157 v -2.148001 h 2.128 v -3.93 h 2.91 v 3.92 z m 24.286,13.164001 c -1.118,0 -2.175,0.034 -3.23,-0.01 -1.021,-0.044 -1.808,-0.72 -2.031,-1.733 a 8.587,8.587 0 0 1 -0.201,-1.755 c -0.023,-2.266 -0.01,-4.533 -0.01,-6.799 v -0.717 h -2.15 v -2.119001 h 2.118 v -3.948 h 2.916 v 3.884 h 2.584 v 2.135001 h -2.48 c -0.03,0.192 -0.068,0.325 -0.068,0.46 -0.002,2.306 -0.01,4.613 0.005,6.92 0.008,1.22 0.328,1.513 1.537,1.505 0.323,-0.002 0.647,0 1.01,0 z m 4.85,-13.120001 v 2.234001 c 1.12,-1.900001 2.669,-2.890001 4.957,-2.554001 v 2.757001 c -1.087,-0.164 -2.136,-0.193 -3.064,0.474 -1.218,0.876 -1.644,2.156 -1.674,3.566 -0.047,2.18 -0.012,4.363 -0.012,6.592 h -2.856 V 98.773429 l 2.648,0.001 z" />
</svg>
