<?xml version="1.0" encoding="UTF-8" standalone="no"?>
<svg
   xmlns:dc="http://purl.org/dc/elements/1.1/"
   xmlns:cc="http://creativecommons.org/ns#"
   xmlns:rdf="http://www.w3.org/1999/02/22-rdf-syntax-ns#"
   xmlns:svg="http://www.w3.org/2000/svg"
   xmlns="http://www.w3.org/2000/svg"
   version="1.1"
   id="Layer_1"
   width="366.00464"
   height="69.999374">
  <metadata
     id="metadata25">
    <rdf:RDF>
      <cc:Work
         rdf:about="">
        <dc:format>image/svg+xml</dc:format>
        <dc:type
           rdf:resource="http://purl.org/dc/dcmitype/StillImage" />
        <dc:title></dc:title>
      </cc:Work>
    </rdf:RDF>
  </metadata>
  <defs
     id="defs23" />
  <style
     id="style2">.st0{fill:#404041}</style>
  <g
     id="g36"
     transform="matrix(0.32404,0,0,0.32404,-18.372332,-15.27512)">
    <g
       id="g26">
      <path
         style="fill:#404041"
         class="st0"
         d="m 1158.5,187.7 c -3.4,0 -6.1,-2.7 -6.1,-6.1 0,-3.3 2.7,-6.1 6.1,-6.1 3.3,0 6.1,2.7 6.1,6.1 0,3.4 -2.8,6.1 -6.1,6.1 m 0,-11 c -2.7,0 -4.9,2.2 -4.9,4.9 0,2.7 2.2,4.9 4.9,4.9 2.7,0 4.9,-2.2 4.9,-4.9 0,-2.7 -2.2,-4.9 -4.9,-4.9 m 3.1,8.1 h -1.4 l -1.2,-2.3 h -1.6 v 2.3 h -1.3 v -6.7 h 3.2 c 1.4,0 2.3,0.9 2.3,2.2 0,1 -0.6,1.7 -1.4,2 z m -2.4,-3.5 c 0.5,0 1,-0.3 1,-1 0,-0.8 -0.4,-1 -1,-1 h -2 v 2 z"
         id="path4" />
      <path
         style="fill:#404041"
         d="M 565.7,217.4 V 231 H 523 v -56.1 h 15.6 v 42.5 z"
         class="st0"
         id="polygon6" />
      <path
         style="fill:#404041"
         class="st0"
         d="M 581.8,203.1 V 203 c 0,-16.1 13,-29.2 30.3,-29.2 17.3,0 30.1,12.9 30.1,29 v 0.2 c 0,16.1 -13,29.2 -30.3,29.2 -17.2,-0.1 -30.1,-13 -30.1,-29.1 m 44.6,0 V 203 c 0,-8.1 -5.8,-15.1 -14.4,-15.1 -8.5,0 -14.2,6.9 -14.2,15 v 0.2 c 0,8.1 5.8,15.1 14.3,15.1 8.6,-0.1 14.3,-7 14.3,-15.1"
         id="path8" />
      <path
         style="fill:#404041"
         class="st0"
         d="m 661.3,206.4 v -31.5 h 15.8 v 31.2 c 0,8.1 4.1,11.9 10.3,11.9 6.2,0 10.3,-3.7 10.3,-11.5 v -31.6 h 15.8 V 206 c 0,18.1 -10.3,26 -26.3,26 -15.9,0.1 -25.9,-8 -25.9,-25.6"
         id="path10" />
      <path
         style="fill:#404041"
         class="st0"
         d="M 737.3,174.9 H 759 c 20,0 31.7,11.5 31.7,27.7 v 0.2 c 0,16.2 -11.8,28.2 -32,28.2 h -21.3 z m 21.9,42.3 c 9.3,0 15.5,-5.1 15.5,-14.2 v -0.2 c 0,-9 -6.2,-14.2 -15.5,-14.2 h -6.3 v 28.5 z"
         id="path12" />
      <path
         style="fill:#404041"
         d="m 828.7,188.6 v 9.5 h 26.6 V 211 h -26.6 v 20 h -15.5 v -56.1 h 44.9 v 13.7 z"
         class="st0"
         id="polygon14" />
      <path
         style="fill:#404041"
         d="M 922.4,217.4 V 231 h -42.7 v -56.1 h 15.5 v 42.5 z"
         class="st0"
         id="polygon16" />
      <path
         style="fill:#404041"
         class="st0"
         d="m 963,174.5 h 15 l 23.9,56.5 h -16.7 l -4.1,-10 h -21.6 l -4,10 h -16.3 z m 13.7,34.4 -6.2,-15.9 -6.3,15.9 z"
         id="path18" />
      <path
         style="fill:#404041"
         class="st0"
         d="m 1021.9,174.9 h 26.5 c 8.6,0 14.5,2.2 18.3,6.1 3.3,3.2 5,7.5 5,13.1 v 0.2 c 0,8.6 -4.6,14.3 -11.5,17.2 l 13.4,19.6 h -18 l -11.3,-17 h -6.8 v 17 H 1022 Z m 25.8,27 c 5.3,0 8.3,-2.6 8.3,-6.6 V 195 c 0,-4.4 -3.2,-6.6 -8.4,-6.6 h -10.2 v 13.5 z"
         id="path20" />
      <path
         style="fill:#404041"
         d="m 1109.5,188.2 v 8.4 h 26.9 v 12.3 h -26.9 v 8.9 h 30.1 V 231 h -45.5 v -56.1 h 45.1 v 13.3 z"
         class="st0"
         id="polygon22" />
      <path
         style="fill:#404041"
         class="st0"
         d="m 489,209.7 c -2.2,4.9 -6.8,8.4 -12.8,8.4 -8.5,0 -14.3,-7.1 -14.3,-15.1 v -0.2 c 0,-8.1 5.7,-15 14.2,-15 6.4,0 11.3,3.9 13.3,9.3 h 16.4 c -2.6,-13.4 -14.4,-23.3 -29.6,-23.3 -17.3,0 -30.3,13.1 -30.3,29.2 v 0.2 c 0,16.1 12.8,29 30.1,29 14.8,0 26.4,-9.6 29.4,-22.4 z"
         id="path24" />
    </g>
    <g
       id="g34">
      <path
         style="fill:#ffffff"
         d="m 165.3,143.1 v 89 l 225.8,0.1 v -62.6 l -42.9,-24.6 -7.4,-3.2 z"
         id="polygon28" />
      <path
         style="fill:#f38020"
         d="m 313,224 c 2.1,-7.2 1.3,-13.8 -2.2,-18.7 -3.2,-4.5 -8.6,-7.1 -15.1,-7.4 l -123.1,-1.6 c -0.8,0 -1.5,-0.4 -1.9,-1 -0.4,-0.6 -0.5,-1.4 -0.3,-2.2 0.4,-1.2 1.6,-2.1 2.9,-2.2 l 124.2,-1.6 c 14.7,-0.7 30.7,-12.6 36.3,-27.2 l 7.1,-18.5 c 0.3,-0.8 0.4,-1.6 0.2,-2.4 C 333.1,105 300.8,78 262.2,78 c -35.6,0 -65.8,23 -76.6,54.9 -7,-5.2 -15.9,-8 -25.5,-7.1 -17.1,1.7 -30.8,15.4 -32.5,32.5 -0.4,4.4 -0.1,8.7 0.9,12.7 -27.9,0.8 -50.2,23.6 -50.2,51.7 0,2.5 0.2,5 0.5,7.5 0.2,1.2 1.2,2.1 2.4,2.1 h 227.2 c 1.3,0 2.5,-0.9 2.9,-2.2 z"
         id="path30" />
      <path
         style="fill:#faae40"
         d="m 352.2,144.9 c -1.1,0 -2.3,0 -3.4,0.1 -0.8,0 -1.5,0.6 -1.8,1.4 l -4.8,16.7 c -2.1,7.2 -1.3,13.8 2.2,18.7 3.2,4.5 8.6,7.1 15.1,7.4 l 26.2,1.6 c 0.8,0 1.5,0.4 1.9,1 0.4,0.6 0.5,1.5 0.3,2.2 -0.4,1.2 -1.6,2.1 -2.9,2.2 l -27.3,1.6 c -14.8,0.7 -30.7,12.6 -36.3,27.2 l -2,5.1 c -0.4,1 0.3,2 1.4,2 h 93.8 c 1.1,0 2.1,-0.7 2.4,-1.8 1.6,-5.8 2.5,-11.9 2.5,-18.2 0,-37.1 -30.1,-67.2 -67.3,-67.2"
         id="path32" />
    </g>
  </g>
</svg>
