<?xml version="1.0" encoding="UTF-8" standalone="no"?>
<svg
   xmlns:dc="http://purl.org/dc/elements/1.1/"
   xmlns:cc="http://creativecommons.org/ns#"
   xmlns:rdf="http://www.w3.org/1999/02/22-rdf-syntax-ns#"
   xmlns:svg="http://www.w3.org/2000/svg"
   xmlns="http://www.w3.org/2000/svg"
   xmlns:xlink="http://www.w3.org/1999/xlink"
   version="1.1"
   id="Layer_1"
   width="234.448"
   height="70">
  <metadata
     id="metadata37">
    <rdf:RDF>
      <cc:Work
         rdf:about="">
        <dc:format>image/svg+xml</dc:format>
        <dc:type
           rdf:resource="http://purl.org/dc/dcmitype/StillImage" />
        <dc:title></dc:title>
      </cc:Work>
    </rdf:RDF>
  </metadata>
  <defs
     id="defs35" />
  <style
     id="style2">.st2{fill:#fff}.st3{fill:#4d4d4d}</style>
  <path
     style="fill:none"
     d="M 7,-1708 H 1447 V 60 H 7 Z"
     id="rect4" />
  <g
     id="g14"
     transform="translate(1539.5,-1238.8)">
    <g
       id="g12">
      <defs
         id="defs7">
        <path
           d="m -1532.5,-469.2 h 1440 v 1768 h -1440 z"
           id="SVGID_1_" />
      </defs>
      <clipPath
         id="SVGID_2_">
        <use
           y="0"
           x="0"
           style="overflow:visible"
           overflow="visible"
           xlink:href="#SVGID_1_"
           id="use9"
           width="100%"
           height="100%" />
      </clipPath>
    </g>
  </g>
  <g
     id="g22"
     transform="translate(1539.5,-1238.8)">
    <defs
       id="defs17">
      <path
         d="m -1532.5,-469.2 h 1440 v 1768 h -1440 z"
         id="SVGID_3_" />
    </defs>
    <clipPath
       id="SVGID_4_">
      <use
         y="0"
         x="0"
         style="overflow:visible"
         overflow="visible"
         xlink:href="#SVGID_3_"
         id="use19"
         width="100%"
         height="100%" />
    </clipPath>
  </g>
  <g
     id="g56"
     transform="matrix(1.24688,0,0,1.24688,6.999807,10.124744)">
    <g
       id="g32">
      <path
         style="fill:#ed7c02"
         d="M 17,40 C 7.6,40 0,32.4 0,23 0,13.6 7.6,6 17,6 h 12.8 c 2.4,0 4.3,1.9 4.3,4.3 V 23 c 0,9.4 -7.6,17 -17.1,17 z"
         id="path24" />
      <g
         id="g30">
        <path
           style="fill:#ffffff"
           class="st2"
           d="m 13.3,22.7 c 0.2,0 0.5,0.1 0.6,0.3 l 1.7,2.3 1.9,-5.5 c 0.1,-0.3 0.3,-0.4 0.6,-0.5 0.3,0 0.5,0.1 0.7,0.3 l 2.4,3.2 h 4.1 c -0.1,-4.5 -3.8,-8.1 -8.3,-8.1 -4.5,0 -8.2,3.6 -8.3,8.1 h 4.6 z"
           id="path26" />
        <path
           style="fill:#ffffff"
           class="st2"
           d="m 20.9,24.2 c -0.2,0 -0.5,-0.1 -0.6,-0.3 l -1.8,-2.4 -1.9,5.6 c -0.1,0.3 -0.3,0.5 -0.6,0.5 h -0.1 c -0.2,0 -0.5,-0.1 -0.6,-0.3 L 13,24.2 H 8.8 c 0.6,4 4,7.1 8.2,7.1 4.2,0 7.6,-3.1 8.2,-7.1 z"
           id="path28" />
      </g>
    </g>
    <g
       id="g54">
      <path
         style="fill:#4d4d4d"
         class="st3"
         d="m 48.6,0.9 c -2.2,0 -4,0.7 -5.1,1.9 -1.1,1.3 -1.7,2.9 -1.7,4.8 v 2 h -1 c -0.4,0 -0.7,0.1 -1,0.4 -0.3,0.3 -0.4,0.6 -0.4,1 0,0.4 0.1,0.7 0.4,1 0.3,0.3 0.6,0.4 1,0.4 h 1 v 13.8 c 0,0.4 0.1,0.8 0.4,1.1 0.3,0.3 0.6,0.4 1,0.4 0.4,0 0.7,-0.1 1,-0.4 0.3,-0.3 0.4,-0.6 0.4,-1.1 V 12.5 h 3.2 c 0.4,0 0.7,-0.1 1,-0.4 0.3,-0.3 0.4,-0.6 0.4,-1 0,-0.4 -0.1,-0.7 -0.4,-1 -0.3,-0.3 -0.6,-0.4 -1,-0.4 h -3.2 v -2 c 0,-1.2 0.3,-2.2 0.9,-3 0.6,-0.7 1.6,-1.1 2.9,-1.1 0.4,0 0.7,-0.1 1,-0.4 C 49.9,3 50,2.7 50,2.3 50,1.9 49.9,1.6 49.6,1.3 49.4,1.1 49,0.9 48.6,0.9 Z"
         id="path34" />
      <path
         style="fill:#4d4d4d"
         class="st3"
         d="m 60,9.3 c -1.3,0 -2.5,0.3 -3.4,0.9 -0.7,0.4 -1.2,0.9 -1.6,1.5 V 11 C 55,10.6 54.9,10.2 54.6,9.9 54.3,9.6 54,9.5 53.6,9.5 c -0.4,0 -0.7,0.1 -1,0.4 -0.3,0.3 -0.4,0.6 -0.4,1.1 v 15.4 c 0,0.4 0.1,0.8 0.4,1.1 0.3,0.3 0.6,0.4 1,0.4 0.4,0 0.7,-0.1 1,-0.4 0.3,-0.3 0.4,-0.6 0.4,-1.1 v -8.5 c 0,-1.7 0.4,-3.1 1.3,-4.2 0.9,-1 2.1,-1.5 3.7,-1.5 0.4,0 0.7,-0.1 1,-0.4 0.3,-0.3 0.4,-0.6 0.4,-1 0,-0.4 -0.1,-0.7 -0.4,-1 C 60.7,9.5 60.4,9.3 60,9.3 Z"
         id="path36" />
      <path
         style="fill:#4d4d4d"
         class="st3"
         d="m 77,13 c -0.3,-0.7 -0.8,-1.4 -1.3,-1.9 -0.5,-0.6 -1.3,-1 -2.2,-1.4 -0.9,-0.4 -2,-0.6 -3.2,-0.6 -2.5,0 -4.6,0.8 -6,2.5 -1.4,1.6 -2.1,3.9 -2.1,6.9 0,3.1 0.7,5.5 2.2,7.1 1.5,1.6 3.6,2.3 6.2,2.3 2.6,0 4.6,-0.7 6.1,-2.2 0.3,-0.3 0.5,-0.7 0.5,-1.1 0,-0.4 -0.1,-0.7 -0.4,-1 -0.3,-0.3 -0.6,-0.4 -1,-0.4 -0.3,0 -0.6,0.1 -0.8,0.3 -1.4,1 -2.9,1.6 -4.4,1.6 -1.7,0 -3,-0.5 -4,-1.6 -0.9,-1 -1.4,-2.4 -1.5,-4.1 h 10.8 c 0.4,0 0.7,-0.1 1,-0.2 0.3,-0.2 0.5,-0.4 0.6,-0.8 0.1,-0.3 0.1,-0.5 0.2,-0.8 v -0.9 c 0,-0.6 -0.1,-1.2 -0.2,-1.8 0,-0.5 -0.2,-1.2 -0.5,-1.9 z m -6.7,-1.1 c 3,0 4.5,1.6 4.6,5 h -9.7 c 0.2,-1.5 0.6,-2.7 1.5,-3.6 0.9,-1 2.1,-1.4 3.6,-1.4 z"
         id="path38" />
      <path
         style="fill:#4d4d4d"
         class="st3"
         d="m 89.9,17.9 c -1,-0.4 -2,-0.7 -3,-1.1 -1,-0.3 -1.8,-0.7 -2.4,-1.2 -0.6,-0.4 -0.9,-1 -0.9,-1.6 0,-1.4 1,-2 3.1,-2 1.6,0 2.9,0.5 4,1.5 0.3,0.3 0.6,0.4 1,0.4 0.4,0 0.7,-0.1 1,-0.4 0.3,-0.3 0.4,-0.6 0.4,-1 0,-0.3 -0.1,-0.6 -0.3,-0.9 -1.3,-1.7 -3.3,-2.5 -6,-2.5 -1.8,0 -3.2,0.4 -4.3,1.2 -1.1,0.8 -1.7,2 -1.7,3.6 0,1.2 0.4,2.2 1.1,3 0.7,0.8 1.6,1.4 2.6,1.8 1,0.4 2,0.7 3,1 0.9,0.3 1.8,0.7 2.4,1.1 0.6,0.4 0.9,0.9 0.9,1.6 0,0.8 -0.3,1.5 -1,1.8 -0.7,0.4 -1.6,0.6 -2.8,0.6 -1.9,0 -3.5,-0.6 -4.6,-1.8 -0.3,-0.3 -0.6,-0.5 -1,-0.5 -0.4,0 -0.7,0.1 -1,0.4 -0.3,0.3 -0.4,0.6 -0.4,1 0,0.3 0.1,0.6 0.3,0.9 0.6,0.7 1.5,1.4 2.7,2 1.2,0.6 2.5,0.9 4,0.9 1.9,0 3.6,-0.4 4.8,-1.3 1.3,-0.9 1.9,-2.2 1.9,-3.9 0,-1.2 -0.4,-2.2 -1.1,-3 -0.8,-0.6 -1.7,-1.2 -2.7,-1.6 z"
         id="path40" />
      <path
         style="fill:#4d4d4d"
         class="st3"
         d="m 104.9,9.2 c -1.2,0 -2.3,0.3 -3.3,0.8 -0.6,0.4 -1.2,0.8 -1.5,1.3 V 1.4 C 100.1,1 100,0.6 99.7,0.3 99.4,0 99.1,-0.1 98.7,-0.1 98.3,-0.1 98,0 97.7,0.3 97.4,0.6 97.3,0.9 97.3,1.4 v 24.9 c 0,0.4 0.1,0.8 0.4,1.1 0.3,0.3 0.6,0.4 1,0.4 0.4,0 0.7,-0.1 1,-0.4 0.3,-0.3 0.4,-0.6 0.4,-1.1 v -9.4 c 0,-3.4 1.6,-5.1 4.8,-5.1 1.6,0 2.8,0.4 3.4,1.2 0.6,0.8 0.9,2 0.9,3.6 v 9.7 c 0,0.4 0.1,0.8 0.4,1.1 0.3,0.3 0.6,0.4 1.1,0.4 0.5,0 0.8,-0.1 1.1,-0.4 0.3,-0.3 0.4,-0.6 0.4,-1.1 V 16.2 c 0,-4.7 -2.5,-7 -7.3,-7 z"
         id="path42" />
      <path
         style="fill:#4d4d4d"
         class="st3"
         d="m 124.1,9.2 c -1.2,0 -2.3,0.3 -3.3,0.8 -0.7,0.4 -1.2,0.8 -1.6,1.3 v -0.4 c 0,-0.4 -0.1,-0.7 -0.4,-1 -0.3,-0.3 -0.6,-0.4 -1,-0.4 -0.4,0 -0.7,0.1 -1,0.4 -0.3,0.3 -0.4,0.6 -0.4,1 v 22.8 c 0,0.4 0.1,0.7 0.4,1 0.3,0.3 0.6,0.4 1,0.4 0.4,0 0.7,-0.1 1,-0.4 0.3,-0.3 0.4,-0.6 0.4,-1 v -7.8 c 0.4,0.5 1,1 1.7,1.3 0.9,0.5 2,0.8 3.3,0.8 2.6,0 4.6,-0.8 6.1,-2.4 1.4,-1.6 2.1,-3.9 2.1,-7 0,-3.1 -0.7,-5.4 -2.1,-7 -1.6,-1.6 -3.6,-2.4 -6.2,-2.4 z m 0,16 c -1.5,0 -2.7,-0.5 -3.6,-1.6 -0.9,-1.1 -1.4,-2.8 -1.4,-5.1 0,-2.3 0.5,-4 1.4,-5 0.9,-1.1 2.1,-1.6 3.5,-1.6 3.6,0 5.3,2.2 5.3,6.7 0,4.5 -1.7,6.6 -5.2,6.6 z"
         id="path44" />
      <path
         style="fill:#4d4d4d"
         class="st3"
         d="m 137,2.9 c -1.1,0 -1.7,0.6 -1.7,1.8 0,1.1 0.6,1.7 1.7,1.7 1.1,0 1.7,-0.6 1.7,-1.7 0,-1.2 -0.6,-1.8 -1.7,-1.8 z"
         id="path46" />
      <path
         style="fill:#4d4d4d"
         class="st3"
         d="m 137,9.4 c -0.4,0 -0.8,0.1 -1.1,0.4 -0.3,0.3 -0.4,0.6 -0.4,1.1 v 15.4 c 0,0.4 0.1,0.8 0.4,1.1 0.3,0.3 0.6,0.4 1.1,0.4 0.5,0 0.8,-0.1 1.1,-0.4 0.3,-0.3 0.4,-0.6 0.4,-1.1 V 10.9 c 0,-0.4 -0.1,-0.8 -0.4,-1.1 -0.3,-0.3 -0.7,-0.4 -1.1,-0.4 z"
         id="path48" />
      <path
         style="fill:#4d4d4d"
         class="st3"
         d="m 150.7,9.2 c -1.2,0 -2.3,0.3 -3.3,0.8 -0.6,0.4 -1.2,0.8 -1.5,1.3 v -0.4 c 0,-0.4 -0.1,-0.8 -0.4,-1.1 -0.3,-0.3 -0.6,-0.4 -1,-0.4 -0.4,0 -0.7,0.1 -1,0.4 -0.3,0.3 -0.4,0.6 -0.4,1.1 v 15.4 c 0,0.4 0.1,0.8 0.4,1.1 0.3,0.3 0.6,0.4 1,0.4 0.4,0 0.7,-0.1 1,-0.4 0.3,-0.3 0.4,-0.6 0.4,-1.1 v -9.4 c 0,-3.4 1.6,-5.1 4.8,-5.1 1.6,0 2.8,0.4 3.4,1.2 0.6,0.8 0.9,2 0.9,3.6 v 9.7 c 0,0.4 0.1,0.8 0.4,1.1 0.3,0.3 0.6,0.4 1.1,0.4 0.4,0 0.8,-0.1 1,-0.4 0.3,-0.3 0.4,-0.6 0.4,-1.1 V 16.2 c 0,-4.7 -2.4,-7 -7.2,-7 z"
         id="path50" />
      <path
         style="fill:#4d4d4d"
         class="st3"
         d="m 174.6,11.2 c -1.4,-1.3 -3.4,-2 -5.7,-2 -2.6,0 -4.6,0.8 -6,2.4 -1.4,1.6 -2.1,3.9 -2.1,7 0,3.1 0.7,5.5 2.1,7 1.4,1.6 3.4,2.3 6,2.3 2,0 3.7,-0.6 4.9,-1.9 v 1.5 c 0,1.6 -0.5,2.8 -1.4,3.6 -0.9,0.8 -2.2,1.2 -3.7,1.2 -1.7,0 -3.2,-0.6 -4.3,-1.7 -0.3,-0.3 -0.7,-0.5 -1.1,-0.5 -0.4,0 -0.7,0.1 -1,0.4 -0.3,0.3 -0.4,0.6 -0.4,1 0,0.3 0.1,0.6 0.3,0.8 1.5,1.8 3.7,2.7 6.5,2.7 2.3,0 4.3,-0.6 5.8,-1.9 1.5,-1.2 2.3,-3.2 2.3,-5.7 V 16.9 c 0,-2.4 -0.8,-4.4 -2.2,-5.7 z m -2.9,13.3 c -0.8,0.5 -1.7,0.7 -2.7,0.7 -3.5,0 -5.2,-2.2 -5.2,-6.7 0,-4.5 1.7,-6.7 5.2,-6.7 1.4,0 2.6,0.4 3.5,1.3 0.9,0.9 1.4,2.1 1.4,3.8 v 5.4 l -0.5,0.7 c -0.4,0.5 -0.9,1 -1.7,1.5 z"
         id="path52" />
    </g>
  </g>
</svg>
