<svg xmlns="http://www.w3.org/2000/svg" xmlns:xlink="http://www.w3.org/1999/xlink" height="70" width="220.448" id="Layer_1"><style id="style2">.st2{fill:#fff}.st3{fill:#4d4d4d}</style><path id="rect4" d="M-1532.5-449.2h1440v1768h-1440z" fill="none"/><g transform="translate(0 20)" id="g14"><g id="g12"><defs id="defs7"><path id="SVGID_1_" d="M-1532.5-469.2h1440v1768h-1440z"/></defs><clipPath id="SVGID_2_"><use height="100%" width="100%" id="use9" xlink:href="#SVGID_1_" overflow="visible"/></clipPath></g></g><g transform="translate(0 20)" id="g22"><defs id="defs17"><path id="SVGID_3_" d="M-1532.5-469.2h1440v1768h-1440z"/></defs><clipPath id="SVGID_4_"><use height="100%" width="100%" id="use19" xlink:href="#SVGID_3_" overflow="visible"/></clipPath></g><g transform="translate(0 10.125) scale(1.24688)" id="g56"><g id="g32"><path id="path24" d="M17 40C7.6 40 0 32.4 0 23S7.6 6 17 6h12.8c2.4 0 4.3 1.9 4.3 4.3V23c0 9.4-7.6 17-17.1 17z" fill="#ed7c02"/><g id="g30"><path id="path26" d="M13.3 22.7c.2 0 .5.1.6.3l1.7 2.3 1.9-5.5c.1-.3.3-.4.6-.5.3 0 .5.1.7.3l2.4 3.2h4.1c-.1-4.5-3.8-8.1-8.3-8.1-4.5 0-8.2 3.6-8.3 8.1h4.6z" class="st2" fill="#fff"/><path id="path28" d="M20.9 24.2c-.2 0-.5-.1-.6-.3l-1.8-2.4-1.9 5.6c-.1.3-.3.5-.6.5h-.1c-.2 0-.5-.1-.6-.3L13 24.2H8.8c.6 4 4 7.1 8.2 7.1 4.2 0 7.6-3.1 8.2-7.1z" class="st2" fill="#fff"/></g></g><g id="g54"><path id="path34" d="M48.6.9c-2.2 0-4 .7-5.1 1.9-1.1 1.3-1.7 2.9-1.7 4.8v2h-1c-.4 0-.7.1-1 .4-.3.3-.4.6-.4 1s.1.7.4 1c.3.3.6.4 1 .4h1v13.8c0 .4.1.8.4 1.1.3.3.6.4 1 .4s.7-.1 1-.4c.3-.3.4-.6.4-1.1V12.5h3.2c.4 0 .7-.1 1-.4.3-.3.4-.6.4-1s-.1-.7-.4-1c-.3-.3-.6-.4-1-.4h-3.2v-2c0-1.2.3-2.2.9-3 .6-.7 1.6-1.1 2.9-1.1.4 0 .7-.1 1-.4.5-.2.6-.5.6-.9s-.1-.7-.4-1c-.2-.2-.6-.4-1-.4z" class="st3" fill="#4d4d4d"/><path id="path36" d="M60 9.3c-1.3 0-2.5.3-3.4.9-.7.4-1.2.9-1.6 1.5V11c0-.4-.1-.8-.4-1.1-.3-.3-.6-.4-1-.4s-.7.1-1 .4c-.3.3-.4.6-.4 1.1v15.4c0 .4.1.8.4 1.1.3.3.6.4 1 .4s.7-.1 1-.4c.3-.3.4-.6.4-1.1v-8.5c0-1.7.4-3.1 1.3-4.2.9-1 2.1-1.5 3.7-1.5.4 0 .7-.1 1-.4.3-.3.4-.6.4-1s-.1-.7-.4-1c-.3-.3-.6-.5-1-.5z" class="st3" fill="#4d4d4d"/><path id="path38" d="M77 13c-.3-.7-.8-1.4-1.3-1.9-.5-.6-1.3-1-2.2-1.4-.9-.4-2-.6-3.2-.6-2.5 0-4.6.8-6 2.5-1.4 1.6-2.1 3.9-2.1 6.9 0 3.1.7 5.5 2.2 7.1 1.5 1.6 3.6 2.3 6.2 2.3s4.6-.7 6.1-2.2c.3-.3.5-.7.5-1.1 0-.4-.1-.7-.4-1-.3-.3-.6-.4-1-.4-.3 0-.6.1-.8.3-1.4 1-2.9 1.6-4.4 1.6-1.7 0-3-.5-4-1.6-.9-1-1.4-2.4-1.5-4.1h10.8c.4 0 .7-.1 1-.2.3-.2.5-.4.6-.8.1-.3.1-.5.2-.8v-.9c0-.6-.1-1.2-.2-1.8 0-.5-.2-1.2-.5-1.9zm-6.7-1.1c3 0 4.5 1.6 4.6 5h-9.7c.2-1.5.6-2.7 1.5-3.6.9-1 2.1-1.4 3.6-1.4z" class="st3" fill="#4d4d4d"/><path id="path40" d="M89.9 17.9c-1-.4-2-.7-3-1.1-1-.3-1.8-.7-2.4-1.2-.6-.4-.9-1-.9-1.6 0-1.4 1-2 3.1-2 1.6 0 2.9.5 4 1.5.3.3.6.4 1 .4s.7-.1 1-.4c.3-.3.4-.6.4-1 0-.3-.1-.6-.3-.9-1.3-1.7-3.3-2.5-6-2.5-1.8 0-3.2.4-4.3 1.2-1.1.8-1.7 2-1.7 3.6 0 1.2.4 2.2 1.1 3 .7.8 1.6 1.4 2.6 1.8 1 .4 2 .7 3 1 .9.3 1.8.7 2.4 1.1.6.4.9.9.9 1.6 0 .8-.3 1.5-1 1.8-.7.4-1.6.6-2.8.6-1.9 0-3.5-.6-4.6-1.8-.3-.3-.6-.5-1-.5s-.7.1-1 .4c-.3.3-.4.6-.4 1 0 .3.1.6.3.9.6.7 1.5 1.4 2.7 2 1.2.6 2.5.9 4 .9 1.9 0 3.6-.4 4.8-1.3 1.3-.9 1.9-2.2 1.9-3.9 0-1.2-.4-2.2-1.1-3-.8-.6-1.7-1.2-2.7-1.6z" class="st3" fill="#4d4d4d"/><path id="path42" d="M104.9 9.2c-1.2 0-2.3.3-3.3.8-.6.4-1.2.8-1.5 1.3V1.4c0-.4-.1-.8-.4-1.1-.3-.3-.6-.4-1-.4s-.7.1-1 .4c-.3.3-.4.6-.4 1.1v24.9c0 .4.1.8.4 1.1.3.3.6.4 1 .4s.7-.1 1-.4c.3-.3.4-.6.4-1.1v-9.4c0-3.4 1.6-5.1 4.8-5.1 1.6 0 2.8.4 3.4 1.2.6.8.9 2 .9 3.6v9.7c0 .4.1.8.4 1.1.3.3.6.4 1.1.4.5 0 .8-.1 1.1-.4.3-.3.4-.6.4-1.1V16.2c0-4.7-2.5-7-7.3-7z" class="st3" fill="#4d4d4d"/><path id="path44" d="M124.1 9.2c-1.2 0-2.3.3-3.3.8-.7.4-1.2.8-1.6 1.3v-.4c0-.4-.1-.7-.4-1-.3-.3-.6-.4-1-.4s-.7.1-1 .4c-.3.3-.4.6-.4 1v22.8c0 .4.1.7.4 1 .3.3.6.4 1 .4s.7-.1 1-.4c.3-.3.4-.6.4-1v-7.8c.4.5 1 1 1.7 1.3.9.5 2 .8 3.3.8 2.6 0 4.6-.8 6.1-2.4 1.4-1.6 2.1-3.9 2.1-7s-.7-5.4-2.1-7c-1.6-1.6-3.6-2.4-6.2-2.4zm0 16c-1.5 0-2.7-.5-3.6-1.6-.9-1.1-1.4-2.8-1.4-5.1s.5-4 1.4-5c.9-1.1 2.1-1.6 3.5-1.6 3.6 0 5.3 2.2 5.3 6.7s-1.7 6.6-5.2 6.6z" class="st3" fill="#4d4d4d"/><path id="path46" d="M137 2.9c-1.1 0-1.7.6-1.7 1.8 0 1.1.6 1.7 1.7 1.7s1.7-.6 1.7-1.7c0-1.2-.6-1.8-1.7-1.8z" class="st3" fill="#4d4d4d"/><path id="path48" d="M137 9.4c-.4 0-.8.1-1.1.4-.3.3-.4.6-.4 1.1v15.4c0 .4.1.8.4 1.1.3.3.6.4 1.1.4.5 0 .8-.1 1.1-.4.3-.3.4-.6.4-1.1V10.9c0-.4-.1-.8-.4-1.1-.3-.3-.7-.4-1.1-.4z" class="st3" fill="#4d4d4d"/><path id="path50" d="M150.7 9.2c-1.2 0-2.3.3-3.3.8-.6.4-1.2.8-1.5 1.3v-.4c0-.4-.1-.8-.4-1.1-.3-.3-.6-.4-1-.4s-.7.1-1 .4c-.3.3-.4.6-.4 1.1v15.4c0 .4.1.8.4 1.1.3.3.6.4 1 .4s.7-.1 1-.4c.3-.3.4-.6.4-1.1v-9.4c0-3.4 1.6-5.1 4.8-5.1 1.6 0 2.8.4 3.4 1.2.6.8.9 2 .9 3.6v9.7c0 .4.1.8.4 1.1.3.3.6.4 1.1.4.4 0 .8-.1 1-.4.3-.3.4-.6.4-1.1V16.2c0-4.7-2.4-7-7.2-7z" class="st3" fill="#4d4d4d"/><path id="path52" d="M174.6 11.2c-1.4-1.3-3.4-2-5.7-2-2.6 0-4.6.8-6 2.4-1.4 1.6-2.1 3.9-2.1 7s.7 5.5 2.1 7c1.4 1.6 3.4 2.3 6 2.3 2 0 3.7-.6 4.9-1.9v1.5c0 1.6-.5 2.8-1.4 3.6-.9.8-2.2 1.2-3.7 1.2-1.7 0-3.2-.6-4.3-1.7-.3-.3-.7-.5-1.1-.5-.4 0-.7.1-1 .4-.3.3-.4.6-.4 1 0 .3.1.6.3.8 1.5 1.8 3.7 2.7 6.5 2.7 2.3 0 4.3-.6 5.8-1.9 1.5-1.2 2.3-3.2 2.3-5.7V16.9c0-2.4-.8-4.4-2.2-5.7zm-2.9 13.3c-.8.5-1.7.7-2.7.7-3.5 0-5.2-2.2-5.2-6.7s1.7-6.7 5.2-6.7c1.4 0 2.6.4 3.5 1.3.9.9 1.4 2.1 1.4 3.8v5.4l-.5.7c-.4.5-.9 1-1.7 1.5z" class="st3" fill="#4d4d4d"/></g></g></svg>