<?xml version="1.0" encoding="UTF-8" standalone="no"?>
<svg
   xmlns:dc="http://purl.org/dc/elements/1.1/"
   xmlns:cc="http://creativecommons.org/ns#"
   xmlns:rdf="http://www.w3.org/1999/02/22-rdf-syntax-ns#"
   xmlns:svg="http://www.w3.org/2000/svg"
   xmlns="http://www.w3.org/2000/svg"
   id="svg8"
   version="1.1"
   height="70.000061"
   width="139.70856">
  <metadata
     id="metadata14">
    <rdf:RDF>
      <cc:Work
         rdf:about="">
        <dc:format>image/svg+xml</dc:format>
        <dc:type
           rdf:resource="http://purl.org/dc/dcmitype/StillImage" />
        <dc:title></dc:title>
      </cc:Work>
    </rdf:RDF>
  </metadata>
  <defs
     id="defs12" />
  <g
     transform="translate(9.9995608)"
     style="stroke-width:0.1"
     id="g6">
    <path
       style="fill:#362701"
       id="path2"
       d="m 71.742,27.018 c -2.625,0 -4.58,1.29 -4.58,4.39 0,2.338 1.289,3.96 4.439,3.96 2.67,0 4.483,-1.573 4.483,-4.056 0,-2.813 -1.623,-4.294 -4.342,-4.294 z M 66.494,48.92 c -0.62,0.763 -1.24,1.573 -1.24,2.528 0,1.907 2.432,2.481 5.773,2.481 2.767,0 6.536,-0.194 6.536,-2.766 0,-1.53 -1.813,-1.624 -4.104,-1.768 z M 80.616,27.163 c 0.858,1.098 1.765,2.625 1.765,4.82 0,5.295 -4.15,8.396 -10.16,8.396 -1.53,0 -2.912,-0.19 -3.77,-0.429 l -1.575,2.528 4.675,0.286 c 8.254,0.526 13.119,0.765 13.119,7.108 0,5.488 -4.817,8.587 -13.12,8.587 -8.634,0 -11.926,-2.195 -11.926,-5.963 0,-2.148 0.954,-3.29 2.624,-4.867 -1.575,-0.666 -2.1,-1.858 -2.1,-3.146 0,-1.05 0.525,-2.005 1.385,-2.912 0.859,-0.905 1.813,-1.813 2.958,-2.862 -2.338,-1.145 -4.103,-3.626 -4.103,-7.157 0,-5.486 3.626,-9.254 10.924,-9.254 2.052,0 3.293,0.19 4.39,0.477 h 9.304 v 4.054 l -4.39,0.334 M 93.4,18.493 c -2.72,0 -4.295,-1.576 -4.295,-4.296 C 89.105,11.48 90.68,10 93.4,10 c 2.768,0 4.342,1.48 4.342,4.197 0,2.72 -1.574,4.296 -4.342,4.296 z m -6.156,28.67 v -3.766 l 2.434,-0.333 c 0.668,-0.097 0.763,-0.239 0.763,-0.956 V 28.082 c 0,-0.524 -0.143,-0.86 -0.621,-1.002 l -2.576,-0.907 0.524,-3.863 h 9.877 v 19.798 c 0,0.764 0.046,0.86 0.764,0.956 l 2.433,0.333 v 3.767 H 87.244 m 32.464,-1.85 c -2.052,1.001 -5.057,1.908 -7.778,1.908 -5.677,0 -7.823,-2.288 -7.823,-7.682 V 27.042 c 0,-0.286 0,-0.478 -0.383,-0.478 h -3.34 V 22.32 c 4.2,-0.479 5.87,-2.578 6.394,-7.778 h 4.533 v 6.776 c 0,0.333 0,0.477 0.382,0.477 h 6.726 v 4.77 h -7.108 v 11.402 c 0,2.815 0.668,3.912 3.243,3.912 1.338,0 2.72,-0.333 3.865,-0.763 l 1.29,4.2" />
    <path
       style="fill:#f03c2e"
       id="path4"
       d="M 49.02,32.794 27.204,10.982 a 3.217,3.217 0 0 0 -4.55,0 l -4.53,4.53 5.746,5.746 a 3.82,3.82 0 0 1 4.84,4.871 l 5.537,5.538 a 3.827,3.827 0 0 1 3.955,6.322 3.828,3.828 0 0 1 -6.248,-4.164 l -5.165,-5.164 v 13.59 A 3.83,3.83 0 1 1 23.641,42.14 V 28.423 a 3.827,3.827 0 0 1 -2.078,-5.02 L 15.9,17.736 0.943,32.694 a 3.218,3.218 0 0 0 0,4.551 l 21.814,21.813 a 3.218,3.218 0 0 0 4.55,0 L 49.019,37.346 a 3.22,3.22 0 0 0 0,-4.552" />
  </g>
</svg>
