<svg xmlns="http://www.w3.org/2000/svg" width="119.709" height="70"><g stroke-width=".1"><path d="M71.742 27.018c-2.625 0-4.58 1.29-4.58 4.39 0 2.338 1.289 3.96 4.439 3.96 2.67 0 4.483-1.573 4.483-4.056 0-2.813-1.623-4.294-4.342-4.294zM66.494 48.92c-.62.763-1.24 1.573-1.24 2.528 0 1.907 2.432 2.481 5.773 2.481 2.767 0 6.536-.194 6.536-2.766 0-1.53-1.813-1.624-4.104-1.768zm14.122-21.757c.858 1.098 1.765 2.625 1.765 4.82 0 5.295-4.15 8.396-10.16 8.396-1.53 0-2.912-.19-3.77-.429l-1.575 2.528 4.675.286c8.254.526 13.119.765 13.119 7.108 0 5.488-4.817 8.587-13.12 8.587-8.634 0-11.926-2.195-11.926-5.963 0-2.148.954-3.29 2.624-4.867-1.575-.666-2.1-1.858-2.1-3.146 0-1.05.525-2.005 1.385-2.912.859-.905 1.813-1.813 2.958-2.862-2.338-1.145-4.103-3.626-4.103-7.157 0-5.486 3.626-9.254 10.924-9.254 2.052 0 3.293.19 4.39.477h9.304v4.054l-4.39.334m12.784-8.67c-2.72 0-4.295-1.576-4.295-4.296C89.105 11.48 90.68 10 93.4 10c2.768 0 4.342 1.48 4.342 4.197 0 2.72-1.574 4.296-4.342 4.296zm-6.156 28.67v-3.766l2.434-.333c.668-.097.763-.239.763-.956V28.082c0-.524-.143-.86-.621-1.002l-2.576-.907.524-3.863h9.877v19.798c0 .764.046.86.764.956l2.433.333v3.767H87.244m32.464-1.85c-2.052 1.001-5.057 1.908-7.778 1.908-5.677 0-7.823-2.288-7.823-7.682V27.042c0-.286 0-.478-.383-.478h-3.34V22.32c4.2-.479 5.87-2.578 6.394-7.778h4.533v6.776c0 .333 0 .477.382.477h6.726v4.77h-7.108v11.402c0 2.815.668 3.912 3.243 3.912 1.338 0 2.72-.333 3.865-.763l1.29 4.2" fill="#362701"/><path d="M49.02 32.794L27.204 10.982a3.217 3.217 0 0 0-4.55 0l-4.53 4.53 5.746 5.746a3.82 3.82 0 0 1 4.84 4.871l5.537 5.538a3.827 3.827 0 0 1 3.955 6.322 3.828 3.828 0 0 1-6.248-4.164l-5.165-5.164v13.59a3.83 3.83 0 1 1-3.148-.111V28.423a3.827 3.827 0 0 1-2.078-5.02L15.9 17.736.943 32.694a3.218 3.218 0 0 0 0 4.551l21.814 21.813a3.218 3.218 0 0 0 4.55 0l21.712-21.712a3.22 3.22 0 0 0 0-4.552" fill="#f03c2e"/></g></svg>