<?xml version="1.0" encoding="UTF-8" standalone="no"?>
<svg
   xmlns:dc="http://purl.org/dc/elements/1.1/"
   xmlns:cc="http://creativecommons.org/ns#"
   xmlns:rdf="http://www.w3.org/1999/02/22-rdf-syntax-ns#"
   xmlns:svg="http://www.w3.org/2000/svg"
   xmlns="http://www.w3.org/2000/svg"
   height="69.999969"
   width="251.79984"
   version="1.1"
   id="svg18">
  <metadata
     id="metadata24">
    <rdf:RDF>
      <cc:Work
         rdf:about="">
        <dc:format>image/svg+xml</dc:format>
        <dc:type
           rdf:resource="http://purl.org/dc/dcmitype/StillImage" />
        <dc:title></dc:title>
      </cc:Work>
    </rdf:RDF>
  </metadata>
  <defs
     id="defs22" />
  <g
     id="g16"
     style="fill:#0b2e72;fill-rule:evenodd"
     transform="translate(4.9998389)">
    <path
       d="M 5.455,17.022 C 4.725,16.242 4.362,15.305 4.362,14.108 4.415,12.966 4.779,12.028 5.558,11.196 6.39,10.415 7.328,10 8.523,10 c 1.197,0 2.08,0.417 2.86,1.196 0.833,0.833 1.25,1.769 1.25,2.912 0,1.197 -0.47,2.133 -1.301,2.914 -0.833,0.78 -1.82,1.143 -2.965,1.143 -1.145,0 -2.132,-0.364 -2.912,-1.143 z M 17.26,37.878 C 13.152,49.11 -2.555,52.128 0.358,37.564 L 3.79,21.078 h 7.178 c -1.665,8.79 -2.86,14.146 -4.057,20.285 -1.196,6.24 6.553,1.612 8.32,-3.486 h 2.03 z"
       id="path2" />
    <path
       d="m 56.53,38.243 c -4.16,11.182 -18.568,12.742 -16.383,1.143 0.728,-4.005 1.56,-8.166 2.39,-12.69 1.25,-5.93 -4.366,-1.509 -6.24,3.276 -0.051,0.104 -0.104,0.207 -0.155,0.417 -0.313,1.612 -2.706,15.343 -2.965,16.694 H 26.313 C 27.767,38.97 28.86,32.521 29.9,26.85 c 0.987,-5.512 -4.266,-2.237 -6.398,2.134 -0.052,0.052 -0.052,0.103 -0.105,0.208 L 19.81,47.083 h -7.178 l 5.2,-26.005 h 7.18 l -0.677,3.537 c 4.16,-4.992 11.65,-5.617 12.119,1.509 5.46,-7.437 14.824,-7.957 12.325,4.263 l -0.831,4.63 c -0.417,2.237 -0.467,2.392 -1.248,6.605 -0.884,4.11 6.084,1.56 7.8,-3.38 z"
       id="path4" />
    <path
       d="m 71.25,25.863 c -3.172,-5.774 -9.31,-0.154 -11.13,8.27 -1.975,9.415 1.457,14.303 8.633,4.628 l 2.498,-12.897 z m 14.096,12.326 c -3.59,9.57 -16.071,12.951 -16.748,4.006 -5.512,8.217 -17.37,6.71 -16.436,-4.057 C 52.891,29.764 57,21.391 66.308,21.078 h 13.159 l -0.413,1.977 c -1.614,7.957 -2.706,12.587 -3.903,18.567 -1.143,5.93 6.45,1.457 8.166,-3.432 h 2.029 z"
       id="path6" />
    <path
       d="m 100.43,25.395 c -3.172,-5.877 -9.466,-0.208 -11.39,8.374 -2.08,9.674 1.56,14.562 8.738,4.785 z m 8.27,-4.577 -4.005,19.607 c -2.184,12.12 -5.721,22.99 -21.115,18.569 l 4.785,-4.993 c 2.6,1.977 4.524,2.236 5.928,1.403 l 0.209,-0.833 2.39,-11.545 c -5.77,7.23 -16.902,5.41 -16.017,-5.15 1.04,-11.96 7.957,-16.695 13.16,-16.953 0.986,-0.052 1.923,-0.105 3.015,-0.105 z m 7.127,13.679 c 8.217,0.26 9.154,-9.623 7.853,-10.661 -1.04,-0.78 -3.33,0.208 -5.2,3.172 -1.092,1.664 -2.028,4.004 -2.6,6.917 0,0.208 -0.053,0.416 -0.053,0.57 z m 15.604,3.64 c -4.058,7.49 -8.321,9.415 -14.251,9.258 -9.83,-0.312 -9.986,-12.742 -5.15,-20.44 3.954,-6.137 10.714,-7.437 13.679,-4.94 2.653,2.132 2.706,6.085 1.145,9.153 -2.34,4.318 -6.71,5.93 -11.183,5.774 0.052,2.496 0.987,5.409 3.224,6.5 4.006,1.873 8.22,-1.247 10.664,-5.304 z"
       id="path8" />
    <path
       d="m 145.63,24.407 c -2.443,1.3 -5.67,6.085 -7.49,8.375 l -0.52,2.496 c 0.57,-0.209 1.04,-0.417 1.457,-0.625 8.323,-3.487 10.61,-12.534 6.554,-10.246 z m 4.578,22.676 h -7.387 l -5.774,-8.944 -1.61,8.944 h -7.281 l 7.227,-36.407 h 7.02 c -1.195,6.502 -2.287,11.495 -3.535,17.996 1.767,-2.445 4.317,-5.46 6.812,-6.919 7.386,-4.524 9.57,8.531 -2.86,13.784 l 7.386,11.546 z m 7.49,-30.06 c -0.728,-0.782 -1.092,-1.718 -1.092,-2.915 0.053,-1.142 0.417,-2.08 1.196,-2.912 0.833,-0.781 1.77,-1.196 2.963,-1.196 1.199,0 2.083,0.417 2.862,1.196 0.833,0.833 1.25,1.769 1.25,2.912 0,1.197 -0.47,2.133 -1.303,2.914 -0.833,0.78 -1.82,1.143 -2.963,1.143 -1.145,0 -2.133,-0.364 -2.912,-1.143 z m 11.806,20.855 c -4.11,11.234 -19.815,14.251 -16.902,-0.313 l 3.432,-16.487 h 7.176 c -1.663,8.79 -2.86,14.146 -4.057,20.285 -1.195,6.24 6.555,1.612 8.323,-3.486 h 2.028 z"
       id="path10" />
    <path
       d="m 183.86,37.982 c -4.16,11.13 -19.503,14.095 -16.591,-0.208 l 2.757,-13.523 h -3.121 l 1.299,-3.173 h 2.499 l 1.404,-6.762 7.384,-1.456 -1.612,8.218 h 4.212 l -1.508,3.173 h -3.276 l -3.485,17.268 c -1.197,6.084 6.19,1.558 7.957,-3.537 h 2.083 z m 1.978,2.237 c 0.833,-0.78 1.82,-1.197 2.965,-1.197 1.144,0 2.132,0.416 3.015,1.197 0.78,0.884 1.198,1.872 1.198,3.015 0,1.145 -0.417,2.132 -1.198,2.965 -0.883,0.781 -1.87,1.196 -3.015,1.196 -1.145,0 -2.134,-0.417 -2.965,-1.196 -0.78,-0.833 -1.197,-1.82 -1.197,-2.965 0,-1.143 0.416,-2.131 1.197,-3.015 M 203.99,17.022 c -0.728,-0.78 -1.092,-1.717 -1.092,-2.914 0.05,-1.142 0.416,-2.08 1.195,-2.912 0.833,-0.781 1.77,-1.196 2.965,-1.196 1.196,0 2.08,0.417 2.862,1.196 0.83,0.833 1.246,1.769 1.246,2.912 0,1.197 -0.467,2.133 -1.3,2.914 -0.832,0.78 -1.82,1.143 -2.964,1.143 -1.144,0 -2.133,-0.364 -2.912,-1.143 z m 11.806,20.856 c -4.108,11.234 -19.815,14.251 -16.903,-0.313 l 3.432,-16.487 h 7.178 c -1.666,8.79 -2.861,14.146 -4.057,20.285 -1.197,6.24 6.553,1.612 8.32,-3.486 h 2.03 z"
       id="path12" />
    <path
       d="m 229.37,33.716 c -1.664,-0.311 -3.223,-1.04 -4.993,-2.39 l 2.706,-3.694 a 7.376,7.376 0 0 0 2.237,1.404 c -0.833,-3.849 -4.11,-7.281 -7.075,-3.173 -2.6,3.745 -4.94,15.136 -0.311,17.736 2.497,1.456 6.085,-1.093 7.437,-9.673 v -0.211 z m 12.43,-5.252 c -2.08,1.873 -4.16,3.329 -6.186,4.264 -1.51,11.86 -11.184,16.436 -17.32,14.095 -4.84,-1.768 -6.606,-6.24 -6.087,-11.026 0.57,-5.044 3.59,-10.297 8.426,-13.055 4.838,-2.807 12.067,-3.068 14.563,2.967 0.416,0.987 0.677,2.233 0.677,3.64 2.08,-0.521 4.11,-1.51 5.773,-2.653 z"
       id="path14" />
  </g>
</svg>
