<svg xmlns="http://www.w3.org/2000/svg" height="70" width="241.801"><g fill="#0b2e72" fill-rule="evenodd"><path d="M5.455 17.022c-.73-.78-1.093-1.717-1.093-2.914.053-1.142.417-2.08 1.196-2.912C6.39 10.415 7.328 10 8.523 10c1.197 0 2.08.417 2.86 1.196.833.833 1.25 1.769 1.25 2.912 0 1.197-.47 2.133-1.301 2.914-.833.78-1.82 1.143-2.965 1.143-1.145 0-2.132-.364-2.912-1.143zM17.26 37.878C13.152 49.11-2.555 52.128.358 37.564L3.79 21.078h7.178c-1.665 8.79-2.86 14.146-4.057 20.285-1.196 6.24 6.553 1.612 8.32-3.486h2.03z"/><path d="M56.53 38.243c-4.16 11.182-18.568 12.742-16.383 1.143.728-4.005 1.56-8.166 2.39-12.69 1.25-5.93-4.366-1.509-6.24 3.276-.051.104-.104.207-.155.417-.313 1.612-2.706 15.343-2.965 16.694h-6.864C27.767 38.97 28.86 32.521 29.9 26.85c.987-5.512-4.266-2.237-6.398 2.134-.052.052-.052.103-.105.208L19.81 47.083h-7.178l5.2-26.005h7.18l-.677 3.537c4.16-4.992 11.65-5.617 12.119 1.509 5.46-7.437 14.824-7.957 12.325 4.263l-.831 4.63c-.417 2.237-.467 2.392-1.248 6.605-.884 4.11 6.084 1.56 7.8-3.38z"/><path d="M71.25 25.863c-3.172-5.774-9.31-.154-11.13 8.27-1.975 9.415 1.457 14.303 8.633 4.628l2.498-12.897zm14.096 12.326c-3.59 9.57-16.071 12.951-16.748 4.006-5.512 8.217-17.37 6.71-16.436-4.057.729-8.374 4.838-16.747 14.146-17.06h13.159l-.413 1.977c-1.614 7.957-2.706 12.587-3.903 18.567-1.143 5.93 6.45 1.457 8.166-3.432h2.029z"/><path d="M100.43 25.395c-3.172-5.877-9.466-.208-11.39 8.374-2.08 9.674 1.56 14.562 8.738 4.785zm8.27-4.577l-4.005 19.607c-2.184 12.12-5.721 22.99-21.115 18.569l4.785-4.993c2.6 1.977 4.524 2.236 5.928 1.403l.209-.833 2.39-11.545c-5.77 7.23-16.902 5.41-16.017-5.15 1.04-11.96 7.957-16.695 13.16-16.953.986-.052 1.923-.105 3.015-.105zm7.127 13.679c8.217.26 9.154-9.623 7.853-10.661-1.04-.78-3.33.208-5.2 3.172-1.092 1.664-2.028 4.004-2.6 6.917 0 .208-.053.416-.053.57zm15.604 3.64c-4.058 7.49-8.321 9.415-14.251 9.258-9.83-.312-9.986-12.742-5.15-20.44 3.954-6.137 10.714-7.437 13.679-4.94 2.653 2.132 2.706 6.085 1.145 9.153-2.34 4.318-6.71 5.93-11.183 5.774.052 2.496.987 5.409 3.224 6.5 4.006 1.873 8.22-1.247 10.664-5.304z"/><path d="M145.63 24.407c-2.443 1.3-5.67 6.085-7.49 8.375l-.52 2.496c.57-.209 1.04-.417 1.457-.625 8.323-3.487 10.61-12.534 6.554-10.246zm4.578 22.676h-7.387l-5.774-8.944-1.61 8.944h-7.281l7.227-36.407h7.02c-1.195 6.502-2.287 11.495-3.535 17.996 1.767-2.445 4.317-5.46 6.812-6.919 7.386-4.524 9.57 8.531-2.86 13.784l7.386 11.546zm7.49-30.06c-.728-.782-1.092-1.718-1.092-2.915.053-1.142.417-2.08 1.196-2.912.833-.781 1.77-1.196 2.963-1.196 1.199 0 2.083.417 2.862 1.196.833.833 1.25 1.769 1.25 2.912 0 1.197-.47 2.133-1.303 2.914-.833.78-1.82 1.143-2.963 1.143-1.145 0-2.133-.364-2.912-1.143zm11.806 20.855c-4.11 11.234-19.815 14.251-16.902-.313l3.432-16.487h7.176c-1.663 8.79-2.86 14.146-4.057 20.285-1.195 6.24 6.555 1.612 8.323-3.486h2.028z"/><path d="M183.86 37.982c-4.16 11.13-19.503 14.095-16.591-.208l2.757-13.523h-3.121l1.299-3.173h2.499l1.404-6.762 7.384-1.456-1.612 8.218h4.212l-1.508 3.173h-3.276l-3.485 17.268c-1.197 6.084 6.19 1.558 7.957-3.537h2.083zm1.978 2.237c.833-.78 1.82-1.197 2.965-1.197 1.144 0 2.132.416 3.015 1.197.78.884 1.198 1.872 1.198 3.015 0 1.145-.417 2.132-1.198 2.965-.883.781-1.87 1.196-3.015 1.196s-2.134-.417-2.965-1.196c-.78-.833-1.197-1.82-1.197-2.965 0-1.143.416-2.131 1.197-3.015m18.152-23.197c-.728-.78-1.092-1.717-1.092-2.914.05-1.142.416-2.08 1.195-2.912.833-.781 1.77-1.196 2.965-1.196 1.196 0 2.08.417 2.862 1.196.83.833 1.246 1.769 1.246 2.912 0 1.197-.467 2.133-1.3 2.914-.832.78-1.82 1.143-2.964 1.143s-2.133-.364-2.912-1.143zm11.806 20.856c-4.108 11.234-19.815 14.251-16.903-.313l3.432-16.487h7.178c-1.666 8.79-2.861 14.146-4.057 20.285-1.197 6.24 6.553 1.612 8.32-3.486h2.03z"/><path d="M229.37 33.716c-1.664-.311-3.223-1.04-4.993-2.39l2.706-3.694a7.376 7.376 0 0 0 2.237 1.404c-.833-3.849-4.11-7.281-7.075-3.173-2.6 3.745-4.94 15.136-.311 17.736 2.497 1.456 6.085-1.093 7.437-9.673v-.211zm12.43-5.252c-2.08 1.873-4.16 3.329-6.186 4.264-1.51 11.86-11.184 16.436-17.32 14.095-4.84-1.768-6.606-6.24-6.087-11.026.57-5.044 3.59-10.297 8.426-13.055 4.838-2.807 12.067-3.068 14.563 2.967.416.987.677 2.233.677 3.64 2.08-.521 4.11-1.51 5.773-2.653z"/></g></svg>