<?xml version="1.0" encoding="UTF-8" standalone="no"?>
<svg
   xmlns:dc="http://purl.org/dc/elements/1.1/"
   xmlns:cc="http://creativecommons.org/ns#"
   xmlns:rdf="http://www.w3.org/1999/02/22-rdf-syntax-ns#"
   xmlns:svg="http://www.w3.org/2000/svg"
   xmlns="http://www.w3.org/2000/svg"
   id="svg6"
   version="1.1"
   width="235.481"
   height="70.000023"
   viewBox="0 0 281164.18 37520.024">
  <metadata
     id="metadata12">
    <rdf:RDF>
      <cc:Work
         rdf:about="">
        <dc:format>image/svg+xml</dc:format>
        <dc:type
           rdf:resource="http://purl.org/dc/dcmitype/StillImage" />
        <dc:title></dc:title>
      </cc:Work>
    </rdf:RDF>
  </metadata>
  <defs
     id="defs10" />
  <path
     style="fill:#21ace2"
     id="path2"
     d="m 36776.933,-6438.6546 -1342.65,1846.145 c -1794.625,2641.185 -1964.375,5921.725 -719.277,8839.116 1312.345,3095.769 3996.866,5530.442 7136.827,6681.2846 129.47,48.72 261.216,92.512 391.607,135.864 l 175.823,55.944 c 186.283,57.925 367.937,123.396 559.438,159.839 8679.2,1676.395 11034.222,-4450.8226 11660.28,-5354.6186 -2062.694,2969.56 -5529.725,3678.032 -9782.168,2645.342 -334.282,-80.56 -701.12,-197.753 -1022.972,-311.687 -417.027,-149.226 -825.385,-319.679 -1222.77,-511.486 -755.53,-362.132 -1474.244,-806.613 -2141.848,-1310.683 -3804.497,-2886.698 -6174.083,-8389.84 -3692.29,-12875.06 z m -9846.104,2149.84 -2485.502,3508.47298 C 21400.541,3600.5364 21567.797,9467.0204 23941.833,14100.703 c 398.46,777.202 843.798,1527.616 1342.65,2245.743 456.425,653.295 969.919,1433.63 1574.418,1958.032 220.425,242.06 446.464,478.43 679.318,711.285 l 183.815,175.823 c 226.563,220.578 456.118,436.362 695.301,647.35 l 23.963,23.975 7.98,7.992 c 263.888,230.936 537.827,451.898 815.18,671.326 l 183.815,143.855 c 278.428,213.29 564.438,423.894 855.141,623.374 l 23.963,23.976 c 127.36,88.998 262.29,170.964 391.607,255.742 l 183.815,119.88 c 207.996,133.498 418.152,259.707 631.365,383.614 l 87.912,55.944 c 184.327,105.494 371.083,210.413 559.438,311.687 l 199.799,103.896 c 130.39,67.132 260.18,134.584 391.606,199.799 l 55.944,31.968 c 267.916,132.347 539.937,254.784 815.18,375.622 l 183.816,71.928 c 221.46,93.218 438.727,186.948 663.333,271.727 95.175,36.06 191.347,69.754 287.711,103.895 202.74,75.572 409.496,146.35 615.382,215.783 93.218,29.922 187.728,58.757 279.719,87.912 292.966,90.917 582.94,205.106 887.108,255.743 15718.91,2604.013 19348.593,-9494.42 19348.593,-9494.42 -3271.465,4712.32 -9608.149,6958.191 -16367.55,5202.772 -301.176,-78.641 -601.252,-162.525 -895.101,-255.743 l -263.735,-87.912 c -209.031,-67.9 -416.452,-141.362 -623.373,-215.783 -94.255,-35.293 -186.501,-67.836 -279.72,-103.896 -225.526,-85.93 -450.9,-177.741 -671.325,-271.727 l -183.815,-71.927 c -275.282,-121.99 -546.075,-250.117 -815.18,-383.615 -138.6,-67.132 -278.94,-138.357 -415.583,-207.79 l -231.767,-119.88 c -176.079,-95.52 -355.726,-195.196 -527.47,-295.703 l -119.88,-71.928 c -213.25,-125.442 -424.29,-250.884 -631.365,-383.614 l -191.807,-127.872 c -136.682,-88.998 -274.054,-180.427 -407.59,-271.727 -290.703,-199.863 -569.796,-412.002 -847.149,-623.373 l -191.807,-143.856 c -2959.97,-2335.06 -5308.88,-5530.633 -6425.542,-9150.8026 -1168.528,-3754.818 -914.64,-7967.86402 1110.883,-11388.554 z m -12267.67,4435.54198 -3284.7,4171.80702 c -4210.17,6050.3666 -3687.133,13925.0126 -471.527,20355.5416 76.57,153.062 160.044,304.398 239.76,455.542 50.675,97.438 92.143,193.726 143.855,287.711 l 95.903,167.831 c 54.819,102.425 111.939,196.347 167.832,295.703 101.427,176.846 207.113,352.542 311.686,527.47 58.003,96.287 108.909,191.424 167.832,287.711 117.002,187.204 238.57,374.152 359.638,559.438 l 151.848,231.767 c 168.713,250.497 343.552,496.972 519.478,743.253 l 7.992,23.976 87.911,119.88 c 153.177,211.37 312.211,417.755 471.528,623.373 l 175.823,223.775 c 142.781,179.148 292.557,357.465 439.558,535.462 l 159.84,199.799 c 198.712,232.854 401.503,460.593 607.389,687.31 l 15.984,15.983 23.963,23.976 c 200.784,219.427 407.386,432.909 615.382,647.35 l 191.807,199.799 c 162.46,162.268 329.895,320.318 495.502,479.518 l 199.812,191.832 c 221.652,207.92 442.5,415.902 671.325,615.382 l 15.984,7.992 111.888,103.895 c 200.822,173.778 408.421,341.929 615.381,511.486 l 247.751,199.8 c 167.678,134.648 338.706,269.17 511.486,399.598 l 271.727,207.804 c 189.429,139.636 382.886,282.084 575.422,415.582 l 207.79,143.856 55.945,39.96 c 183.252,125.058 373.193,246.408 559.437,367.63 l 239.76,159.84 c 286.636,181.065 577.122,362.451 871.124,535.461 l 239.759,135.864 c 216.358,124.29 427.999,248.71 647.35,367.63 118.997,64.447 247.597,121.67 367.63,183.815 155.249,81.71 305.293,159.968 463.534,239.76 l 111.888,55.943 183.815,87.912 c 245.168,117.002 493.75,232.79 743.253,343.655 l 159.84,71.927 c 284.564,125.442 572.275,244.938 863.132,359.639 l 207.79,79.92 c 270.027,103.575 542.01,208.174 815.182,303.694 l 103.895,39.96 c 301.214,104.343 605.689,200.567 911.084,295.703 l 215.784,63.936 c 310.497,94.369 615.125,204.658 935.06,263.735 20359.57,3713.388 26277.59,-12235.703 26277.59,-12235.703 -4965.505,6471.576 -13783.51,8182.113 -22137.75,6281.687 -316.636,-71.353 -626.52,-173.586 -935.061,-263.735 l -231.767,-71.928 c -301.214,-92.068 -597.953,-184.902 -895.1,-287.71 l -119.88,-47.953 c -265.96,-92.834 -530.462,-194.045 -791.205,-295.703 l -223.775,-87.911 c -287.71,-113.934 -573.567,-228.507 -855.14,-351.647 l -175.824,-71.927 c -242.176,-109.714 -479.211,-220.962 -719.277,-335.663 l -207.791,-103.896 c -187.319,-90.15 -367.12,-183.431 -551.446,-279.719 -125.097,-64.063 -252.444,-132.666 -375.622,-199.799 -225.68,-122.373 -449.865,-247.111 -671.326,-375.622 l -223.775,-119.88 c -295.038,-172.626 -584.487,-354.012 -871.124,-535.462 l -231.767,-159.839 c -207.996,-134.649 -418.37,-267.571 -623.374,-407.59 l -191.807,-143.856 c -199.748,-139.635 -398.831,-279.719 -591.406,-423.574 l -255.743,-191.807 c -177,-135.416 -352.58,-275.18 -527.47,-415.583 l -239.759,-191.807 c -222.534,-182.217 -438.062,-363.09 -655.34,-551.446 l -71.929,-55.943 c -233.928,-206.001 -467.664,-420.378 -695.3,-631.366 l -191.808,-191.807 c -167.678,-160.351 -332.044,-321.789 -495.502,-487.51 l -199.8,-191.807 c -207.074,-212.523 -408.715,-429.073 -607.389,-647.35 l -31.968,-31.968 c -210.067,-230.552 -413.523,-465.452 -615.381,-703.293 l -159.84,-191.807 c -151.22,-181.066 -301.584,-366.927 -447.55,-551.446 l -159.84,-199.799 c -176.078,-226.716 -353.909,-457.524 -519.477,-687.31 C 12622.84,16038.633 10956.022,7311.5324 14663.158,146.76538 Z" />
  <path
     style="fill:#1e2e3b"
     id="path4"
     d="m 114986.34,-11089.98 c -15247.15,0 -21872.236,10978.72638 -24399.488,22912.972 -2525.334,12020.942 784.3,22560.11 15943.978,22473.413 l 11963.98,-39.96 11172.77,-39.96 c 430.42,-3.452 873.3,-344.165 983.01,-759.236 l 1950.04,-7432.53 c 108.95,-416.99 -160.99,-757.32 -591.4,-759.237 l -1862.13,-7.992 -1870.12,-15.984 c -366.35,-1.918 -571.2,-236.882 -527.47,-551.446 l 47.95,-175.823 c 0,0 4218.99,-10252.736 5178.8,-16175.7426 C 134283.23,409.56738 130319.02,-11089.98 114986.34,-11089.98 Z m 157377.83,4387.5904 -2461.53,15.984 c -430.41,3.197 -1135.62,7.992 -1566.42,7.992 h -6513.47 c -430.39,0 -979.55,292.506 -1222.76,647.35 L 246190.46,15067.73 c -243.21,357.145 -519.08,307.403 -615.37,-111.888 l -1054.94,-4651.325 c -95.13,-421.2116 -528.62,-759.2366 -959.03,-759.2366 h -9262.69 c -431.57,0 -684.44,337.325 -567.43,751.2446 l 4147.83,14537.39 c 117.77,414.303 130.62,1093.496 23.97,1510.481 l -1814.17,7032.932 c -107.8,419.29 160.6,759.237 591.4,759.237 h 9150.82 c 429.62,0 876.33,-339.946 983,-759.237 l 1806.18,-7032.932 c 106.67,-416.985 403.64,-1038.892 663.35,-1382.61 l 23392.5,-31040.8026 c 259.71,-342.568 118.69,-625.295 -311.7,-623.374 z m -79480.12,4675.3 c -15071.83,0 -18639.64,9148.695 -20643.25,18381.5276 -2003.62,9410.83 -1833.68,18205.702 13762.16,18205.702 h 2477.51 c 617.24,-1.278 1241.76,-5.69 1870.12,-7.992 h 31.97 c 4119.25,-15.344 8244.32,-49.355 9918.03,-63.935 428.5,-6.138 847.22,-349.09 935.06,-767.23 l 631.37,-3084.899 127.87,-599.397 751.25,-3684.298 c 87.08,-421.208 -199.8,-767.229 -631.37,-767.229 h -14017.91 c -5576.22,0 -7234.91,-1477.814 -6625.34,-5834.136 h 22433.45 c 356,-6.138 684.75,-257.341 815.18,-583.414 l 55.95,-191.807 h -8 c 3328.24,-12552.2486 2372.6,-21002.8916 -11884.05,-21002.8916 z m -79160.44,295.704 c 8413.68,-241.68 10065.62,6015.104 7928.03,13202.7306 l -215.78,751.245 v 7.992 l -1686.31,5993.976 -1694.3,5993.976 c -117.77,413.92 -567.43,759.237 -998.99,759.237 h -8951.02 c -6794.57,0 -8456.072,-5316.001 -6801.16,-13154.78 1653.76,-8016.7726 4900.42,-13001.5866 11588.36,-13506.4236 285.59,-21.514 559.76,-40.155 831.17,-47.952 z m -34125.714,127.872 c -430.415,0 -863.9,348.318 -959.036,767.22898 l -807.189,3564.41702 -807.187,3564.418 c -95.904,418.907 176.974,767.229 607.388,767.229 h 8583.373 c 431.567,0 858.594,-347.171 951.045,-767.229 l 783.212,-3564.418 783.213,-3564.41702 c 92.068,-421.21198 -184.966,-767.22998 -615.381,-767.22998 z m 62137.554,95.903 c -430.8,0 -855.97,347.17 -943.05,767.22998 l -1710.28,8119.83902 -1718.27,8119.8386 v 7.992 l -159.84,759.237 c -1971.4,9001.13 -1445.21,17585.91 9270.68,17854.056 175.31,4.987 311.69,0 311.69,0 h 16815.1 c 430.41,0 852.9,-344.87 943.05,-767.229 l 3628.35,-17046.867 3628.36,-17046.86762 c 89,-421.20798 -192.58,-767.22998 -623.38,-767.22998 h -7752.21 c -430.41,0 -858.97,347.172 -951.04,767.22998 L 159725.37,11990.823 156968.14,24730.02 c -90.91,420.06 -513.4,767.229 -943.05,767.229 h -5490.48 c -5431.21,0 -4805.15,-3757.248 -3692.29,-8903.052 l 31.97,-151.848 119.88,-655.341 23.97,-119.88 247.75,-1318.674 263.74,-1414.579 c 80.94,-426.192 207.92,-1054.108 287.71,-1446.546 l 1254.74,-6113.8546 1246.75,-6113.85602 c 85.93,-421.20798 -192.96,-767.22998 -623.38,-767.22998 z m 73438.2,87.912 c -430.42,0 -862.05,346.02 -951.05,767.22898 l -311.68,1494.498 -375.63,1774.21702 -103.89,495.502 -3228.76,15120.8026 -3068.91,14361.566 c -90.92,421.209 -116.49,939.856 -63.94,1150.844 52.17,210.22 871.89,375.622 1302.69,375.622 h 6473.5 c 431.56,0 972.01,-72.695 1206.78,-167.831 235.16,-95.137 585.01,-944.267 671.33,-1366.627 l 1150.84,-5682.289 1150.84,-5690.281 v -7.992 l 151.85,-759.237 1398.6,-6537.43 1230.76,-5770.1996 c 90.92,-419.291 513.79,-758.47 943.05,-759.237 l 20355.54,-7.992 c 429.27,-1.918 697.99,-346.788 599.4,-767.23 l -351.64,-1470.521 -351.65,-1502.49 -183.82,-767.23 c -697.41,-2709.49402 -2740.99,-4267.736 -7184.78,-4267.736 l -6921.04,-7.992 -6369.6,-7.992 h -7168.79 z m -24287.59,7928.032 c 4833.15,0 5770.52,2356.349 5442.53,5010.9636 -57.69,462.386 -482.76,807.189 -911.09,807.189 h -11740.2 c -405.86,0 -619.66,-275.883 -559.44,-615.382 l 8,-23.976 7.99,-39.96 c 0,0 16.88,-82.793 47.95,-199.799 1121.69,-2981.8346 3411.23,-4939.0356 7704.26,-4939.0356 z M 77056.452,9489.3374 c -430.416,0 -857.06,346.788 -951.045,767.2296 l -1206.787,5338.634 -1206.787,5338.634 c -95.52,420.442 -246.664,1112.095 -335.663,1534.458 l -1158.835,5450.522 -1158.835,5450.522 c -90.15,420.442 -276.714,1102.7 -415.583,1510.482 0,0 -1603.636,4768.967 -4299.678,4715.261 -113.934,-3.452 -224.031,2.238 -335.663,0 -1304.29,-24.551 -2333.655,-47.952 -2333.655,-47.952 -430.415,-6.138 -859.68,333.105 -959.036,751.245 l -895.1,3740.241 -887.109,3740.241 c -99.356,417.756 171.284,767.165 599.398,775.221 1526.786,17.646 4950.736,55.944 7024.94,55.944 6733.2,0 10286.62,-3736.853 12563.372,-14473.454 l 2661.325,-12323.614 2501.486,-11556.386 c 92.068,-420.4406 -192.574,-767.2286 -623.373,-767.2286 z" />
</svg>
