<?xml version="1.0" encoding="UTF-8" standalone="no"?>
<svg
   xmlns:dc="http://purl.org/dc/elements/1.1/"
   xmlns:cc="http://creativecommons.org/ns#"
   xmlns:rdf="http://www.w3.org/1999/02/22-rdf-syntax-ns#"
   xmlns:svg="http://www.w3.org/2000/svg"
   xmlns="http://www.w3.org/2000/svg"
   width="198.65656"
   height="70.000221"
   version="1.1"
   id="svg13">
  <metadata
     id="metadata19">
    <rdf:RDF>
      <cc:Work
         rdf:about="">
        <dc:format>image/svg+xml</dc:format>
        <dc:type
           rdf:resource="http://purl.org/dc/dcmitype/StillImage" />
        <dc:title></dc:title>
      </cc:Work>
    </rdf:RDF>
  </metadata>
  <defs
     id="defs17" />
  <radialGradient
     id="a"
     cy="0.82800001"
     r="38.363998"
     gradientTransform="scale(0.99945,1.00055)"
     cx="19.992001"
     fx="19.992001"
     fy="0.82800001"
     gradientUnits="userSpaceOnUse">
    <stop
       offset="0"
       stop-color="#20c6b7"
       id="stop2" />
    <stop
       offset="1"
       stop-color="#4d9abf"
       id="stop4" />
  </radialGradient>
  <g
     id="g11"
     style="fill:none;fill-rule:evenodd"
     transform="translate(5.0005612,2.2208659e-4)">
    <path
       d="m 68.519,25.635 0.158,2.83 c 1.805,-2.189 4.176,-3.283 7.11,-3.283 5.085,0 7.673,2.92 7.763,8.756 V 50.112 H 78.068 V 34.255 c 0,-1.553 -0.335,-2.703 -1.004,-3.45 -0.67,-0.747 -1.765,-1.12 -3.284,-1.12 -2.213,0 -3.861,1.004 -4.942,3.01 V 50.112 H 63.353 V 25.635 h 5.168 z m 31.372,24.93 c -3.474,0 -6.293,-1.096 -8.45,-3.29 -2.16,-2.194 -3.24,-5.117 -3.24,-8.767 V 37.83 c 0,-2.443 0.47,-4.627 1.41,-6.55 0.94,-1.922 2.262,-3.419 3.962,-4.49 1.7,-1.07 3.595,-1.605 5.688,-1.605 3.324,0 5.894,1.063 7.706,3.19 1.815,2.126 2.72,5.133 2.72,9.025 v 2.218 H 93.73 c 0.167,2.02 0.839,3.618 2.02,4.795 1.18,1.176 2.668,1.764 4.458,1.764 2.512,0 4.558,-1.017 6.139,-3.054 l 2.956,2.83 c -0.978,1.461 -2.283,2.596 -3.915,3.403 -1.633,0.807 -3.464,1.21 -5.495,1.21 z M 99.238,29.596 c -1.506,0 -2.72,0.528 -3.645,1.583 -0.927,1.055 -1.516,2.526 -1.772,4.412 h 10.45 v -0.408 c -0.121,-1.84 -0.61,-3.23 -1.467,-4.174 -0.86,-0.942 -2.046,-1.413 -3.566,-1.413 z m 21.575,-9.91 v 5.95 h 4.31 v 4.072 h -4.31 v 13.664 c 0,0.934 0.185,1.608 0.553,2.024 0.369,0.414 1.027,0.621 1.976,0.621 a 8.43,8.43 0 0 0 1.917,-0.226 v 4.253 c -1.248,0.348 -2.451,0.52 -3.61,0.52 -4.213,0 -6.32,-2.33 -6.32,-6.99 V 29.708 h -4.02 v -4.072 h 4.018 v -5.95 h 5.484 z m 14.333,30.428 h -5.485 V 15.367 h 5.485 z m 11.803,0 h -5.484 V 25.636 h 5.484 z m -5.823,-30.835 c 0,-0.843 0.266,-1.544 0.8,-2.103 0.536,-0.557 1.299,-0.836 2.29,-0.836 0.995,0 1.76,0.28 2.305,0.836 0.54,0.56 0.81,1.26 0.81,2.104 0,0.83 -0.27,1.52 -0.81,2.07 -0.543,0.55 -1.31,0.826 -2.304,0.826 -0.992,0 -1.755,-0.276 -2.29,-0.826 -0.535,-0.55 -0.8,-1.24 -0.8,-2.07 z m 13.723,30.835 V 29.707 h -3.725 v -4.072 h 3.725 v -2.24 c 0,-2.715 0.75,-4.81 2.256,-6.288 1.505,-1.478 3.61,-2.217 6.318,-2.217 0.964,0 1.987,0.136 3.07,0.407 l -0.134,4.298 a 10.778,10.778 0 0 0 -2.1,-0.18 c -2.618,0 -3.927,1.35 -3.927,4.05 v 2.17 h 4.965 v 4.072 h -4.965 v 20.405 h -5.483 z m 22.997,-7.872 4.965,-16.606 h 5.845 l -9.703,28.188 c -1.49,4.117 -4.018,6.176 -7.584,6.176 -0.798,0 -1.678,-0.136 -2.64,-0.408 V 55.34 l 1.038,0.068 c 1.383,0 2.426,-0.252 3.126,-0.758 0.699,-0.505 1.252,-1.353 1.659,-2.544 l 0.788,-2.104 -8.576,-24.365 h 5.914 z"
       id="path7"
       style="fill:#0e1e25" />
    <path
       d="m 28.589,14.135 -0.014,-0.006 c -0.008,-0.003 -0.016,-0.006 -0.023,-0.013 a 0.11,0.11 0 0 1 -0.028,-0.093 l 0.773,-4.726 3.625,3.626 -3.77,1.604 a 0.083,0.083 0 0 1 -0.033,0.006 h -0.015 a 0.104,0.104 0 0 1 -0.02,-0.017 1.716,1.716 0 0 0 -0.495,-0.381 z m 5.258,-0.288 3.876,3.876 c 0.805,0.806 1.208,1.208 1.355,1.674 0.022,0.069 0.04,0.138 0.054,0.209 l -9.263,-3.923 a 0.728,0.728 0 0 0 -0.015,-0.006 c -0.037,-0.015 -0.08,-0.032 -0.08,-0.07 0,-0.038 0.044,-0.056 0.081,-0.071 l 0.012,-0.005 z m 5.127,7.003 c -0.2,0.376 -0.59,0.766 -1.25,1.427 l -4.37,4.369 -5.652,-1.177 -0.03,-0.006 c -0.05,-0.008 -0.103,-0.017 -0.103,-0.062 a 1.706,1.706 0 0 0 -0.655,-1.193 c -0.023,-0.023 -0.017,-0.059 -0.01,-0.092 0,-0.005 0,-0.01 0.002,-0.014 l 1.063,-6.526 0.004,-0.022 c 0.006,-0.05 0.015,-0.108 0.06,-0.108 a 1.73,1.73 0 0 0 1.16,-0.665 c 0.009,-0.01 0.015,-0.021 0.027,-0.027 0.032,-0.015 0.07,0 0.103,0.014 l 9.65,4.082 z m -6.625,6.801 -7.186,7.186 1.23,-7.56 0.002,-0.01 a 0.136,0.136 0 0 1 0.006,-0.029 c 0.01,-0.024 0.036,-0.034 0.061,-0.044 l 0.012,-0.005 a 1.85,1.85 0 0 0 0.695,-0.517 c 0.024,-0.028 0.053,-0.055 0.09,-0.06 a 0.09,0.09 0 0 1 0.029,0 l 5.06,1.04 z m -8.707,8.707 -0.81,0.81 -8.955,-12.942 a 0.424,0.424 0 0 0 -0.01,-0.014 c -0.014,-0.019 -0.029,-0.038 -0.026,-0.06 0,-0.016 0.011,-0.03 0.022,-0.042 l 0.01,-0.013 c 0.027,-0.04 0.05,-0.08 0.075,-0.123 l 0.02,-0.035 0.003,-0.003 c 0.014,-0.024 0.027,-0.047 0.051,-0.06 0.021,-0.01 0.05,-0.006 0.073,-0.001 l 9.921,2.046 a 0.164,0.164 0 0 1 0.076,0.033 c 0.013,0.013 0.016,0.027 0.019,0.043 a 1.757,1.757 0 0 0 1.028,1.175 c 0.028,0.014 0.016,0.045 0.003,0.078 a 0.238,0.238 0 0 0 -0.015,0.045 c -0.125,0.76 -1.197,7.298 -1.485,9.063 z m -1.692,1.691 c -0.597,0.591 -0.949,0.904 -1.347,1.03 a 2,2 0 0 1 -1.206,0 c -0.466,-0.148 -0.869,-0.55 -1.674,-1.356 L 8.73,28.73 11.079,25.087 a 0.15,0.15 0 0 1 0.04,-0.047 c 0.025,-0.018 0.061,-0.01 0.091,0 a 2.434,2.434 0 0 0 1.638,-0.083 c 0.027,-0.01 0.054,-0.017 0.075,0.002 a 0.19,0.19 0 0 1 0.028,0.032 L 21.95,38.05 Z M 7.863,27.863 5.8,25.8 9.874,24.062 a 0.084,0.084 0 0 1 0.033,-0.007 c 0.034,0 0.054,0.034 0.072,0.065 a 2.91,2.91 0 0 0 0.13,0.184 l 0.013,0.016 c 0.012,0.017 0.004,0.034 -0.008,0.05 l -2.25,3.493 z M 4.887,24.887 2.277,22.277 C 1.833,21.833 1.511,21.511 1.287,21.234 l 7.936,1.646 a 0.84,0.84 0 0 0 0.03,0.005 c 0.049,0.008 0.103,0.017 0.103,0.063 0,0.05 -0.059,0.073 -0.109,0.092 L 9.224,23.05 Z M 0.831,19.892 a 2,2 0 0 1 0.09,-0.495 c 0.148,-0.466 0.55,-0.868 1.356,-1.674 l 3.34,-3.34 a 2175.525,2175.525 0 0 0 4.626,6.687 c 0.027,0.036 0.057,0.076 0.026,0.106 a 2.776,2.776 0 0 0 -0.395,0.528 0.16,0.16 0 0 1 -0.05,0.062 C 9.811,21.774 9.797,21.771 9.782,21.768 H 9.78 L 0.831,19.891 Z M 6.511,13.489 11,8.998 c 0.423,0.185 1.96,0.834 3.333,1.414 1.04,0.44 1.988,0.84 2.286,0.97 0.03,0.012 0.057,0.024 0.07,0.054 0.008,0.018 0.004,0.041 0,0.06 a 2.003,2.003 0 0 0 0.523,1.828 c 0.03,0.03 0,0.073 -0.026,0.11 l -0.014,0.021 -4.56,7.063 a 0.138,0.138 0 0 1 -0.043,0.05 c -0.024,0.015 -0.058,0.008 -0.086,10e-4 A 2.274,2.274 0 0 0 11.94,20.495 c -0.164,0 -0.342,0.03 -0.522,0.063 h -10e-4 c -0.02,0.003 -0.038,0.007 -0.054,-0.005 A 0.21,0.21 0 0 1 11.318,20.502 L 6.51,13.489 Z m 5.398,-5.398 5.814,-5.814 c 0.805,-0.805 1.208,-1.208 1.674,-1.355 a 2,2 0 0 1 1.206,0 c 0.466,0.147 0.869,0.55 1.674,1.355 l 1.26,1.26 -4.135,6.404 a 0.155,0.155 0 0 1 -0.041,0.048 c -0.025,0.017 -0.06,0.01 -0.09,0 a 2.097,2.097 0 0 0 -1.92,0.37 c -0.027,0.028 -0.067,0.012 -0.101,-0.003 -0.54,-0.235 -4.74,-2.01 -5.341,-2.265 z m 12.506,-3.676 3.818,3.818 -0.92,5.698 v 0.015 a 0.135,0.135 0 0 1 -0.008,0.038 c -0.01,0.02 -0.03,0.024 -0.05,0.03 a 1.83,1.83 0 0 0 -0.548,0.273 0.154,0.154 0 0 0 -0.02,0.017 c -0.011,0.012 -0.022,0.023 -0.04,0.025 A 0.114,0.114 0 0 1 26.604,14.322 L 20.786,11.85 20.775,11.845 C 20.738,11.83 20.694,11.812 20.694,11.774 a 2.198,2.198 0 0 0 -0.31,-0.915 c -0.028,-0.046 -0.059,-0.094 -0.035,-0.141 z m -3.932,8.606 5.454,2.31 c 0.03,0.014 0.063,0.027 0.076,0.058 a 0.106,0.106 0 0 1 0,0.057 c -0.016,0.08 -0.03,0.171 -0.03,0.263 v 0.153 c 0,0.038 -0.039,0.054 -0.075,0.069 l -0.011,0.004 c -0.864,0.369 -12.13,5.173 -12.147,5.173 -0.017,0 -0.035,0 -0.052,-0.017 -0.03,-0.03 0,-0.072 0.027,-0.11 a 0.76,0.76 0 0 0 0.014,-0.02 l 4.482,-6.94 0.008,-0.012 c 0.026,-0.042 0.056,-0.089 0.104,-0.089 l 0.045,0.007 c 0.102,0.014 0.192,0.027 0.283,0.027 0.68,0 1.31,-0.331 1.69,-0.897 a 0.16,0.16 0 0 1 0.034,-0.04 c 0.027,-0.02 0.067,-0.01 0.098,0.004 z m -6.246,9.185 12.28,-5.237 c 0,0 0.018,0 0.035,0.017 0.067,0.067 0.124,0.112 0.179,0.154 l 0.027,0.017 c 0.025,0.014 0.05,0.03 0.052,0.056 0,0.01 0,0.016 -0.002,0.025 l -1.052,6.462 -0.004,0.026 c -0.007,0.05 -0.014,0.107 -0.061,0.107 a 1.729,1.729 0 0 0 -1.373,0.847 l -0.005,0.008 c -0.014,0.023 -0.027,0.045 -0.05,0.057 -0.021,0.01 -0.048,0.006 -0.07,10e-4 L 14.4,22.726 c -0.01,-0.002 -0.152,-0.519 -0.163,-0.52 z"
       transform="matrix(1.28693,0,0,1.28693,-1.07,8.933)"
       id="path9"
       style="fill:url(#a);fill-rule:nonzero" />
  </g>
</svg>
