<?xml version="1.0" encoding="UTF-8" standalone="no"?>
<svg
   xmlns:dc="http://purl.org/dc/elements/1.1/"
   xmlns:cc="http://creativecommons.org/ns#"
   xmlns:rdf="http://www.w3.org/1999/02/22-rdf-syntax-ns#"
   xmlns:svg="http://www.w3.org/2000/svg"
   xmlns="http://www.w3.org/2000/svg"
   id="svg104"
   version="1.1"
   width="128.298"
   height="70.000038">
  <metadata
     id="metadata108">
    <rdf:RDF>
      <cc:Work
         rdf:about="">
        <dc:format>image/svg+xml</dc:format>
        <dc:type
           rdf:resource="http://purl.org/dc/dcmitype/StillImage" />
        <dc:title></dc:title>
      </cc:Work>
    </rdf:RDF>
  </metadata>
  <defs
     id="defs70">
    <clipPath
       id="g">
      <path
         id="path2"
         d="m 239.032,373.393 -42.134,-24.315 a 5.087,5.087 0 0 1 -2.545,-4.407 v -48.666 c 0,-1.818 0.97,-3.497 2.544,-4.408 l 42.133,-24.334 a 5.093,5.093 0 0 1 5.091,0 l 42.124,24.334 a 5.093,5.093 0 0 1 2.543,4.408 v 48.668 a 5.084,5.084 0 0 1 -2.545,4.405 l -42.123,24.315 a 5.09,5.09 0 0 1 -5.088,0" />
    </clipPath>
    <clipPath
       id="h">
      <path
         id="path5"
         d="M 237.627,382.331 237.047,382 h 0.774 z" />
    </clipPath>
    <linearGradient
       x2="1"
       gradientUnits="userSpaceOnUse"
       gradientTransform="matrix(97.417,0,0,-97.417,192.862,382.166)"
       id="i">
      <stop
         id="stop8"
         offset="0"
         stop-color="#9bb48f" />
      <stop
         id="stop10"
         offset=".092"
         stop-color="#9bb48f" />
      <stop
         id="stop12"
         offset=".303"
         stop-color="#9bb48f" />
      <stop
         id="stop14"
         offset=".862"
         stop-color="#687e67" />
      <stop
         id="stop16"
         offset="1"
         stop-color="#687e67" />
    </linearGradient>
    <clipPath
       id="j">
      <path
         id="path19"
         d="m 239.032,373.393 -42.134,-24.315 a 5.087,5.087 0 0 1 -2.545,-4.407 v -48.666 c 0,-1.818 0.97,-3.497 2.544,-4.408 l 42.133,-24.334 a 5.093,5.093 0 0 1 5.091,0 l 42.124,24.334 a 5.093,5.093 0 0 1 2.543,4.408 v 48.668 a 5.084,5.084 0 0 1 -2.545,4.405 l -42.123,24.315 a 5.09,5.09 0 0 1 -5.088,0" />
    </clipPath>
    <clipPath
       id="k">
      <path
         id="path22"
         d="M 290.279,292.38 290,292.857 v -0.639 z" />
    </clipPath>
    <linearGradient
       x2="1"
       gradientUnits="userSpaceOnUse"
       gradientTransform="matrix(97.417,0,0,-97.417,192.862,292.538)"
       id="l">
      <stop
         id="stop25"
         offset="0"
         stop-color="#9bb48f" />
      <stop
         id="stop27"
         offset=".092"
         stop-color="#9bb48f" />
      <stop
         id="stop29"
         offset=".303"
         stop-color="#9bb48f" />
      <stop
         id="stop31"
         offset=".862"
         stop-color="#687e67" />
      <stop
         id="stop33"
         offset="1"
         stop-color="#687e67" />
    </linearGradient>
    <clipPath
       id="a">
      <path
         id="path36"
         d="m 239.03,226.605 -42.13,24.317 a 5.085,5.085 0 0 0 -2.546,4.406 v 48.668 c 0,1.817 0.968,3.496 2.546,4.406 l 42.133,24.336 a 5.1,5.1 0 0 0 5.09,0 l 42.126,-24.336 a 5.096,5.096 0 0 0 2.54,-4.406 v -48.668 c 0,-1.816 -0.97,-3.496 -2.55,-4.406 l -42.12,-24.317 a 5.123,5.123 0 0 0 -5.1,0" />
    </clipPath>
    <linearGradient
       gradientUnits="userSpaceOnUse"
       gradientTransform="matrix(-38.064915,77.652126,-77.652126,-38.064915,258.72325,244.62943)"
       x2="1.251"
       x1="-0.34799999"
       id="b">
      <stop
         id="stop39"
         stop-color="#3E863D"
         offset=".3" />
      <stop
         id="stop41"
         stop-color="#55934F"
         offset=".5" />
      <stop
         id="stop43"
         stop-color="#5AAD45"
         offset=".8" />
    </linearGradient>
    <clipPath
       id="c">
      <path
         id="path46"
         d="m 195.398,307.086 c 0.403,0.523 0.907,0.976 1.5,1.316 l 36.14,20.875 6.02,3.46 c 0.9,0.52 1.926,0.74 2.934,0.665 0.336,-0.027 0.672,-0.09 1,-0.183 l 44.434,-81.36 c -0.34,-0.37 -0.738,-0.68 -1.184,-0.94 l -27.586,-15.93 -14.582,-8.39 a 5.318,5.318 0 0 0 -1.32,-0.53 z m 0,0" />
    </clipPath>
    <linearGradient
       gradientUnits="userSpaceOnUse"
       gradientTransform="matrix(106.8057,-78.916731,78.916731,106.8057,235.18765,285.39503)"
       x2="0.58200002"
       x1="-0.456"
       id="d">
      <stop
         id="stop49"
         stop-color="#3E863D"
         offset=".57" />
      <stop
         id="stop51"
         stop-color="#619857"
         offset=".72" />
      <stop
         id="stop53"
         stop-color="#76AC64"
         offset="1" />
    </linearGradient>
    <clipPath
       id="e">
      <path
         id="path56"
         d="m 241.066,225.953 a 5.14,5.14 0 0 0 -2.035,0.652 l -42.01,24.247 45.3,82.51 c 0.63,-0.09 1.25,-0.3 1.81,-0.624 l 42.13,-24.336 a 5.105,5.105 0 0 0 2.46,-3.476 l -46.18,-78.89 a 5.29,5.29 0 0 0 -1.03,-0.102 c -0.14,0 -0.28,0.007 -0.42,0.02" />
    </clipPath>
    <linearGradient
       gradientUnits="userSpaceOnUse"
       gradientTransform="matrix(97.417,0,0,97.417,192.862,279.652)"
       x2="0.98400003"
       x1="0.043000001"
       id="f">
      <stop
         id="stop59"
         stop-color="#6BBF47"
         offset=".16" />
      <stop
         id="stop61"
         stop-color="#79B461"
         offset=".38" />
      <stop
         id="stop63"
         stop-color="#75AC64"
         offset=".47" />
      <stop
         id="stop65"
         stop-color="#659E5A"
         offset=".7" />
      <stop
         id="stop67"
         stop-color="#3E863D"
         offset=".9" />
    </linearGradient>
  </defs>
  <g
     id="g74"
     clip-path="url(#a)"
     transform="matrix(0.25837,0,0,0.25837,-13.233,-42.379966)">
    <path
       style="fill:url(#b)"
       id="path72"
       d="m 331.363,246.793 -118.715,-58.19 -60.87,124.174 118.712,58.193 z m 0,0" />
  </g>
  <g
     id="g78"
     clip-path="url(#c)"
     transform="matrix(0.25837,0,0,0.25837,-13.233,-42.379966)">
    <path
       style="fill:url(#d)"
       id="path76"
       d="m 144.07,264.004 83.825,113.453 110.86,-81.906 -83.83,-113.45 z m 0,0" />
  </g>
  <g
     id="g82"
     clip-path="url(#e)"
     transform="matrix(0.25837,0,0,0.25837,-13.233,-42.379966)">
    <path
       style="fill:url(#f)"
       id="path80"
       d="m 197.02,225.934 v 107.43 h 91.683 v -107.43 z m 0,0" />
  </g>
  <path
     style="fill:#689f63"
     id="path84"
     d="m 63.494,70.000034 a 2.16,2.16 0 0 1 -1.084,-0.29 l -3.445,-2.038 c -0.516,-0.289 -0.264,-0.39 -0.094,-0.45 0.686,-0.238 0.826,-0.294 1.558,-0.708 0.077,-0.043 0.178,-0.028 0.256,0.02 l 2.648,1.57 a 0.34,0.34 0 0 0 0.32,0 l 10.321,-5.957 a 0.325,0.325 0 0 0 0.159,-0.28 v -11.911 a 0.333,0.333 0 0 0 -0.161,-0.284 l -10.319,-5.953 a 0.322,0.322 0 0 0 -0.316,0 l -10.315,5.954 a 0.332,0.332 0 0 0 -0.164,0.283 v 11.911 c 0,0.115 0.063,0.223 0.162,0.277 l 2.828,1.633 c 1.535,0.767 2.474,-0.136 2.474,-1.043 v -11.76 c 0,-0.168 0.133,-0.299 0.3,-0.299 h 1.309 c 0.164,0 0.298,0.13 0.298,0.297 v 11.76 c 0,2.049 -1.115,3.223 -3.056,3.223 -0.597,0 -1.066,0 -2.378,-0.646 l -2.705,-1.559 a 2.18,2.18 0 0 1 -1.083,-1.883 v -11.911 c 0,-0.774 0.414,-1.497 1.083,-1.882 l 10.32,-5.964 a 2.262,2.262 0 0 1 2.17,0 l 10.321,5.964 a 2.178,2.178 0 0 1 1.085,1.882 v 11.911 a 2.184,2.184 0 0 1 -1.085,1.883 l -10.32,5.96 a 2.164,2.164 0 0 1 -1.087,0.29" />
  <path
     style="fill:#689f63"
     id="path86"
     d="m 66.683,61.793034 c -4.518,0 -5.464,-2.072 -5.464,-3.812 0,-0.165 0.133,-0.297 0.298,-0.297 h 1.334 c 0.15,0 0.273,0.106 0.297,0.252 0.202,1.358 0.802,2.044 3.534,2.044 2.174,0 3.1,-0.491 3.1,-1.645 0,-0.665 -0.263,-1.16 -3.64,-1.49 -2.826,-0.28 -4.573,-0.903 -4.573,-3.164 0,-2.082 1.755,-3.323 4.698,-3.323 3.307,0 4.944,1.148 5.152,3.61 a 0.302,0.302 0 0 1 -0.08,0.23 0.304,0.304 0 0 1 -0.218,0.095 h -1.34 a 0.296,0.296 0 0 1 -0.29,-0.234 c -0.322,-1.43 -1.103,-1.886 -3.224,-1.886 -2.373,0 -2.65,0.827 -2.65,1.447 0,0.752 0.326,0.969 3.532,1.394 3.171,0.419 4.68,1.012 4.68,3.243 0,2.248 -1.877,3.536 -5.147,3.536 m 12.569,-12.63 h 0.346 c 0.284,0 0.337,-0.2 0.337,-0.315 0,-0.306 -0.21,-0.306 -0.326,-0.306 h -0.357 z m -0.423,-0.98 h 0.77 c 0.263,0 0.779,0 0.779,0.591 0,0.41 -0.264,0.494 -0.422,0.546 0.305,0.023 0.326,0.223 0.368,0.507 0.021,0.178 0.054,0.484 0.117,0.588 h -0.474 c -0.01,-0.104 -0.084,-0.672 -0.084,-0.704 -0.032,-0.126 -0.074,-0.19 -0.232,-0.19 h -0.39 v 0.895 h -0.432 z m -0.92,1.112 a 1.67,1.67 0 0 0 1.664,1.674 c 0.925,0 1.673,-0.764 1.673,-1.674 a 1.669,1.669 0 0 0 -3.337,0 m 3.657,0.006 a 1.994,1.994 0 0 1 -1.988,1.988 1.995,1.995 0 0 1 -1.99,-1.988 1.99,1.99 0 1 1 3.978,0" />
  <path
     style="fill:#333333;fill-rule:evenodd"
     id="path88"
     d="m 31.528,23.395034 a 1.32,1.32 0 0 0 -0.659,-1.148 l -10.944,-6.3 a 1.287,1.287 0 0 0 -0.602,-0.173 h -0.115 a 1.305,1.305 0 0 0 -0.605,0.174 l -10.94,6.299 A 1.326,1.326 0 0 0 7,23.395034 l 0.024,16.958 a 0.65,0.65 0 0 0 0.33,0.571 0.636,0.636 0 0 0 0.657,0 l 6.503,-3.724 a 1.331,1.331 0 0 0 0.662,-1.148 v -7.921 a 1.316,1.316 0 0 1 0.66,-1.145 l 2.769,-1.595 a 1.316,1.316 0 0 1 1.32,0 l 2.768,1.596 c 0.41,0.234 0.662,0.672 0.662,1.144 v 7.923 c 0,0.47 0.252,0.904 0.662,1.146 l 6.502,3.724 a 0.66,0.66 0 1 0 0.988,-0.57 z m 51.642,8.83 a 0.329,0.329 0 0 1 -0.165,0.285 l -3.76,2.167 a 0.332,0.332 0 0 1 -0.329,0 l -3.759,-2.167 a 0.329,0.329 0 0 1 -0.165,-0.285 v -4.34 a 0.33,0.33 0 0 1 0.165,-0.286 l 3.758,-2.172 a 0.33,0.33 0 0 1 0.332,0 l 3.758,2.17 c 0.102,0.06 0.165,0.168 0.165,0.287 z M 84.186,0.08303443 a 0.662,0.662 0 0 0 -0.983,0.577 V 17.454034 a 0.463,0.463 0 0 1 -0.694,0.4 l -2.741,-1.579 a 1.322,1.322 0 0 0 -1.32,0 l -10.949,6.319 a 1.322,1.322 0 0 0 -0.66,1.145 v 12.638 c 0,0.473 0.251,0.91 0.66,1.145 l 10.948,6.324 a 1.323,1.323 0 0 0 1.322,0 l 10.948,-6.324 a 1.323,1.323 0 0 0 0.662,-1.145 V 4.8720344 a 1.322,1.322 0 0 0 -0.679,-1.155 z M 120.64,27.770034 c 0.407,-0.237 0.658,-0.672 0.658,-1.142 v -3.064 a 1.322,1.322 0 0 0 -0.658,-1.143 l -10.878,-6.315 a 1.322,1.322 0 0 0 -1.325,-0.002 l -10.944,6.318 a 1.322,1.322 0 0 0 -0.66,1.144 v 12.636 c 0,0.476 0.256,0.913 0.667,1.148 l 10.877,6.197 a 1.32,1.32 0 0 0 1.295,0.008 l 6.58,-3.657 a 0.66,0.66 0 0 0 0.007,-1.15 l -11.012,-6.321 a 0.66,0.66 0 0 1 -0.334,-0.574 v -3.96 c 0,-0.236 0.126,-0.455 0.332,-0.574 l 3.428,-1.974 a 0.66,0.66 0 0 1 0.659,0 l 3.43,1.974 c 0.204,0.12 0.33,0.338 0.33,0.574 v 3.115 a 0.66,0.66 0 0 0 0.994,0.573 z" />
  <path
     style="fill:#689f63;fill-rule:evenodd"
     id="path90"
     d="m 108.939,27.179034 a 0.252,0.252 0 0 1 0.253,0 l 2.1,1.212 a 0.25,0.25 0 0 1 0.127,0.22 v 2.425 a 0.253,0.253 0 0 1 -0.126,0.221 l -2.1,1.211 a 0.252,0.252 0 0 1 -0.254,0 l -2.1,-1.21 a 0.253,0.253 0 0 1 -0.126,-0.222 v -2.426 c 0,-0.09 0.049,-0.175 0.126,-0.22 z" />
  <g
     id="g96"
     transform="matrix(1.8667,0,0,-1.8667,-139.174,378.10903)"
     clip-path="url(#g)">
    <g
       id="g94"
       clip-path="url(#h)">
      <path
         style="fill:url(#i)"
         id="path92"
         d="M 237.627,382.331 237.047,382 h 0.774 z" />
    </g>
  </g>
  <g
     id="g102"
     transform="matrix(1.8667,0,0,-1.8667,-139.174,378.10903)"
     clip-path="url(#j)">
    <g
       id="g100"
       clip-path="url(#k)">
      <path
         style="fill:url(#l)"
         id="path98"
         d="M 290.279,292.38 290,292.857 v -0.639 z" />
    </g>
  </g>
</svg>
