<?xml version="1.0" encoding="UTF-8" standalone="no"?>
<svg
   xmlns:dc="http://purl.org/dc/elements/1.1/"
   xmlns:cc="http://creativecommons.org/ns#"
   xmlns:rdf="http://www.w3.org/1999/02/22-rdf-syntax-ns#"
   xmlns:svg="http://www.w3.org/2000/svg"
   xmlns="http://www.w3.org/2000/svg"
   width="244.851"
   height="70"
   version="1.1"
   id="svg6">
  <metadata
     id="metadata12">
    <rdf:RDF>
      <cc:Work
         rdf:about="">
        <dc:format>image/svg+xml</dc:format>
        <dc:type
           rdf:resource="http://purl.org/dc/dcmitype/StillImage" />
        <dc:title></dc:title>
      </cc:Work>
    </rdf:RDF>
  </metadata>
  <defs
     id="defs10" />
  <g
     transform="translate(3,3e-6)"
     id="g260">
    <path
       id="path831"
       d="m 37.421875,25.505859 c -3.862,0 -6.997609,0.23161 -9.349609,0.72461 l -0.05859,0.667969 c 1.248,1.364999 1.886719,2.43925 1.886719,3.28125 0,0.784 -0.465235,2.991093 -1.365235,6.621093 -0.9,3.572 -1.363281,6.126422 -1.363281,7.607422 l 0.0293,0.05859 c 0,1.481 0.405156,2.583484 1.160156,3.396484 0.784,0.784 1.801485,1.189453 3.021484,1.189453 2.294,0 4.848063,-1.161078 7.664063,-3.455078 a 3.644,3.644 0 0 0 1.306641,2.439453 c 0.813,0.609 1.771,0.929688 2.875,0.929688 2.323,0 5.023859,-1.277328 8.130859,-3.861328 l -0.988281,-1.65625 c -1.772,0.843 -2.757938,1.248047 -2.960938,1.248047 -0.349,0 -0.523437,-0.376453 -0.523437,-1.189454 0,-0.814 0.466125,-3.600984 1.453125,-8.333984 0.958,-4.791 1.451172,-7.985328 1.451172,-9.611328 h -0.986328 c -3.165,0 -5.344454,0.233563 -6.564454,0.726562 0,2.381 -0.637718,6.358594 -1.886718,11.933594 -0.552,2.351 -0.899922,3.949016 -1.044922,4.791016 -1.307,0.726 -2.467375,1.103516 -3.484375,1.103516 -0.696,0 -1.044922,-0.493829 -1.044922,-1.423829 0,-0.929 0.464172,-3.338218 1.451172,-7.199218 0.958,-3.833 1.451172,-6.358828 1.451172,-7.548829 0,-1.162 -0.08577,-1.974453 -0.259766,-2.439453 z" />
    <path
       id="path829"
       d="m 69.216797,25.214844 c -1.771,0 -4.009688,1.10325 -6.679688,3.28125 -0.088,-1.336 -0.347609,-2.352125 -0.724609,-3.078125 -4.123,0 -7.028297,0.260203 -8.654297,0.783203 l -0.05664,0.667969 0.462891,0.582031 c 0.348,0.406 0.668281,1.016484 0.988281,1.771484 0.319,0.726 0.464844,1.422844 0.464844,2.089844 0,3.398 -0.669203,8.187984 -2.033203,14.458984 -1.365,6.214 -2.033203,10.047703 -2.033203,11.470704 0,1.421999 0.08867,2.350812 0.263672,2.757812 h 0.02734 c 2.961999,-0.174 5.371765,-0.668828 7.259765,-1.423828 0,-3.745 0.609016,-8.651703 1.916016,-14.720703 1.307,-6.069 2.002437,-10.335391 2.148437,-12.775391 1.132,-0.784 2.205657,-1.189453 3.222656,-1.189453 1.277,0 1.916016,1.568125 1.916016,4.703125 0,2.178 -0.347922,4.558578 -1.044922,7.142578 -0.348,1.307 -0.869406,2.35136 -1.566406,3.19336 -0.668,0.842 -1.453516,1.25 -2.353516,1.25 -0.436,0 -0.783515,-0.05919 -1.103515,-0.117188 l -0.376953,2.033203 0.523437,0.203125 c 0.987,0.436 2.206203,0.638672 3.658203,0.638672 2.817,0 5.168047,-1.219203 6.998047,-3.658203 1.829,-2.468 2.757813,-6.213625 2.757813,-11.265625 0,-2.875 -0.550297,-5.0825 -1.654297,-6.5625 -1.074,-1.481 -2.526172,-2.236328 -4.326172,-2.236328 z" />
    <path
       id="path827"
       d="m 118.92578,24.865234 c -0.726,0 -1.39461,0.144844 -1.97461,0.464844 l -1.88672,-0.115234 c -3.63,0 -6.5057,1.39464 -8.5957,4.18164 -2.061,2.788 -3.07813,6.097985 -3.07813,9.958985 0,3.02 0.66821,5.370984 2.03321,7.083984 1.364,1.655 3.22281,2.498047 5.63281,2.498047 v 0.0293 c 3.165,0 5.77825,-1.335813 7.78125,-4.007813 2.004,-2.729 3.34081,-5.894734 4.00781,-9.552734 l 1.04492,-0.203125 c 1.14429,-0.221682 1.86378,-0.505502 2.73243,-0.767578 l -0.41016,9.59375 h -0.0859 c 0,1.335 0.37752,2.498328 1.10352,3.486328 0.726,0.958 1.85748,1.421875 3.39648,1.421875 2.294,0 4.64594,-1.219203 7.08594,-3.658203 0.29,1.103 0.812,1.972922 1.625,2.669922 0.842,0.667 1.82953,0.988281 3.01953,0.988281 2.381,0 4.70405,-1.075313 6.99805,-3.195312 2.294,-2.148 4.12328,-4.760547 5.48828,-7.810547 1.365,-3.048 2.0332,-5.950985 2.0332,-8.708985 0,-1.074 -0.40711,-2.005359 -1.16211,-2.818359 -0.784,-0.784 -1.91843,-1.189453 -3.39843,-1.189453 l -0.72461,0.667968 c -0.494,0.493 -1.07625,1.334688 -1.65625,2.554688 -0.61,1.219 -0.95852,2.586406 -1.10352,4.066406 l 3.54297,3.976563 c -0.087,1.335 -0.92809,2.990844 -2.49609,4.964843 -1.568,1.945 -2.99118,2.933594 -4.32618,2.933594 -0.552,0 -0.84179,-0.668203 -0.84179,-2.033203 0,-1.394 0.31744,-3.59914 0.89844,-6.619141 0.61,-3.049 0.90039,-5.431531 0.90039,-7.144531 0,-1.742 -0.20297,-2.756172 -0.66797,-3.076172 -2.119,0 -4.53018,0.493766 -7.20118,1.509766 0.203,0.958 0.32032,2.118422 0.32032,3.482422 0,1.365 -0.23267,3.544156 -0.63867,6.535156 -0.407,2.99 -0.63897,4.7605 -0.66797,5.3125 -1.278,1.365 -2.46797,2.033203 -3.54297,2.033203 -0.667,0 -0.98828,-0.668203 -0.98828,-2.033203 0,-1.394 0.20492,-3.483484 0.66992,-6.271484 0.494,-2.816 0.72461,-4.99461 0.72461,-6.47461 0,-1.54 -0.28974,-2.642843 -0.92774,-3.339843 -0.581,-0.697 -1.30868,-1.044922 -2.17968,-1.044922 a 22.825,22.825 0 0 0 -2.69922,0.144531 c -0.406,0.058 -0.81341,0.145125 -1.19141,0.203125 -0.377,0.058 -0.72492,0.146078 -1.04492,0.205078 -0.29,0.058 -0.5512,0.145125 -0.7832,0.203125 -0.203,0.029 -0.43597,0.08653 -0.66797,0.144531 l -0.11719,0.638672 c 1.248,1.248 1.88867,2.468203 1.88867,3.658203 l -0.0762,1.777344 a 24.94,24.94 0 0 1 -3.66992,0.458985 c 0,-5.197 -1.36505,-7.783204 -4.12305,-7.783204 z m 57.57813,0.34961 c -2.091,0 -4.64602,1.161375 -7.66602,3.484375 -0.029,-1.568 -0.26156,-2.642657 -0.72656,-3.222657 -4.152,0 -7.1413,0.261204 -9.0293,0.783204 l -0.0586,0.667968 0.46484,0.638672 c 0.958,1.306 1.45313,2.497203 1.45313,3.658203 0,0.61 -0.49377,3.252141 -1.50977,7.869141 -0.958,4.617 -1.45312,7.752906 -1.45312,9.378906 h 0.98828 v 0.0293 c 3.165,0 5.34054,-0.233562 6.56054,-0.726562 0,-2.265 0.61008,-6.125938 1.83008,-11.585938 0.58,-2.555 0.92892,-4.123125 1.04492,-4.703125 1.481,-0.871 2.7008,-1.30664 3.7168,-1.30664 0.61,0.029 0.90039,0.493828 0.90039,1.423828 0,0.929 -0.37841,3.019781 -1.19141,6.300781 -0.78399,3.281 -1.16015,5.516328 -1.16015,6.736328 0,2.875 1.27673,4.326172 3.80273,4.326172 1.104,0 2.3521,-0.347922 3.7461,-1.044922 1.452,-0.726 2.41059,-1.308844 2.93359,-1.714844 0.522,-0.407 0.92805,-0.754922 1.24805,-1.044922 l -0.92774,-1.830078 -0.64062,0.320313 c -1.248,0.667 -1.97474,0.988281 -2.17774,0.988281 -0.262,0 -0.40625,-0.552953 -0.40625,-1.626953 0,-1.132 0.37841,-3.280609 1.19141,-6.47461 0.784,-3.193999 1.18945,-5.459328 1.18945,-6.736328 0,-1.307 -0.40515,-2.40925 -1.16015,-3.28125 -0.726,-0.871 -1.71489,-1.30664 -2.96289,-1.30664 z m -61.43946,2.554687 a 1.387,1.387 0 0 1 0.52149,0.117188 l -0.26172,0.521484 c -0.435,0.987 -0.66797,2.032719 -0.66797,3.136719 0,2.787 1.85917,4.18164 5.57617,4.18164 -0.436,2.090001 -1.24945,4.064172 -2.43945,5.951172 -1.161,1.887 -2.46792,2.816407 -3.91992,2.816407 -1.916,0 -2.875,-1.887813 -2.875,-5.632813 0,-2.672 0.40711,-4.992687 1.16211,-7.054687 0.755,-2.062 1.56945,-3.367922 2.43945,-3.919922 0.087,-0.086 0.26084,-0.117188 0.46484,-0.117188 z" />
    <g
       id="g837"
       transform="translate(3)">
      <path
         d="M 0,38.292969 9.1601562,51.679688 18.337891,38.292969 Z"
         id="path833" />
      <path
         d="M 9.1933594,18.201172 0.01757813,31.589844 H 18.353516 Z"
         id="path825" />
    </g>
    <path
       id="path2"
       d="m 102.46289,10 c -2.497,0 -5.05302,0.465234 -7.66601,1.365234 l 0.26171,2.177735 c 0,3.223 -0.55295,7.665828 -1.62695,13.298828 -1.684,-1.103 -3.74489,-1.65625 -6.21289,-1.65625 -2.41,0 -4.6175,1.335515 -6.5625,3.978515 -1.945,2.613001 -2.933594,6.212782 -2.933594,10.800782 0,3.078 0.581485,5.342922 1.771485,6.794922 1.161,1.451 2.614531,2.177734 4.269531,2.177734 0.987,0 2.119484,-0.320391 3.396488,-0.900391 a 11.83,11.83 0 0 0 3.48437,-2.439453 c 0.349,2.236 1.62628,3.339844 3.86328,3.339844 2.235,0 4.8466,-1.276734 7.8086,-3.802734 l 0.0293,-0.0293 -0.98632,-1.830078 -0.52344,0.320312 c -1.103,0.667 -1.77061,0.986328 -1.97461,0.986328 -0.377,0 -0.58008,-0.408 -0.58008,-1.25 0,-2.787 0.75297,-8.042922 2.29297,-15.794922 1.539,-7.811 2.29492,-12.977906 2.29492,-15.503906 0,-0.755 -0.11625,-1.453203 -0.40625,-2.033203 z M 89.77344,28.234375 c 0.959,0 2.03265,0.289734 3.22265,0.927734 -1.452,7.87 -2.23456,12.48686 -2.35156,13.88086 -1.132,0.958 -2.23644,1.423828 -3.39844,1.423828 -0.668,0 -1.16076,-0.321281 -1.509762,-0.988281 -0.319,-0.639 -0.46289,-2.147703 -0.46289,-4.470704 0,-2.352 0.434687,-4.734531 1.304682,-7.144531 0.93,-2.41 1.97532,-3.599609 3.19532,-3.599609 z" />
    <path
       id="path4"
       d="m 188.45,48.871 c -1.22,0 -2.149,-0.377 -2.816,-1.103 -0.668,-0.725 -0.987,-1.712 -0.987,-2.931 0,-1.22 0.464,-2.264 1.364,-3.135 0.9,-0.9 1.974,-1.364 3.193,-1.364 1.248,0 2.206,0.377 2.874,1.103 0.667,0.696 0.987,1.654 0.987,2.873 0,1.19 -0.465,2.235 -1.423,3.193 -0.9,0.9 -1.974,1.364 -3.193,1.364 m 19.245,-20.493 c 0,1.452 -0.464,3.977 -1.422,7.547 -0.929,3.542 -1.422,5.864 -1.422,6.996 0,1.074 0.145,1.625 0.464,1.625 0.203,0 1.016,-0.319 2.41,-0.986 l 0.638,-0.32 0.9,1.829 a 21.1,21.1 0 0 1 -1.248,1.045 c -0.523,0.406 -1.48,0.987 -2.932,1.712 -1.423,0.697 -2.758,1.045 -3.977,1.045 -1.219,0 -2.177,-0.377 -2.874,-1.103 -0.696,-0.754 -1.045,-1.77 -1.045,-3.018 0,-1.278 0.436,-3.542 1.307,-6.793 0.87,-3.28 1.306,-5.399 1.306,-6.357 0,-1.45 -0.465,-2.844 -1.364,-4.121 l -0.465,-0.639 0.058,-0.668 c 1.829,-0.522 4.819,-0.783 8.97,-0.783 0.464,0.522 0.667,1.51 0.667,2.96 m -5.95,-8.65 c -0.697,-0.696 -1.045,-1.625 -1.045,-2.757 0,-1.161 0.464,-2.148 1.422,-3.019 0.987,-0.87 2.09,-1.306 3.338,-1.306 1.248,0 2.235,0.348 2.932,1.045 0.696,0.696 1.045,1.625 1.045,2.757 0,1.103 -0.494,2.09 -1.51,2.961 -0.986,0.87 -2.06,1.306 -3.28,1.306 -1.219,0 -2.177,-0.319 -2.873,-0.987 m 16.632,29.172 c -2.41,0 -4.267,-0.841 -5.631,-2.496 -1.364,-1.712 -2.032,-4.064 -2.032,-7.082 0,-3.861 1.016,-7.17 3.077,-9.957 2.09,-2.786 4.963,-4.18 8.592,-4.18 l 1.887,0.117 c 0.58,-0.32 1.248,-0.465 1.973,-0.465 2.758,0 4.122,2.584 4.122,7.78 a 24.932,24.932 0 0 0 4.325,-0.581 l 0.842,-0.203 0.32,2.031 c -1.162,0.494 -2.7,0.93 -4.645,1.307 l -1.045,0.203 c -0.668,3.657 -2.003,6.821 -4.006,9.55 -2.002,2.67 -4.615,4.005 -7.779,4.005 m 2.816,-4.47 c 1.451,0 2.757,-0.929 3.918,-2.815 1.19,-1.887 2.003,-3.86 2.439,-5.95 -3.716,0 -5.574,-1.394 -5.574,-4.18 0,-1.104 0.233,-2.149 0.668,-3.136 l 0.261,-0.522 a 1.386,1.386 0 0 0 -0.522,-0.116 c -0.203,0 -0.377,0.029 -0.465,0.116 -0.87,0.551 -1.683,1.858 -2.438,3.919 -0.755,2.06 -1.16,4.383 -1.16,7.053 0,3.745 0.957,5.631 2.873,5.631"
       style="fill:#55cc44" />
  </g>
</svg>
