<svg xmlns="http://www.w3.org/2000/svg" width="249.851" height="70"><path d="M.017 31.59h18.337l-9.16-13.388zm18.32 6.702H0L9.16 51.68zm22.835 6.116c0-1.481.464-4.036 1.364-7.608.9-3.63 1.365-5.836 1.365-6.62 0-.842-.639-1.916-1.887-3.281l.058-.668c2.352-.493 5.488-.726 9.35-.726.174.465.26 1.278.26 2.44 0 1.19-.493 3.716-1.451 7.549-.987 3.861-1.452 6.271-1.452 7.2 0 .93.349 1.423 1.045 1.423 1.017 0 2.178-.377 3.485-1.103.145-.842.493-2.44 1.045-4.791 1.249-5.575 1.887-9.553 1.887-11.934 1.22-.493 3.398-.726 6.563-.726h.987c0 1.626-.494 4.82-1.452 9.611-.987 4.733-1.452 7.52-1.452 8.334 0 .813.174 1.19.523 1.19.203 0 1.19-.406 2.962-1.249l.987 1.656c-3.107 2.584-5.807 3.861-8.13 3.861-1.104 0-2.062-.32-2.875-.929a3.644 3.644 0 0 1-1.307-2.439c-2.816 2.294-5.371 3.455-7.665 3.455-1.22 0-2.236-.406-3.02-1.19-.755-.813-1.161-1.916-1.161-3.397M65.214 60c-.175-.407-.262-1.336-.262-2.758 0-1.423.668-5.256 2.033-11.47 1.364-6.271 2.032-11.062 2.032-14.46 0-.667-.145-1.364-.464-2.09-.32-.755-.64-1.365-.988-1.771l-.464-.581.058-.668c1.626-.523 4.53-.784 8.653-.784.377.726.638 1.742.726 3.078 2.67-2.178 4.907-3.281 6.678-3.281 1.8 0 3.252.755 4.326 2.236 1.104 1.48 1.655 3.687 1.655 6.562 0 5.052-.929 8.798-2.758 11.266-1.83 2.439-4.181 3.658-6.998 3.658-1.452 0-2.671-.203-3.658-.639l-.523-.203.377-2.032c.32.058.668.116 1.104.116.9 0 1.684-.407 2.352-1.249.697-.842 1.22-1.887 1.568-3.194.697-2.584 1.045-4.965 1.045-7.143 0-3.135-.639-4.703-1.916-4.703-1.017 0-2.091.406-3.223 1.19-.146 2.44-.842 6.707-2.149 12.776s-1.916 10.976-1.916 14.721c-1.888.755-4.298 1.249-7.26 1.423m51.075-14.866c-2.962 2.526-5.575 3.803-7.81 3.803-2.237 0-3.514-1.103-3.863-3.339a11.83 11.83 0 0 1-3.484 2.44c-1.277.58-2.41.9-3.397.9-1.655 0-3.107-.727-4.268-2.178-1.19-1.452-1.772-3.717-1.772-6.795 0-4.588.988-8.188 2.933-10.801 1.945-2.643 4.152-3.978 6.562-3.978 2.468 0 4.53.552 6.214 1.655 1.074-5.633 1.626-10.076 1.626-13.299l-.261-2.177c2.613-.9 5.168-1.365 7.665-1.365.29.58.407 1.278.407 2.033 0 2.526-.755 7.694-2.294 15.505-1.54 7.752-2.294 13.008-2.294 15.795 0 .842.203 1.249.58 1.249.204 0 .872-.32 1.975-.987l.523-.32.987 1.83m-12.573-16.841c-1.22 0-2.264 1.19-3.194 3.6-.87 2.41-1.306 4.791-1.306 7.143 0 2.323.145 3.833.464 4.472.349.667.842.987 1.51.987 1.162 0 2.265-.465 3.397-1.423.117-1.394.9-6.01 2.352-13.88-1.19-.638-2.264-.928-3.223-.928m21.284 20.702c-2.41 0-4.269-.842-5.633-2.497-1.365-1.713-2.033-4.065-2.033-7.085 0-3.861 1.017-7.171 3.078-9.959 2.09-2.787 4.965-4.181 8.595-4.181l1.887.116c.58-.32 1.249-.465 1.975-.465 2.758 0 4.123 2.585 4.123 7.782a24.94 24.94 0 0 0 4.326-.58l.842-.204.32 2.033c-1.162.493-2.7.929-4.646 1.306l-1.046.204c-.667 3.658-2.003 6.823-4.007 9.552-2.003 2.672-4.616 4.007-7.781 4.007m2.816-4.471c1.452 0 2.759-.93 3.92-2.817 1.19-1.887 2.004-3.862 2.44-5.952-3.717 0-5.576-1.394-5.576-4.181 0-1.104.233-2.149.668-3.136l.261-.523a1.387 1.387 0 0 0-.522-.116c-.204 0-.378.03-.465.116-.87.552-1.684 1.858-2.439 3.92-.755 2.062-1.161 4.384-1.161 7.056 0 3.745.958 5.633 2.874 5.633m12.34-.465l.581-13.618c0-1.19-.639-2.41-1.887-3.658l.116-.639c.232-.058.465-.116.668-.145.232-.058.494-.145.784-.203.32-.059.668-.146 1.045-.204.378-.058.784-.145 1.19-.203a22.825 22.825 0 0 1 2.701-.145c.871 0 1.597.348 2.178 1.045.638.697.929 1.8.929 3.34 0 1.48-.232 3.658-.726 6.474-.465 2.788-.668 4.878-.668 6.272 0 1.365.32 2.033.987 2.033 1.075 0 2.265-.668 3.543-2.033.029-.552.261-2.323.668-5.313.406-2.991.638-5.169.638-6.534 0-1.364-.116-2.526-.319-3.484 2.671-1.016 5.081-1.51 7.2-1.51.465.32.669 1.336.669 3.078 0 1.713-.29 4.094-.9 7.143-.581 3.02-.9 5.226-.9 6.62 0 1.365.29 2.033.842 2.033 1.335 0 2.758-.988 4.326-2.933 1.568-1.974 2.41-3.63 2.497-4.965l-3.542-3.978c.145-1.48.493-2.846 1.103-4.065.58-1.22 1.161-2.062 1.655-2.555l.726-.668c1.48 0 2.613.406 3.397 1.19.755.813 1.162 1.743 1.162 2.817 0 2.758-.668 5.662-2.033 8.71-1.365 3.05-3.194 5.663-5.488 7.811-2.294 2.12-4.616 3.194-6.997 3.194-1.19 0-2.178-.32-3.02-.987-.813-.697-1.336-1.568-1.626-2.671-2.44 2.439-4.791 3.658-7.085 3.658-1.539 0-2.671-.464-3.397-1.422-.726-.988-1.104-2.15-1.104-3.485m32.84 4.443h-.987c0-1.626.494-4.762 1.452-9.379 1.016-4.617 1.51-7.259 1.51-7.869 0-1.161-.494-2.352-1.452-3.658l-.465-.639.058-.668c1.888-.522 4.878-.784 9.03-.784.465.58.697 1.655.726 3.223 3.02-2.323 5.575-3.484 7.666-3.484 1.248 0 2.236.435 2.962 1.306.755.872 1.161 1.975 1.161 3.282 0 1.277-.406 3.542-1.19 6.736-.813 3.194-1.19 5.343-1.19 6.475 0 1.074.144 1.626.406 1.626.203 0 .929-.32 2.177-.987l.64-.32.928 1.83c-.32.29-.726.638-1.248 1.045-.523.406-1.481.987-2.933 1.713-1.394.697-2.642 1.045-3.746 1.045-2.526 0-3.803-1.451-3.803-4.326 0-1.22.377-3.455 1.161-6.736.813-3.281 1.19-5.372 1.19-6.301 0-.93-.29-1.394-.9-1.423-1.016 0-2.235.436-3.716 1.307-.116.58-.465 2.148-1.045 4.703-1.22 5.46-1.83 9.321-1.83 11.586-1.22.493-3.397.726-6.562.726" fill="#555"/><path d="M202.45 48.871c-1.22 0-2.149-.377-2.816-1.103-.668-.725-.987-1.712-.987-2.931 0-1.22.464-2.264 1.364-3.135.9-.9 1.974-1.364 3.193-1.364 1.248 0 2.206.377 2.874 1.103.667.696.987 1.654.987 2.873 0 1.19-.465 2.235-1.423 3.193-.9.9-1.974 1.364-3.193 1.364m19.245-20.493c0 1.452-.464 3.977-1.422 7.547-.929 3.542-1.422 5.864-1.422 6.996 0 1.074.145 1.625.464 1.625.203 0 1.016-.319 2.41-.986l.638-.32.9 1.829a21.1 21.1 0 0 1-1.248 1.045c-.523.406-1.48.987-2.932 1.712-1.423.697-2.758 1.045-3.977 1.045-1.219 0-2.177-.377-2.874-1.103-.696-.754-1.045-1.77-1.045-3.018 0-1.278.436-3.542 1.307-6.793.87-3.28 1.306-5.399 1.306-6.357 0-1.45-.465-2.844-1.364-4.121l-.465-.639.058-.668c1.829-.522 4.819-.783 8.97-.783.464.522.667 1.51.667 2.96m-5.95-8.65c-.697-.696-1.045-1.625-1.045-2.757 0-1.161.464-2.148 1.422-3.019.987-.87 2.09-1.306 3.338-1.306 1.248 0 2.235.348 2.932 1.045.696.696 1.045 1.625 1.045 2.757 0 1.103-.494 2.09-1.51 2.961-.986.87-2.06 1.306-3.28 1.306-1.219 0-2.177-.319-2.873-.987m16.632 29.172c-2.41 0-4.267-.841-5.631-2.496-1.364-1.712-2.032-4.064-2.032-7.082 0-3.861 1.016-7.17 3.077-9.957 2.09-2.786 4.963-4.18 8.592-4.18l1.887.117c.58-.32 1.248-.465 1.973-.465 2.758 0 4.122 2.584 4.122 7.78a24.932 24.932 0 0 0 4.325-.581l.842-.203.32 2.031c-1.162.494-2.7.93-4.645 1.307l-1.045.203c-.668 3.657-2.003 6.821-4.006 9.55-2.002 2.67-4.615 4.005-7.779 4.005m2.816-4.47c1.451 0 2.757-.929 3.918-2.815 1.19-1.887 2.003-3.86 2.439-5.95-3.716 0-5.574-1.394-5.574-4.18 0-1.104.233-2.149.668-3.136l.261-.522a1.386 1.386 0 0 0-.522-.116c-.203 0-.377.029-.465.116-.87.551-1.683 1.858-2.438 3.919-.755 2.06-1.16 4.383-1.16 7.053 0 3.745.957 5.631 2.873 5.631" fill="#5c4"/></svg>