<svg xmlns="http://www.w3.org/2000/svg" width="24" height="24" viewBox="0 0 6.35 6.35"><path d="M3.166 6.34A3.163 3.163 0 0 1 0 3.176 3.163 3.163 0 0 1 3.166.009h2.383c.447 0 .801.354.801.801v2.365a3.167 3.167 0 0 1-3.184 3.166zm.726-2.942c-.037 0-.093-.018-.112-.055l-.335-.447-.354 1.042c-.018.056-.056.094-.112.094h-.018c-.037 0-.093-.02-.112-.056l-.428-.578h-.782a1.545 1.545 0 0 0 1.527 1.323c.782 0 1.415-.578 1.527-1.323zM2.477 3.12c.037 0 .093.019.111.056l.317.428.354-1.024c.018-.056.056-.074.112-.093.055 0 .093.019.13.056l.447.596h.763a1.546 1.546 0 0 0-3.09 0h.856z"/></svg>