<svg xmlns="http://www.w3.org/2000/svg" height="24" width="24"><path d="M23.93 13.335l-1.26-3.868a.547.547 0 0 0-.03-.104l-2.525-7.774a1.004 1.004 0 0 0-.96-.685.987.987 0 0 0-.946.69L15.8 9.002H8.204L5.793 1.594a.987.987 0 0 0-.943-.69h-.006a1.007 1.007 0 0 0-.956.691L1.36 9.378c0 .007-.006.013-.008.02L.071 13.335a1.437 1.437 0 0 0 .522 1.608l11.072 8.046a.566.566 0 0 0 .669-.004l11.074-8.042a1.436 1.436 0 0 0 .52-1.609M7.379 10.14l3.087 9.499-7.409-9.499m10.483 9.5l2.96-9.106.127-.394h4.326l-6.703 8.587m4.916-16.403l2.169 6.679h-4.341m-1.56 1.133l-2.15 6.617L12 20.692 8.572 10.136M4.839 2.323L7.01 9.002H2.673M1.26 14.027a.305.305 0 0 1-.11-.342L2.1 10.76l6.979 8.947m13.663-5.681l-7.82 5.679.026-.034L21.9 10.76l.952 2.922a.305.305 0 0 1-.11.343"/></svg>