<svg xmlns="http://www.w3.org/2000/svg" width="24" height="24" viewBox="0 0 6.35 6.35"><path d="M1.945 3.183v-1.65h.623V2.75h1.218V1.531h.596v3.303h-.596V3.346H2.568V4.835h-.623zm.934 3.024a76.72 76.72 0 0 1-2.252-1.3C.515 4.834.449 4.77.43 4.717.4 4.628.39 2.01.42 1.725l.017-.167.355-.212C1.494.926 2.97.081 3.112.016c.089-.04.052-.058 1.229.616 1.44.826 1.567.906 1.587.998.022.099.028 3.008.007 3.087-.021.08-.226.212-1.324.849-.944.547-1.379.785-1.433.784-.015 0-.15-.065-.299-.143zm.522-.544c.402-.202 1.885-1.07 1.98-1.157.062-.057.083-.492.083-1.705v-.884l-.094-.083C5.23 1.71 3.87.912 3.378.665L3.173.562 2.9.706C2.292 1.03 1.08 1.741.978 1.837l-.061.057v1.255c0 .809.01 1.275.028 1.308.034.064.184.16.892.575.748.437 1.275.723 1.334.723.026 0 .13-.041.23-.092z"/></svg>