<svg xmlns="http://www.w3.org/2000/svg" viewBox="0 0 6.35 6.35" height="24" width="24"><path d="M3.177 0c-.28.102-.532.287-.798.425-.651.37-1.299.747-1.94 1.133-.064.747-.026 1.5-.032 2.248.02.316-.026.648.047.953.254.248.597.382.893.575.609.341 1.2.718 1.832 1.016.533-.237 1.024-.56 1.533-.843.403-.25.84-.454 1.206-.756.056-.308.016-.637.03-.954-.001-.722.007-1.445-.019-2.167-.17-.226-.463-.326-.695-.483C4.58.775 3.934.385 3.27.032L3.214.01zm-1.22 1.524h.622v1.218h1.219V1.524h.595v3.303h-.595v-1.49H2.579v1.49h-.622z"/></svg>