<svg xmlns="http://www.w3.org/2000/svg" width="24" height="24" viewBox="0 0 6.35 6.35"><path d="M1.876 4.862v-3.4h.711V2.7h1.18V1.461h.714v3.401h-.714V3.375h-1.18v1.487h-.711zM3.128 0c.256-.007.498.1.706.241.588.35 1.185.69 1.77 1.045a.974.974 0 0 1 .398.867c-.003.75.007 1.5-.004 2.25-.031.34-.255.65-.562.796-.641.354-1.277.719-1.921 1.067a.973.973 0 0 1-.938-.085c-.575-.339-1.16-.67-1.73-1.013a1.147 1.147 0 0 1-.5-.999c.004-.7-.007-1.402.005-2.102a1.18 1.18 0 0 1 .61-.922C1.522.805 2.076.45 2.64.115 2.791.04 2.961.005 3.13 0zm-.003.443c-.259-.004-.46.185-.671.304-.46.289-.93.563-1.385.86a.763.763 0 0 0-.276.675c.004.679-.007 1.357.005 2.035a.73.73 0 0 0 .428.572c.564.326 1.122.663 1.689.982.186.087.405.034.567-.08.619-.349 1.244-.686 1.858-1.04.172-.12.247-.341.224-.545-.003-.734.006-1.468-.005-2.202-.02-.202-.173-.362-.352-.442C4.598 1.208 3.996.844 3.384.496a.613.613 0 0 0-.26-.053z"/></svg>