<svg xmlns="http://www.w3.org/2000/svg" viewBox="0 0 6.35 6.35" height="24" width="24"><path d="M3.128 0c-.167.004-.338.04-.489.116-.564.335-1.117.689-1.677 1.03a1.18 1.18 0 0 0-.61.921C.34 2.767.35 3.47.347 4.17c-.022.39.175.78.5.999.57.342 1.154.674 1.729 1.013a.973.973 0 0 0 .938.084c.645-.348 1.28-.713 1.921-1.066.307-.147.531-.457.562-.797.011-.75.002-1.5.005-2.25a.975.975 0 0 0-.399-.867C5.018.931 4.422.591 3.833.241c-.208-.14-.45-.248-.705-.24zM1.872 1.474h.711v1.24h1.181v-1.24h.714v3.402h-.714V3.388h-1.18v1.488h-.712z"/></svg>