<svg xmlns="http://www.w3.org/2000/svg" viewBox="0 0 6.35 6.35" height="24" width="24"><path d="M.231 6.32c-.307-.137-.214-.502-.229-.767 0-1.724-.01-3.45.019-5.174-.038-.402.428-.387.705-.373C2.474.002 4.222-.01 5.97.014c.403-.04.39.426.375.704.004 1.748.016 3.496-.008 5.244.041.402-.424.39-.7.376-1.75.007-3.5.024-5.248-.002C.336 6.332.283 6.333.23 6.32zm3.555-1.967l.587-.783H1.985c.397.522.78 1.057 1.194 1.566.213-.252.406-.52.607-.783zm0-2.363c-.2-.262-.394-.53-.607-.783-.414.51-.797 1.044-1.194 1.567h2.388l-.587-.784z"/></svg>