<svg xmlns="http://www.w3.org/2000/svg" width="221.481" height="50" viewBox="0 0 264448.19 26800"><path d="M28418.94-11798.675L27076.29-9952.53c-1794.625 2641.185-1964.375 5921.725-719.277 8839.116 1312.345 3095.769 3996.866 5530.442 7136.827 6681.285 129.47 48.72 261.216 92.512 391.607 135.864l175.823 55.944c186.283 57.925 367.937 123.396 559.438 159.839 8679.2 1676.395 11034.222-4450.823 11660.28-5354.619-2062.694 2969.56-5529.725 3678.032-9782.168 2645.342-334.282-80.56-701.12-197.753-1022.972-311.687-417.027-149.226-825.385-319.679-1222.77-511.486-755.53-362.132-1474.244-806.613-2141.848-1310.683-3804.497-2886.698-6174.083-8389.84-3692.29-12875.06zm-9846.104 2149.84l-2485.502 3508.473C13042.548-1759.484 13209.804 4107 15583.84 8740.683c398.46 777.202 843.798 1527.616 1342.65 2245.743 456.425 653.295 969.919 1433.63 1574.418 1958.032 220.425 242.06 446.464 478.43 679.318 711.285l183.815 175.823c226.563 220.578 456.118 436.362 695.301 647.35l23.963 23.975 7.98 7.992c263.888 230.936 537.827 451.898 815.18 671.326l183.815 143.855c278.428 213.29 564.438 423.894 855.141 623.374l23.963 23.976c127.36 88.998 262.29 170.964 391.607 255.742l183.815 119.88c207.996 133.498 418.152 259.707 631.365 383.614l87.912 55.944c184.327 105.494 371.083 210.413 559.438 311.687l199.799 103.896c130.39 67.132 260.18 134.584 391.606 199.799l55.944 31.968c267.916 132.347 539.937 254.784 815.18 375.622l183.816 71.928c221.46 93.218 438.727 186.948 663.333 271.727 95.175 36.06 191.347 69.754 287.711 103.895 202.74 75.572 409.496 146.35 615.382 215.783 93.218 29.922 187.728 58.757 279.719 87.912 292.966 90.917 582.94 205.106 887.108 255.743 15718.91 2604.013 19348.593-9494.42 19348.593-9494.42-3271.465 4712.32-9608.149 6958.191-16367.55 5202.772-301.176-78.641-601.252-162.525-895.101-255.743l-263.735-87.912c-209.031-67.9-416.452-141.362-623.373-215.783-94.255-35.293-186.501-67.836-279.72-103.896-225.526-85.93-450.9-177.741-671.325-271.727l-183.815-71.927c-275.282-121.99-546.075-250.117-815.18-383.615-138.6-67.132-278.94-138.357-415.583-207.79l-231.767-119.88c-176.079-95.52-355.726-195.196-527.47-295.703l-119.88-71.928c-213.25-125.442-424.29-250.884-631.365-383.614l-191.807-127.872c-136.682-88.998-274.054-180.427-407.59-271.727-290.703-199.863-569.796-412.002-847.149-623.373l-191.807-143.856c-2959.97-2335.06-5308.88-5530.633-6425.542-9150.803-1168.528-3754.818-914.64-7967.864 1110.883-11388.554zM6305.166-5213.293l-3284.7 4171.807c-4210.17 6050.367-3687.133 13925.013-471.527 20355.542 76.57 153.062 160.044 304.398 239.76 455.542 50.675 97.438 92.143 193.726 143.855 287.711l95.903 167.831c54.819 102.425 111.939 196.347 167.832 295.703 101.427 176.846 207.113 352.542 311.686 527.47 58.003 96.287 108.909 191.424 167.832 287.711 117.002 187.204 238.57 374.152 359.638 559.438l151.848 231.767c168.713 250.497 343.552 496.972 519.478 743.253l7.992 23.976 87.911 119.88c153.177 211.37 312.211 417.755 471.528 623.373l175.823 223.775c142.781 179.148 292.557 357.465 439.558 535.462l159.84 199.799c198.712 232.854 401.503 460.593 607.389 687.31l15.984 15.983 23.963 23.976c200.784 219.427 407.386 432.909 615.382 647.35l191.807 199.799c162.46 162.268 329.895 320.318 495.502 479.518l199.812 191.832c221.652 207.92 442.5 415.902 671.325 615.382l15.984 7.992 111.888 103.895c200.822 173.778 408.421 341.929 615.381 511.486l247.751 199.8c167.678 134.648 338.706 269.17 511.486 399.598l271.727 207.804c189.429 139.636 382.886 282.084 575.422 415.582l207.79 143.856 55.945 39.96c183.252 125.058 373.193 246.408 559.437 367.63l239.76 159.84c286.636 181.065 577.122 362.451 871.124 535.461l239.759 135.864c216.358 124.29 427.999 248.71 647.35 367.63 118.997 64.447 247.597 121.67 367.63 183.815 155.249 81.71 305.293 159.968 463.534 239.76l111.888 55.943 183.815 87.912c245.168 117.002 493.75 232.79 743.253 343.655l159.84 71.927c284.564 125.442 572.275 244.938 863.132 359.639l207.79 79.92c270.027 103.575 542.01 208.174 815.182 303.694l103.895 39.96c301.214 104.343 605.689 200.567 911.084 295.703l215.784 63.936c310.497 94.369 615.125 204.658 935.06 263.735 20359.57 3713.388 26277.59-12235.703 26277.59-12235.703-4965.505 6471.576-13783.51 8182.113-22137.75 6281.687-316.636-71.353-626.52-173.586-935.061-263.735l-231.767-71.928c-301.214-92.068-597.953-184.902-895.1-287.71l-119.88-47.953c-265.96-92.834-530.462-194.045-791.205-295.703l-223.775-87.911c-287.71-113.934-573.567-228.507-855.14-351.647l-175.824-71.927c-242.176-109.714-479.211-220.962-719.277-335.663l-207.791-103.896c-187.319-90.15-367.12-183.431-551.446-279.719-125.097-64.063-252.444-132.666-375.622-199.799-225.68-122.373-449.865-247.111-671.326-375.622l-223.775-119.88c-295.038-172.626-584.487-354.012-871.124-535.462l-231.767-159.839c-207.996-134.649-418.37-267.571-623.374-407.59l-191.807-143.856c-199.748-139.635-398.831-279.719-591.406-423.574l-255.743-191.807c-177-135.416-352.58-275.18-527.47-415.583l-239.759-191.807c-222.534-182.217-438.062-363.09-655.34-551.446l-71.929-55.943c-233.928-206.001-467.664-420.378-695.3-631.366l-191.808-191.807c-167.678-160.351-332.044-321.789-495.502-487.51l-199.8-191.807c-207.074-212.523-408.715-429.073-607.389-647.35l-31.968-31.968c-210.067-230.552-413.523-465.452-615.381-703.293l-159.84-191.807c-151.22-181.066-301.584-366.927-447.55-551.446l-159.84-199.799c-176.078-226.716-353.909-457.524-519.477-687.31-4637.708-6325.802-6304.526-15052.903-2597.39-22217.67z" fill="#21ace2"/><path d="M106628.337-16450c-15247.14 0-21872.226 10978.726-24399.478 22912.972-2525.334 12020.942 784.3 22560.11 15943.976 22473.413l11963.976-39.96 11172.77-39.96c430.416-3.452 873.299-344.165 983.013-759.236l1950.04-7432.53c108.946-416.99-160.99-757.32-591.406-759.237l-1862.128-7.992-1870.12-15.984c-366.353-1.918-571.203-236.882-527.47-551.446l47.951-175.823s4218.992-10252.736 5178.795-16175.743C125925.231-4950.453 121961.023-16450 106628.336-16450zm157377.83 4387.59l-2461.525 15.984c-430.416 3.197-1135.627 7.992-1566.426 7.992h-6513.467c-430.39 0-979.546 292.506-1222.758 647.35L237832.461 9707.71c-243.212 357.145-519.082 307.403-615.37-111.888l-1054.94-4651.325c-95.136-421.212-528.62-759.237-959.035-759.237h-9262.691c-431.566 0-684.432 337.325-567.43 751.245l4147.832 14537.39c117.77 414.303 130.62 1093.496 23.975 1510.481l-1814.176 7032.932c-107.796 419.29 160.606 759.237 591.405 759.237h9150.816c429.623 0 876.33-339.946 983-759.237l1806.184-7032.932c106.67-416.985 403.64-1038.892 663.346-1382.61l23392.503-31040.803c259.707-342.568 118.69-625.295-311.7-623.374zm-79480.12 4675.301c-15071.828 0-18639.634 9148.694-20643.252 18381.527-2003.619 9410.83-1833.678 18205.702 13762.168 18205.702h2477.51c617.236-1.278 1241.76-5.69 1870.12-7.992h31.969c4119.252-15.344 8244.322-49.355 9918.032-63.935 428.497-6.138 847.212-349.09 935.06-767.23l631.365-3084.899 127.872-599.397 751.245-3684.298c87.08-421.208-199.8-767.229-631.366-767.229H179738.86c-5576.22 0-7234.905-1477.814-6625.342-5834.136h22433.454c355.994-6.138 684.752-257.341 815.18-583.414l55.945-191.807h-7.992c3328.239-12552.249 2372.591-21002.892-11884.057-21002.892zm-79160.441 295.703c8413.685-241.68 10065.628 6015.104 7928.032 13202.731l-215.783 751.245v7.992l-1686.305 5993.976-1694.298 5993.976c-117.77 413.92-567.43 759.237-998.996 759.237h-8951.004c-6794.579 0-8456.077-5316.001-6801.164-13154.78C94599.85-1553.802 97846.507-6538.616 104534.44-7043.453c285.588-21.514 559.758-40.155 831.165-47.952zm-34125.703 127.872c-430.415 0-863.9 348.318-959.036 767.229l-807.189 3564.417-807.187 3564.418c-95.904 418.907 176.974 767.229 607.388 767.229h8583.373c431.567 0 858.594-347.171 951.045-767.229l783.212-3564.418 783.213-3564.417c92.068-421.212-184.966-767.23-615.381-767.23zm62137.55 95.903c-430.799 0-855.972 347.171-943.052 767.23l-1710.281 8119.839-1718.273 8119.839v7.992l-159.84 759.237c-1971.394 9001.13-1445.203 17585.91 9270.683 17854.056 175.312 4.987 311.687 0 311.687 0h16815.1c430.416 0 852.903-344.87 943.052-767.229l3628.354-17046.867 3628.353-17046.868c88.999-421.208-192.574-767.229-623.373-767.229h-7752.209c-430.415 0-858.977 347.171-951.044 767.23l-2749.237 12731.204L148610.143 19370c-90.916 420.06-513.403 767.229-943.051 767.229h-5490.482c-5431.214 0-4805.155-3757.248-3692.29-8903.052l31.969-151.848 119.879-655.341 23.976-119.88 247.75-1318.674 263.736-1414.579c80.943-426.192 207.919-1054.108 287.71-1446.546l1254.74-6113.855 1246.747-6113.856c85.93-421.208-192.958-767.229-623.374-767.229zm73438.193 87.912c-430.416 0-862.046 346.02-951.044 767.229l-311.687 1494.498-375.623 1774.217-103.895 495.502-3228.755 15120.803-3068.916 14361.566c-90.916 421.209-116.49 939.856-63.936 1150.844 52.172 210.22 871.892 375.622 1302.691 375.622h6473.494c431.566 0 972.015-72.695 1206.787-167.831 235.156-95.137 585.012-944.267 671.326-1366.627l1150.843-5682.289 1150.843-5690.281v-7.992l151.848-759.237 1398.594-6537.43 1230.763-5770.2c90.917-419.291 513.788-758.47 943.052-759.237l20355.543-7.992c429.264-1.918 697.986-346.788 599.397-767.23l-351.646-1470.521-351.647-1502.49-183.815-767.23c-697.411-2709.494-2740.99-4267.736-7184.78-4267.736l-6921.044-7.992-6369.598-7.992h-7168.795zm-24287.59 7928.032c4833.158 0 5770.52 2356.349 5442.53 5010.964-57.686 462.386-482.76 807.189-911.085 807.189h-11740.2c-405.865 0-619.666-275.883-559.438-615.382l7.992-23.976 7.992-39.96s16.879-82.793 47.952-199.799c1121.688-2981.835 3411.227-4939.036 7704.257-4939.036zM68698.459 4129.317c-430.416 0-857.06 346.788-951.045 767.23l-1206.787 5338.634-1206.787 5338.634c-95.52 420.442-246.664 1112.095-335.663 1534.458l-1158.835 5450.522-1158.835 5450.522c-90.15 420.442-276.714 1102.7-415.583 1510.482 0 0-1603.636 4768.967-4299.678 4715.261-113.934-3.452-224.031 2.238-335.663 0-1304.29-24.551-2333.655-47.952-2333.655-47.952-430.415-6.138-859.68 333.105-959.036 751.245l-895.1 3740.241-887.109 3740.241c-99.356 417.756 171.284 767.165 599.398 775.221 1526.786 17.646 4950.736 55.944 7024.94 55.944 6733.2 0 10286.62-3736.853 12563.372-14473.454l2661.325-12323.614 2501.486-11556.386c92.068-420.441-192.574-767.229-623.373-767.229z" fill="#1e2e3b"/></svg>