<svg xmlns="http://www.w3.org/2000/svg" width="81.64" height="50"><defs><clipPath id="g"><path d="M239.032 373.393l-42.134-24.315a5.087 5.087 0 0 1-2.545-4.407v-48.666c0-1.818.97-3.497 2.544-4.408l42.133-24.334a5.093 5.093 0 0 1 5.091 0l42.124 24.334a5.093 5.093 0 0 1 2.543 4.408v48.668a5.084 5.084 0 0 1-2.545 4.405l-42.123 24.315a5.09 5.09 0 0 1-5.088 0"/></clipPath><clipPath id="h"><path d="M237.627 382.331l-.58-.331h.774z"/></clipPath><linearGradient x2="1" gradientUnits="userSpaceOnUse" gradientTransform="matrix(97.417 0 0 -97.417 192.862 382.166)" id="i"><stop offset="0" stop-color="#9bb48f"/><stop offset=".092" stop-color="#9bb48f"/><stop offset=".303" stop-color="#9bb48f"/><stop offset=".862" stop-color="#687e67"/><stop offset="1" stop-color="#687e67"/></linearGradient><clipPath id="j"><path d="M239.032 373.393l-42.134-24.315a5.087 5.087 0 0 1-2.545-4.407v-48.666c0-1.818.97-3.497 2.544-4.408l42.133-24.334a5.093 5.093 0 0 1 5.091 0l42.124 24.334a5.093 5.093 0 0 1 2.543 4.408v48.668a5.084 5.084 0 0 1-2.545 4.405l-42.123 24.315a5.09 5.09 0 0 1-5.088 0"/></clipPath><clipPath id="k"><path d="M290.279 292.38l-.279.477v-.639z"/></clipPath><linearGradient x2="1" gradientUnits="userSpaceOnUse" gradientTransform="matrix(97.417 0 0 -97.417 192.862 292.538)" id="l"><stop offset="0" stop-color="#9bb48f"/><stop offset=".092" stop-color="#9bb48f"/><stop offset=".303" stop-color="#9bb48f"/><stop offset=".862" stop-color="#687e67"/><stop offset="1" stop-color="#687e67"/></linearGradient><clipPath id="a"><path d="M239.03 226.605l-42.13 24.317a5.085 5.085 0 0 0-2.546 4.406v48.668c0 1.817.968 3.496 2.546 4.406l42.133 24.336a5.1 5.1 0 0 0 5.09 0l42.126-24.336a5.096 5.096 0 0 0 2.54-4.406v-48.668c0-1.816-.97-3.496-2.55-4.406l-42.12-24.317a5.123 5.123 0 0 0-5.1 0"/></clipPath><linearGradient gradientUnits="userSpaceOnUse" gradientTransform="rotate(116.114 53.1 202.97) scale(86.48)" x2="1.251" x1="-.348" id="b"><stop stop-color="#3E863D" offset=".3"/><stop stop-color="#55934F" offset=".5"/><stop stop-color="#5AAD45" offset=".8"/></linearGradient><clipPath id="c"><path d="M195.398 307.086c.403.523.907.976 1.5 1.316l36.14 20.875 6.02 3.46c.9.52 1.926.74 2.934.665.336-.027.672-.09 1-.183l44.434-81.36c-.34-.37-.738-.68-1.184-.94l-27.586-15.93-14.582-8.39a5.318 5.318 0 0 0-1.32-.53zm0 0"/></clipPath><linearGradient gradientUnits="userSpaceOnUse" gradientTransform="scale(132.798) rotate(-36.46 4.148 -1.614)" x2=".582" x1="-.456" id="d"><stop stop-color="#3E863D" offset=".57"/><stop stop-color="#619857" offset=".72"/><stop stop-color="#76AC64" offset="1"/></linearGradient><clipPath id="e"><path d="M241.066 225.953a5.14 5.14 0 0 0-2.035.652l-42.01 24.247 45.3 82.51c.63-.09 1.25-.3 1.81-.624l42.13-24.336a5.105 5.105 0 0 0 2.46-3.476l-46.18-78.89a5.29 5.29 0 0 0-1.03-.102c-.14 0-.28.007-.42.02"/></clipPath><linearGradient gradientUnits="userSpaceOnUse" gradientTransform="translate(192.862 279.652) scale(97.417)" x2=".984" x1=".043" id="f"><stop stop-color="#6BBF47" offset=".16"/><stop stop-color="#79B461" offset=".38"/><stop stop-color="#75AC64" offset=".47"/><stop stop-color="#659E5A" offset=".7"/><stop stop-color="#3E863D" offset=".9"/></linearGradient></defs><g clip-path="url(#a)" transform="translate(-14.452 -30.27) scale(.18455)"><path d="M331.363 246.793l-118.715-58.19-60.87 124.174L270.49 370.97zm0 0" fill="url(#b)"/></g><g clip-path="url(#c)" transform="translate(-14.452 -30.27) scale(.18455)"><path d="M144.07 264.004l83.825 113.453 110.86-81.906-83.83-113.45zm0 0" fill="url(#d)"/></g><g clip-path="url(#e)" transform="translate(-14.452 -30.27) scale(.18455)"><path d="M197.02 225.934v107.43h91.683v-107.43zm0 0" fill="url(#f)"/></g><path d="M40.352 50c-.27 0-.538-.07-.774-.207l-2.461-1.456c-.368-.206-.188-.279-.067-.321.49-.17.59-.21 1.113-.506.055-.031.127-.02.183.014l1.891 1.122a.243.243 0 0 0 .229 0l7.372-4.255a.232.232 0 0 0 .113-.2v-8.508a.238.238 0 0 0-.115-.203l-7.37-4.252a.23.23 0 0 0-.226 0l-7.368 4.253a.237.237 0 0 0-.117.202v8.508c0 .082.045.159.116.198l2.02 1.166c1.096.548 1.767-.097 1.767-.745v-8.4c0-.12.095-.213.214-.213h.935c.117 0 .213.093.213.212v8.4c0 1.463-.796 2.302-2.183 2.302-.426 0-.761 0-1.698-.462l-1.933-1.113a1.557 1.557 0 0 1-.774-1.345v-8.508c0-.553.296-1.069.774-1.344l7.372-4.26a1.616 1.616 0 0 1 1.55 0l7.372 4.26c.478.276.775.791.775 1.344v8.508a1.56 1.56 0 0 1-.775 1.345l-7.372 4.257a1.546 1.546 0 0 1-.776.207" fill="#689f63"/><path d="M42.63 44.138c-3.227 0-3.903-1.48-3.903-2.723 0-.118.095-.212.213-.212h.953c.107 0 .195.076.212.18.144.97.573 1.46 2.524 1.46 1.553 0 2.214-.351 2.214-1.175 0-.475-.187-.828-2.6-1.064-2.018-.2-3.266-.645-3.266-2.26 0-1.487 1.254-2.374 3.356-2.374 2.362 0 3.531.82 3.68 2.579a.216.216 0 0 1-.057.164.217.217 0 0 1-.156.068h-.957c-.1 0-.187-.07-.207-.167-.23-1.021-.788-1.347-2.303-1.347-1.695 0-1.893.59-1.893 1.033 0 .537.233.692 2.523.996 2.265.299 3.342.723 3.342 2.316 0 1.606-1.34 2.526-3.676 2.526M51.607 35.117h.247c.203 0 .241-.143.241-.225 0-.219-.15-.219-.233-.219h-.255zm-.302-.7h.55c.188 0 .556 0 .556.422 0 .293-.188.353-.301.39.218.016.233.159.263.362.015.127.038.346.083.42h-.338c-.008-.074-.06-.48-.06-.503-.023-.09-.053-.135-.166-.135h-.278v.639h-.309zm-.657.794c0 .662.534 1.196 1.188 1.196.661 0 1.195-.546 1.195-1.196a1.192 1.192 0 0 0-2.383 0m2.612.004c0 .782-.64 1.42-1.42 1.42a1.425 1.425 0 0 1-1.422-1.42 1.42 1.42 0 1 1 2.842 0" fill="#689f63"/><path d="M17.52 16.711a.943.943 0 0 0-.471-.82l-7.817-4.499a.919.919 0 0 0-.43-.124H8.72a.932.932 0 0 0-.432.124L.473 15.891a.947.947 0 0 0-.473.82l.017 12.113c0 .169.088.325.236.408a.454.454 0 0 0 .469 0l4.645-2.66a.951.951 0 0 0 .473-.82v-5.658a.94.94 0 0 1 .471-.818l1.978-1.139a.94.94 0 0 1 .943 0l1.977 1.14c.293.167.473.48.473.817v5.659c0 .336.18.646.473.819l4.644 2.66a.472.472 0 1 0 .706-.408zM54.406 23.018a.235.235 0 0 1-.118.204l-2.685 1.548a.237.237 0 0 1-.235 0l-2.685-1.548a.235.235 0 0 1-.118-.204v-3.1c0-.084.045-.162.118-.204l2.684-1.551a.236.236 0 0 1 .237 0l2.684 1.55c.073.043.118.12.118.205zM55.132.06a.473.473 0 0 0-.702.412v11.996a.331.331 0 0 1-.496.286l-1.958-1.128a.944.944 0 0 0-.943 0l-7.82 4.513a.944.944 0 0 0-.472.818v9.027c0 .338.18.65.472.818l7.82 4.517a.945.945 0 0 0 .944 0l7.82-4.517a.945.945 0 0 0 .473-.818V3.481a.944.944 0 0 0-.485-.825zM81.17 19.837c.291-.169.47-.48.47-.816v-2.188a.944.944 0 0 0-.47-.817l-7.77-4.51a.944.944 0 0 0-.946-.002l-7.817 4.513a.944.944 0 0 0-.472.817v9.026c0 .34.183.652.477.82l7.769 4.426a.943.943 0 0 0 .925.006l4.7-2.612a.472.472 0 0 0 .005-.822l-7.866-4.515a.472.472 0 0 1-.238-.41v-2.828c0-.169.09-.325.237-.41l2.448-1.41a.472.472 0 0 1 .471 0l2.45 1.41c.146.085.236.241.236.41v2.225a.472.472 0 0 0 .71.409z" fill-rule="evenodd" fill="#333"/><path d="M72.812 19.414a.18.18 0 0 1 .181 0l1.5.866c.057.032.091.092.091.157v1.732a.181.181 0 0 1-.09.158l-1.5.865a.18.18 0 0 1-.182 0l-1.5-.865a.181.181 0 0 1-.09-.158v-1.732c0-.065.035-.125.09-.157z" fill-rule="evenodd" fill="#689f63"/><g><g clip-path="url(#g)" transform="matrix(1.33333 0 0 -1.33333 -104.408 270.074)"><g clip-path="url(#h)"><path d="M237.627 382.331l-.58-.331h.774z" fill="url(#i)"/></g></g></g><g><g clip-path="url(#j)" transform="matrix(1.33333 0 0 -1.33333 -104.408 270.074)"><g clip-path="url(#k)"><path d="M290.279 292.38l-.279.477v-.639z" fill="url(#l)"/></g></g></g></svg>