<svg xmlns="http://www.w3.org/2000/svg" width="157" height="33" viewBox="0 0 157 33">
    <g fill="#0B2E72" fill-rule="evenodd">
        <path d="M3.536 5.079c-.472-.506-.708-1.113-.708-1.889.034-.74.27-1.348.775-1.888C4.143.796 4.75.527 5.525.527c.776 0 1.349.27 1.854.775.54.54.81 1.147.81 1.888 0 .776-.304 1.383-.843 1.889-.54.505-1.18.741-1.922.741s-1.382-.236-1.888-.741zm7.653 13.52C8.526 25.88-1.656 27.836.232 18.395L2.457 7.708H7.11c-1.079 5.698-1.854 9.17-2.63 13.15-.775 4.045 4.248 1.045 5.394-2.26h1.315z"/>
        <path d="M36.645 18.835c-2.697 7.249-12.036 8.26-10.62.741.472-2.596 1.011-5.293 1.55-8.226.81-3.844-2.831-.978-4.045 2.124-.034.067-.068.134-.101.27-.203 1.045-1.754 9.946-1.922 10.822h-4.45c.943-5.26 1.652-9.44 2.326-13.116.64-3.573-2.765-1.45-4.147 1.383-.034.034-.034.067-.068.135l-2.326 11.598H8.189L11.56 7.708h4.654l-.439 2.293c2.697-3.236 7.553-3.641 7.856.978 3.54-4.821 9.61-5.158 7.99 2.764l-.539 3.001c-.27 1.45-.303 1.551-.809 4.282-.573 2.664 3.944 1.011 5.057-2.191h1.315z"/>
        <path d="M46.188 10.81c-2.057-3.743-6.035-.1-7.215 5.361-1.281 6.103.944 9.272 5.596 3l1.619-8.36zm9.137 7.99c-2.327 6.204-10.418 8.396-10.857 2.597-3.573 5.327-11.26 4.35-10.654-2.63.472-5.428 3.136-10.856 9.17-11.059h8.53l-.268 1.282c-1.046 5.158-1.754 8.159-2.53 12.036-.741 3.844 4.181.944 5.294-2.225h1.315z"/>
        <path d="M65.104 10.507c-2.057-3.81-6.137-.135-7.384 5.428-1.349 6.271 1.011 9.44 5.664 3.102l1.72-8.53zm5.36-2.967l-2.596 12.71c-1.416 7.856-3.709 14.903-13.688 12.037l3.102-3.237c1.685 1.282 2.933 1.45 3.843.91l.135-.54 1.55-7.484c-3.741 4.687-10.957 3.507-10.383-3.338.674-7.754 5.158-10.823 8.53-10.99.64-.034 1.247-.068 1.955-.068h7.552zM75.084 16.407c5.327.168 5.934-6.238 5.091-6.911-.674-.506-2.158.135-3.371 2.056-.708 1.079-1.315 2.596-1.686 4.484 0 .135-.034.27-.034.37zm10.115 2.36c-2.63 4.855-5.394 6.103-9.238 6.001-6.372-.202-6.473-8.26-3.338-13.25 2.563-3.978 6.945-4.821 8.867-3.202 1.72 1.382 1.754 3.944.742 5.933-1.517 2.799-4.349 3.844-7.249 3.743.034 1.618.64 3.506 2.09 4.214 2.597 1.214 5.328-.809 6.913-3.439h1.213z"/>
        <path d="M94.404 9.866c-1.584.843-3.676 3.945-4.855 5.429l-.337 1.618c.37-.135.674-.27.944-.405 5.395-2.26 6.878-8.125 4.248-6.642zm2.967 14.7h-4.788l-3.743-5.798-1.044 5.798h-4.72L87.761.965h4.551c-.775 4.215-1.483 7.452-2.292 11.666 1.146-1.585 2.799-3.54 4.416-4.485 4.788-2.933 6.204 5.53-1.854 8.935l4.788 7.485zM102.227 5.079c-.472-.506-.708-1.113-.708-1.889.034-.74.27-1.348.775-1.888.54-.506 1.147-.775 1.921-.775.777 0 1.35.27 1.855.775.54.54.81 1.147.81 1.888 0 .776-.304 1.383-.844 1.889-.54.505-1.18.741-1.921.741-.742 0-1.383-.236-1.888-.741zm7.653 13.52c-2.664 7.282-12.845 9.238-10.957-.203l2.225-10.688h4.652c-1.078 5.698-1.854 9.17-2.63 13.15-.775 4.045 4.249 1.045 5.395-2.26h1.315z"/>
        <path d="M119.186 18.666c-2.697 7.215-12.643 9.137-10.755-.135l1.787-8.766h-2.023l.842-2.057h1.62l.91-4.383 4.787-.944-1.045 5.327h2.73l-.977 2.057h-2.124l-2.259 11.194c-.776 3.944 4.012 1.01 5.158-2.293h1.35zM120.468 20.116c.54-.506 1.18-.776 1.922-.776s1.382.27 1.955.776c.506.573.776 1.214.776 1.955 0 .742-.27 1.382-.776 1.922-.573.506-1.213.775-1.955.775s-1.383-.27-1.922-.775c-.506-.54-.776-1.18-.776-1.922 0-.741.27-1.382.776-1.955M132.235 5.079c-.472-.506-.708-1.113-.708-1.889.033-.74.27-1.348.775-1.888.54-.506 1.147-.775 1.922-.775.775 0 1.348.27 1.855.775.539.54.808 1.147.808 1.888 0 .776-.303 1.383-.843 1.889-.539.505-1.18.741-1.921.741-.742 0-1.383-.236-1.888-.741zm7.653 13.52c-2.663 7.282-12.845 9.238-10.957-.203l2.225-10.688h4.653c-1.08 5.698-1.855 9.17-2.63 13.15-.776 4.045 4.248 1.045 5.394-2.26h1.315z"/>
        <path d="M148.688 15.901c-1.079-.202-2.09-.674-3.237-1.55l1.754-2.394c.439.404.944.707 1.45.91-.54-2.495-2.664-4.72-4.586-2.057-1.686 2.428-3.203 9.812-.202 11.497 1.619.944 3.945-.708 4.821-6.27V15.9zm8.058-3.405c-1.348 1.214-2.697 2.158-4.011 2.764-.979 7.688-7.25 10.655-11.228 9.137-3.136-1.146-4.282-4.045-3.945-7.147.37-3.27 2.327-6.675 5.462-8.463 3.136-1.82 7.822-1.989 9.44 1.923.27.64.439 1.448.439 2.36 1.349-.338 2.664-.979 3.742-1.72l.101 1.146z"/>
    </g>
</svg>