<svg xmlns="http://www.w3.org/2000/svg" height="90" width="134.298"><defs><clipPath id="g"><path d="M239.032 373.393l-42.134-24.315a5.087 5.087 0 0 1-2.545-4.407v-48.666c0-1.818.97-3.497 2.544-4.408l42.133-24.334a5.093 5.093 0 0 1 5.091 0l42.124 24.334a5.093 5.093 0 0 1 2.543 4.408v48.668a5.084 5.084 0 0 1-2.545 4.405l-42.123 24.315a5.09 5.09 0 0 1-5.088 0"/></clipPath><clipPath id="h"><path d="M237.627 382.331l-.58-.331h.774z"/></clipPath><linearGradient id="i" gradientTransform="matrix(97.417 0 0 -97.417 192.862 382.166)" gradientUnits="userSpaceOnUse" x2="1"><stop stop-color="#9bb48f" offset="0"/><stop stop-color="#9bb48f" offset=".092"/><stop stop-color="#9bb48f" offset=".303"/><stop stop-color="#687e67" offset=".862"/><stop stop-color="#687e67" offset="1"/></linearGradient><clipPath id="j"><path d="M239.032 373.393l-42.134-24.315a5.087 5.087 0 0 1-2.545-4.407v-48.666c0-1.818.97-3.497 2.544-4.408l42.133-24.334a5.093 5.093 0 0 1 5.091 0l42.124 24.334a5.093 5.093 0 0 1 2.543 4.408v48.668a5.084 5.084 0 0 1-2.545 4.405l-42.123 24.315a5.09 5.09 0 0 1-5.088 0"/></clipPath><clipPath id="k"><path d="M290.279 292.38l-.279.477v-.639z"/></clipPath><linearGradient id="l" gradientTransform="matrix(97.417 0 0 -97.417 192.862 292.538)" gradientUnits="userSpaceOnUse" x2="1"><stop stop-color="#9bb48f" offset="0"/><stop stop-color="#9bb48f" offset=".092"/><stop stop-color="#9bb48f" offset=".303"/><stop stop-color="#687e67" offset=".862"/><stop stop-color="#687e67" offset="1"/></linearGradient><clipPath id="a"><path d="M239.03 226.605l-42.13 24.317a5.085 5.085 0 0 0-2.546 4.406v48.668c0 1.817.968 3.496 2.546 4.406l42.133 24.336a5.1 5.1 0 0 0 5.09 0l42.126-24.336a5.096 5.096 0 0 0 2.54-4.406v-48.668c0-1.816-.97-3.496-2.55-4.406l-42.12-24.317a5.123 5.123 0 0 0-5.1 0"/></clipPath><linearGradient id="b" x1="-.348" x2="1.251" gradientTransform="rotate(116.114 53.1 202.97) scale(86.48)" gradientUnits="userSpaceOnUse"><stop offset=".3" stop-color="#3E863D"/><stop offset=".5" stop-color="#55934F"/><stop offset=".8" stop-color="#5AAD45"/></linearGradient><clipPath id="c"><path d="M195.398 307.086c.403.523.907.976 1.5 1.316l36.14 20.875 6.02 3.46c.9.52 1.926.74 2.934.665.336-.027.672-.09 1-.183l44.434-81.36c-.34-.37-.738-.68-1.184-.94l-27.586-15.93-14.582-8.39a5.318 5.318 0 0 0-1.32-.53zm0 0"/></clipPath><linearGradient id="d" x1="-.456" x2=".582" gradientTransform="scale(132.798) rotate(-36.46 4.148 -1.614)" gradientUnits="userSpaceOnUse"><stop offset=".57" stop-color="#3E863D"/><stop offset=".72" stop-color="#619857"/><stop offset="1" stop-color="#76AC64"/></linearGradient><clipPath id="e"><path d="M241.066 225.953a5.14 5.14 0 0 0-2.035.652l-42.01 24.247 45.3 82.51c.63-.09 1.25-.3 1.81-.624l42.13-24.336a5.105 5.105 0 0 0 2.46-3.476l-46.18-78.89a5.29 5.29 0 0 0-1.03-.102c-.14 0-.28.007-.42.02"/></clipPath><linearGradient id="f" x1=".043" x2=".984" gradientTransform="translate(192.862 279.652) scale(97.417)" gradientUnits="userSpaceOnUse"><stop offset=".16" stop-color="#6BBF47"/><stop offset=".38" stop-color="#79B461"/><stop offset=".47" stop-color="#75AC64"/><stop offset=".7" stop-color="#659E5A"/><stop offset=".9" stop-color="#3E863D"/></linearGradient></defs><g clip-path="url(#a)" transform="matrix(.25837 0 0 .25837 -10.233 -32.38)"><path d="M331.363 246.793l-118.715-58.19-60.87 124.174L270.49 370.97zm0 0" fill="url(#b)"/></g><g clip-path="url(#c)" transform="matrix(.25837 0 0 .25837 -10.233 -32.38)"><path d="M144.07 264.004l83.825 113.453 110.86-81.906-83.83-113.45zm0 0" fill="url(#d)"/></g><g clip-path="url(#e)" transform="matrix(.25837 0 0 .25837 -10.233 -32.38)"><path d="M197.02 225.934v107.43h91.683v-107.43zm0 0" fill="url(#f)"/></g><path d="M66.494 80a2.16 2.16 0 0 1-1.084-.29l-3.445-2.038c-.516-.289-.264-.39-.094-.45.686-.238.826-.294 1.558-.708.077-.043.178-.028.256.02l2.648 1.57a.34.34 0 0 0 .32 0l10.321-5.957a.325.325 0 0 0 .159-.28V59.956a.333.333 0 0 0-.161-.284l-10.319-5.953a.322.322 0 0 0-.316 0l-10.315 5.954a.332.332 0 0 0-.164.283v11.911c0 .115.063.223.162.277l2.828 1.633c1.535.767 2.474-.136 2.474-1.043v-11.76c0-.168.133-.299.3-.299h1.309c.164 0 .298.13.298.297v11.76c0 2.049-1.115 3.223-3.056 3.223-.597 0-1.066 0-2.378-.646L55.09 73.75a2.18 2.18 0 0 1-1.083-1.883V59.956c0-.774.414-1.497 1.083-1.882L65.41 52.11a2.262 2.262 0 0 1 2.17 0l10.321 5.964a2.178 2.178 0 0 1 1.085 1.882v11.911a2.184 2.184 0 0 1-1.085 1.883l-10.32 5.96a2.164 2.164 0 0 1-1.087.29" fill="#689f63"/><path d="M69.683 71.793c-4.518 0-5.464-2.072-5.464-3.812 0-.165.133-.297.298-.297h1.334c.15 0 .273.106.297.252.202 1.358.802 2.044 3.534 2.044 2.174 0 3.1-.491 3.1-1.645 0-.665-.263-1.16-3.64-1.49-2.826-.28-4.573-.903-4.573-3.164 0-2.082 1.755-3.323 4.698-3.323 3.307 0 4.944 1.148 5.152 3.61a.302.302 0 0 1-.08.23.304.304 0 0 1-.218.095h-1.34a.296.296 0 0 1-.29-.234c-.322-1.43-1.103-1.886-3.224-1.886-2.373 0-2.65.827-2.65 1.447 0 .752.326.969 3.532 1.394 3.171.419 4.68 1.012 4.68 3.243 0 2.248-1.877 3.536-5.147 3.536m12.569-12.63h.346c.284 0 .337-.2.337-.315 0-.306-.21-.306-.326-.306h-.357zm-.423-.98h.77c.263 0 .779 0 .779.591 0 .41-.264.494-.422.546.305.023.326.223.368.507.021.178.054.484.117.588h-.474c-.01-.104-.084-.672-.084-.704-.032-.126-.074-.19-.232-.19h-.39v.895h-.432zm-.92 1.112a1.67 1.67 0 0 0 1.664 1.674c.925 0 1.673-.764 1.673-1.674a1.669 1.669 0 0 0-3.337 0m3.657.006a1.994 1.994 0 0 1-1.988 1.988 1.995 1.995 0 0 1-1.99-1.988 1.99 1.99 0 1 1 3.978 0" fill="#689f63"/><path d="M34.528 33.395a1.32 1.32 0 0 0-.659-1.148l-10.944-6.3a1.287 1.287 0 0 0-.602-.173h-.115a1.305 1.305 0 0 0-.605.174l-10.94 6.299A1.326 1.326 0 0 0 10 33.395l.024 16.958a.65.65 0 0 0 .33.571.636.636 0 0 0 .657 0l6.503-3.724a1.331 1.331 0 0 0 .662-1.148v-7.921a1.316 1.316 0 0 1 .66-1.145l2.769-1.595a1.316 1.316 0 0 1 1.32 0l2.768 1.596c.41.234.662.672.662 1.144v7.923c0 .47.252.904.662 1.146l6.502 3.724a.66.66 0 1 0 .988-.57zm51.642 8.83a.329.329 0 0 1-.165.285l-3.76 2.167a.332.332 0 0 1-.329 0l-3.759-2.167a.329.329 0 0 1-.165-.285v-4.34a.33.33 0 0 1 .165-.286l3.758-2.172a.33.33 0 0 1 .332 0l3.758 2.17c.102.06.165.168.165.287zm1.016-32.142a.662.662 0 0 0-.983.577v16.794a.463.463 0 0 1-.694.4l-2.741-1.579a1.322 1.322 0 0 0-1.32 0l-10.949 6.319a1.322 1.322 0 0 0-.66 1.145v12.638c0 .473.251.91.66 1.145l10.948 6.324a1.323 1.323 0 0 0 1.322 0l10.948-6.324a1.323 1.323 0 0 0 .662-1.145V14.872a1.322 1.322 0 0 0-.679-1.155zM123.64 37.77c.407-.237.658-.672.658-1.142v-3.064a1.322 1.322 0 0 0-.658-1.143l-10.878-6.315a1.322 1.322 0 0 0-1.325-.002l-10.944 6.318a1.322 1.322 0 0 0-.66 1.144v12.636c0 .476.256.913.667 1.148l10.877 6.197a1.32 1.32 0 0 0 1.295.008l6.58-3.657a.66.66 0 0 0 .007-1.15l-11.012-6.321a.66.66 0 0 1-.334-.574v-3.96c0-.236.126-.455.332-.574l3.428-1.974a.66.66 0 0 1 .659 0l3.43 1.974c.204.12.33.338.33.574v3.115a.66.66 0 0 0 .994.573z" fill="#333" fill-rule="evenodd"/><path d="M111.939 37.179a.252.252 0 0 1 .253 0l2.1 1.212a.25.25 0 0 1 .127.22v2.425a.253.253 0 0 1-.126.221l-2.1 1.211a.252.252 0 0 1-.254 0l-2.1-1.21a.253.253 0 0 1-.126-.222V38.61c0-.09.049-.175.126-.22z" fill="#689f63" fill-rule="evenodd"/><g clip-path="url(#g)" transform="matrix(1.8667 0 0 -1.8667 -136.174 388.109)"><g clip-path="url(#h)"><path d="M237.627 382.331l-.58-.331h.774z" fill="url(#i)"/></g></g><g clip-path="url(#j)" transform="matrix(1.8667 0 0 -1.8667 -136.174 388.109)"><g clip-path="url(#k)"><path d="M290.279 292.38l-.279.477v-.639z" fill="url(#l)"/></g></g></svg>