<!-- Generated by IcoMoon.io -->
<svg version="1.1" xmlns="http://www.w3.org/2000/svg" width="768" height="768" viewBox="0 0 768 768">
<title></title>
<g id="icomoon-ignore">
</g>
<path fill="#000" d="M382.874 766.874v0c-211.707 0-382.874-171.167-382.874-382.874v0c0-211.707 171.167-382.874 382.874-382.874h288.281c54.052 0 96.844 42.791 96.844 96.845v286.028c0 211.707-171.167 382.874-385.126 382.874zM470.71 411.026c-4.504 0-11.261-2.249-13.514-6.761l-40.54-54.053-42.792 126.122c-2.252 6.76-6.757 11.26-13.513 11.26 0 0-2.252 0-2.252 0-4.505 0-11.261-2.249-13.513-6.761l-51.8-69.808h-94.592c13.513 90.088 90.088 159.906 184.68 159.906s171.167-69.818 184.68-159.906zM299.543 377.244c4.504 0 11.261 2.249 13.514 6.76l38.287 51.801 42.792-123.871c2.252-6.76 6.757-9.010 13.514-11.26 6.757 0 11.261 2.249 15.766 6.761l54.053 72.071h92.34c-2.252-101.35-85.583-182.428-186.932-182.428s-184.68 81.079-186.932 182.428h103.601z"></path>
</svg>
