<!-- Generated by IcoMoon.io -->
<svg version="1.1" xmlns="http://www.w3.org/2000/svg" width="768" height="768" viewBox="0 0 768 768">
<title></title>
<g id="icomoon-ignore">
</g>
<path fill="#000" d="M765.74 426.713l-40.283-123.772c-0.241-1.267-0.579-2.383-1.018-3.446l0.043 0.116-80.816-248.768c-4.402-12.842-16.372-21.91-30.459-21.91-0.077 0-0.153 0-0.23 0.001h0.012c-0.057 0-0.124-0.001-0.191-0.001-14.053 0-25.962 9.178-30.061 21.867l-0.062 0.224-77.032 237.055h-243.127l-77.145-237.055c-4.161-12.912-16.070-22.090-30.123-22.090-0.019 0-0.039 0-0.059 0h-0.189c-14.177 0.002-26.215 9.162-30.52 21.886l-0.067 0.227-80.884 249.062c0 0.224-0.192 0.409-0.256 0.634l-41.008 125.993c-1.436 4.256-2.265 9.158-2.265 14.252 0 15.239 7.415 28.746 18.834 37.11l0.129 0.090 354.301 257.446c2.942 2.147 6.629 3.436 10.618 3.436 4.065 0 7.817-1.338 10.841-3.598l-0.047 0.034 354.37-257.332c11.543-8.45 18.955-21.951 18.955-37.183 0-5.11-0.834-10.025-2.374-14.617l0.095 0.324zM236.125 324.449l98.76 303.959-237.077-303.959zM433.237 628.475l98.782-304.027h138.431l-214.489 274.777zM613.288 74.343l69.397 213.719h-138.907zM493.865 324.312l-68.808 211.747-41.054 126.106-109.702-337.853zM154.834 74.343l69.532 213.719h-138.816zM40.282 448.855c-2.45-1.796-4.022-4.663-4.022-7.897 0-1.089 0.178-2.137 0.507-3.115l-0.020 0.069 30.45-93.571 223.325 286.31zM727.748 448.855l-250.263 181.728 0.839-1.088 222.487-285.154 30.451 93.526c0.316 0.918 0.497 1.976 0.497 3.077 0 3.229-1.567 6.092-3.982 7.87l-0.027 0.019z"></path>
</svg>
