<!-- Generated by IcoMoon.io -->
<svg version="1.1" xmlns="http://www.w3.org/2000/svg" width="768" height="768" viewBox="0 0 768 768">
<title></title>
<g id="icomoon-ignore">
</g>
<path fill="#000" d="M384.243 0.032c-33.946 12.259-64.309 34.663-96.563 51.313-78.705 44.892-157.001 90.428-234.688 137.063-7.628 90.352-3.054 181.356-3.812 271.937 2.426 38.161-3.137 78.329 5.75 115.25 30.749 30.007 72.202 46.196 107.938 69.5 73.645 41.306 145.206 86.869 221.625 122.875 64.411-28.595 123.825-67.679 185.438-101.875 48.671-30.202 101.577-54.904 145.813-91.5 6.762-37.291 1.949-77.081 3.75-115.313-0.278-87.381 0.727-174.86-2.375-262.187-20.562-27.311-56-39.418-84.062-58.375-79.133-45.037-157.154-92.207-237.625-134.813l-6.688-2.75zM236.68 184.281h75.25v147.313h147.375v-147.313h72v399.5h-72v-180.125h-147.375v180.125h-75.25z"></path>
</svg>
