<!-- Generated by IcoMoon.io -->
<svg version="1.1" xmlns="http://www.w3.org/2000/svg" width="768" height="768" viewBox="0 0 768 768">
<title></title>
<g id="icomoon-ignore">
</g>
<path fill="#000" d="M226.835 588.072c0-137.119 0-274.237 0-411.356 28.688 0 57.375 0 86.063 0 0 49.946 0 99.891 0 149.837 47.587 0 95.174 0 142.762 0 0-49.945 0-99.891 0-149.837 28.771 0 57.542 0 86.313 0 0 137.119 0 274.237 0 411.356-28.771 0-57.542 0-86.313 0 0-59.954 0-119.909 0-179.863-47.588 0-95.174 0-142.762 0 0 59.954 0 119.909 0 179.863-28.688 0-57.375 0-86.063 0zM378.358 0c30.915-0.904 60.129 12.185 85.295 29.147 71.222 42.326 143.35 83.339 214.1 126.346 33.398 23.164 51.313 64.688 48.217 104.875-0.414 90.708 0.788 181.482-0.533 272.153-3.778 41.113-30.826 78.554-67.976 96.303-77.56 42.772-154.454 86.891-232.357 128.966-36.328 17.035-80.4 11.867-113.484-10.192-69.482-40.986-140.282-81.079-209.067-122.535-39.38-26.378-63.113-73.567-60.532-120.838 0.466-84.728-0.878-169.53 0.572-254.219 3.881-46.474 32.891-89.328 73.778-111.474 67.756-41.257 134.683-84.080 202.855-124.547 18.303-9.223 38.896-13.526 59.131-13.985zM377.902 53.599c-31.224-0.452-55.592 22.387-81.132 36.761-55.632 34.91-112.409 68.119-167.432 103.935-24.737 18.9-36.302 51.202-33.398 81.747 0.449 82.022-0.865 164.123 0.598 246.101 3.040 30.392 24.415 56.538 51.736 69.165 68.198 39.392 135.647 80.212 204.258 118.818 22.548 10.505 49 4.014 68.627-9.778 74.781-42.125 150.374-82.953 224.71-125.791 20.813-14.522 29.792-41.195 27.056-65.843-0.39-88.762 0.757-177.608-0.533-266.322-2.411-24.427-20.957-43.787-42.602-53.522-73.627-42.745-146.542-86.829-220.564-128.834-9.807-4.318-20.63-6.685-31.323-6.437z"></path>
</svg>
