<!-- Generated by IcoMoon.io -->
<svg version="1.1" xmlns="http://www.w3.org/2000/svg" width="768" height="768" viewBox="0 0 768 768">
<title></title>
<g id="icomoon-ignore">
</g>
<path fill="#000" d="M378.298 0.053c-20.235 0.459-40.822 4.777-59.125 14-68.172 40.467-135.119 83.306-202.875 124.562-40.887 22.146-69.868 64.963-73.75 111.437-1.45 84.689-0.159 169.522-0.625 254.25-2.581 47.271 21.182 94.435 60.563 120.812 68.784 41.456 139.581 81.577 209.063 122.563 33.084 22.059 77.172 27.223 113.5 10.187 77.902-42.075 154.753-86.228 232.313-129 37.15-17.75 64.222-55.2 68-96.313 1.321-90.671 0.149-181.417 0.563-272.125 3.096-40.187-14.851-81.711-48.25-104.875-70.75-43.007-142.903-84.049-214.125-126.375-25.166-16.962-54.335-30.028-85.25-29.125zM226.361 178.303h86.063v149.875h142.813v-149.875h86.375v411.375h-86.375v-179.875h-142.813v179.875h-86.062z"></path>
</svg>
