<!-- Generated by IcoMoon.io -->
<svg version="1.1" xmlns="http://www.w3.org/2000/svg" width="768" height="768" viewBox="0 0 768 768">
<title></title>
<g id="icomoon-ignore">
</g>
<path fill="#000" d="M235.289 385.028v-199.706h75.299v147.324h147.324v-147.324h72.025v399.412h-72.025v-180.062h-147.324v180.062h-75.299zM348.238 750.648c-41.869-22.101-245.648-139.638-272.448-157.144-13.511-8.826-21.496-16.557-23.735-22.982-3.742-10.735-4.848-327.589-1.263-361.887l2.112-20.208 42.904-25.635c84.847-50.696 263.255-152.95 280.602-160.826 10.715-4.865 6.266-7.096 148.618 74.527 174.165 99.865 189.528 109.519 191.952 120.631 2.616 11.988 3.418 363.853 0.851 373.422-2.61 9.727-27.315 25.551-160.155 102.578-114.15 66.19-166.784 95.009-173.276 94.876-1.882-0.039-18.155-7.847-36.162-17.351zM411.341 684.95c48.58-24.479 228.004-129.36 239.437-139.96 7.513-6.965 10.085-59.501 10.102-206.276l0.013-106.88-11.384-9.995c-17.134-15.043-181.508-111.506-240.957-141.404l-24.807-12.476-32.921 17.477c-73.61 39.078-219.997 125.175-232.576 136.788l-7.367 6.8v151.88c0 97.797 1.199 154.12 3.368 158.171 4.148 7.75 22.262 19.418 107.945 69.526 90.414 52.876 154.171 87.445 161.275 87.445 3.221 0 15.764-4.993 27.873-11.095z"></path>
</svg>
