<!-- Generated by IcoMoon.io -->
<svg version="1.1" xmlns="http://www.w3.org/2000/svg" width="768" height="768" viewBox="0 0 768 768">
<title></title>
<g id="icomoon-ignore">
</g>
<path fill="#000" d="M324.254 164.123c37.372 37.735 107.278 23.947 128.685-24.43 26.729-53.821-29.026-121.308-86.959-106.189-58.417 8.587-82.847 89.499-41.726 130.621zM546.429 556.346h-38.098c-14.513 40.154-43.419 74.139-77.404 99.417-24.673 27.455-91.555 35.437-81.275-18.746 23.826-132.556 54.305-264.023 78.493-396.699h-135.217l-43.782 210.202c-11.49 67.608-37.493 135.701-22.979 204.76l0.094 0.607c8.488 45.668 48.541 80.247 96.669 80.247 2.722 0 5.418-0.11 7.733-0.304 100.142-7.741 182.143-88.411 215.644-179.482zM0 0h768v768h-768v-768z"></path>
</svg>
