<!-- Generated by IcoMoon.io -->
<svg version="1.1" xmlns="http://www.w3.org/2000/svg" width="768" height="768" viewBox="0 0 768 768">
<title></title>
<g id="icomoon-ignore">
</g>
<path fill="#000" d="M382.75 169.937c-13.679 0-24.344 4.757-33.875 13.688-8.914 9.531-13.087 20.251-13.688 33.313 0 13.697 4.169 24.382 12.5 33.313 8.931 8.914 20.216 13.063 33.313 13.063s24.406-4.149 33.938-13.063c9.514-8.931 14.875-19.615 14.875-33.313 0-13.079-4.781-23.781-14.312-33.313-8.914-8.914-19.053-13.688-32.75-13.688zM328.625 296.687l-39.25 188.625c-33.324 166.637 146.372 132.075 193.375 3.563h-23.188c-20.227 58.334-108.929 111.271-95.25 39.875 13.697-70.249 27.393-131.491 46.438-232.063h-82.125z"></path>
</svg>
