<!-- Generated by IcoMoon.io -->
<svg version="1.1" xmlns="http://www.w3.org/2000/svg" width="768" height="768" viewBox="0 0 768 768">
<title></title>
<g id="icomoon-ignore">
</g>
<path fill="#000" d="M0 0v768h768v-768h-768zM382.75 169.937c13.697 0 23.837 4.774 32.75 13.688 9.531 9.531 14.312 20.233 14.312 33.313 0 13.697-5.361 24.382-14.875 33.313-9.531 8.914-20.841 13.063-33.938 13.063s-24.382-4.149-33.313-13.063c-8.331-8.931-12.5-19.615-12.5-33.313 0.601-13.061 4.774-23.781 13.688-33.313 9.531-8.931 20.196-13.688 33.875-13.688zM328.625 296.687h82.125c-19.045 100.572-32.74 161.814-46.438 232.063-13.679 71.395 75.023 18.46 95.25-39.875h23.188c-47.003 128.513-226.699 163.075-193.375-3.563l39.25-188.625z"></path>
</svg>
