<!-- Generated by IcoMoon.io -->
<svg version="1.1" xmlns="http://www.w3.org/2000/svg" width="768" height="768" viewBox="0 0 768 768">
<title></title>
<g id="icomoon-ignore">
</g>
<path fill="#000" d="M324.257 164.107c-13.698-14.685-20.547-32.302-20.547-54.822 0.987-21.476 7.832-39.122 22.492-54.794 15.672-14.685 33.288-22.492 55.78-22.492 22.521 0 39.15 7.832 53.806 22.492 15.671 15.672 23.507 33.288 23.507 54.794 0 22.52-8.819 40.137-24.465 54.822-15.672 14.656-34.246 21.504-55.78 21.504s-40.108-6.845-54.793-21.504zM546.359 556.477c-77.284 211.306-372.781 268.073-317.989-5.923l64.573-310.154h135.037c-31.314 165.365-53.805 266.128-76.326 381.635-22.492 117.392 123.283 30.328 156.542-65.589h38.164z"></path>
</svg>
