<!-- Generated by IcoMoon.io -->
<svg version="1.1" xmlns="http://www.w3.org/2000/svg" width="768" height="768" viewBox="0 0 768 768">
<title></title>
<g id="icomoon-ignore">
</g>
<path fill="#000" d="M27.938 764.371c-37.13-16.57-25.882-60.714-27.697-92.764 0-208.509-1.21-417.26 2.298-625.768-4.596-48.619 51.764-46.806 85.266-45.112 211.411-0.484 422.823-1.935 634.235 0.968 48.741-4.838 47.168 51.523 45.354 85.145 0.484 211.412 1.935 422.823-0.967 634.235 4.959 48.62-51.28 47.168-84.661 45.476-211.654 0.847-423.307 2.903-634.719-0.242-6.41-0.484-12.821-0.363-19.23-1.935zM457.897 526.473l70.995-94.7h-288.817c48.015 63.133 94.337 127.839 144.408 189.4 25.761-30.478 49.103-62.891 73.414-94.699zM457.897 240.68c-24.189-31.688-47.652-64.101-73.414-94.7-50.072 61.682-96.393 126.266-144.408 189.52h288.817l-70.995-94.821z"></path>
</svg>
