<!-- Generated by IcoMoon.io -->
<svg version="1.1" xmlns="http://www.w3.org/2000/svg" width="768" height="768" viewBox="0 0 768 768">
<title></title>
<g id="icomoon-ignore">
</g>
<path fill="#000" d="M768 384c0 212.077-171.923 384-384 384v0c-212.077 0-384-171.923-384-384v0c0-212.077 171.922-384 384-384v0c212.077 0 384 171.922 384 384v0zM384.75 157.5c-125.329 0-227.25 101.921-227.25 227.25s101.921 227.25 227.25 227.25c125.329 0 227.25-101.921 227.25-227.25s-101.921-227.25-227.25-227.25zM384.75 187.5c109.116 0 197.25 88.134 197.25 197.25s-88.134 197.25-197.25 197.25c-109.116 0-197.25-88.134-197.25-197.25s88.134-197.25 197.25-197.25z"></path>
</svg>
