<?xml version="1.0" encoding="UTF-8" standalone="no"?>
<svg
   xmlns:dc="http://purl.org/dc/elements/1.1/"
   xmlns:cc="http://creativecommons.org/ns#"
   xmlns:rdf="http://www.w3.org/1999/02/22-rdf-syntax-ns#"
   xmlns:svg="http://www.w3.org/2000/svg"
   xmlns="http://www.w3.org/2000/svg"
   id="svg100"
   version="1.1"
   viewBox="0 0 10.583333 10.583334"
   height="40"
   width="40">
  <defs
     id="defs94" />
  <metadata
     id="metadata97">
    <rdf:RDF>
      <cc:Work
         rdf:about="">
        <dc:format>image/svg+xml</dc:format>
        <dc:type
           rdf:resource="http://purl.org/dc/dcmitype/StillImage" />
        <dc:title></dc:title>
      </cc:Work>
    </rdf:RDF>
  </metadata>
  <g
     transform="translate(0,-286.41665)"
     id="layer1">
    <g
       id="g32"
       transform="matrix(0.26458333,0,0,0.26458333,0.78052089,285.6229)">
      <path
         class="st1"
         d="m 17,40 v 0 C 7.6,40 0,32.4 0,23 v 0 C 0,13.6 7.6,6 17,6 h 12.8 c 2.4,0 4.3,1.9 4.3,4.3 V 23 c 0,9.4 -7.6,17 -17.1,17 z"
         id="path24"
         style="fill:#ed7c02" />
      <g
         id="g30">
        <path
           class="st2"
           d="m 13.3,22.7 c 0.2,0 0.5,0.1 0.6,0.3 l 1.7,2.3 1.9,-5.5 c 0.1,-0.3 0.3,-0.4 0.6,-0.5 0.3,0 0.5,0.1 0.7,0.3 l 2.4,3.2 h 4.1 c -0.1,-4.5 -3.8,-8.1 -8.3,-8.1 -4.5,0 -8.2,3.6 -8.3,8.1 h 4.6 z"
           id="path26"
           style="fill:#ffffff" />
        <path
           class="st2"
           d="m 20.9,24.2 c -0.2,0 -0.5,-0.1 -0.6,-0.3 l -1.8,-2.4 -1.9,5.6 c -0.1,0.3 -0.3,0.5 -0.6,0.5 0,0 -0.1,0 -0.1,0 -0.2,0 -0.5,-0.1 -0.6,-0.3 L 13,24.2 H 8.8 c 0.6,4 4,7.1 8.2,7.1 4.2,0 7.6,-3.1 8.2,-7.1 z"
           id="path28"
           style="fill:#ffffff" />
      </g>
    </g>
  </g>
</svg>
