<?xml version="1.0" encoding="UTF-8" standalone="no"?>
<svg
   xmlns:dc="http://purl.org/dc/elements/1.1/"
   xmlns:cc="http://creativecommons.org/ns#"
   xmlns:rdf="http://www.w3.org/1999/02/22-rdf-syntax-ns#"
   xmlns:svg="http://www.w3.org/2000/svg"
   xmlns="http://www.w3.org/2000/svg"
   viewBox="0 0 122.52 122.52"
   height="122.52"
   width="122.52"
   xml:space="preserve"
   id="svg2"
   version="1.1"><metadata
     id="metadata8"><rdf:RDF><cc:Work
         rdf:about=""><dc:format>image/svg+xml</dc:format><dc:type
           rdf:resource="http://purl.org/dc/dcmitype/StillImage" /><dc:title></dc:title></cc:Work></rdf:RDF></metadata><defs
     id="defs6" /><g
     transform="matrix(1.3333333,0,0,-1.3333333,0,122.52)"
     id="g10"><path
       d="M 90.1543,50.0352 50.0352,90.1527 c -2.3094,2.311 -6.0567,2.311 -8.3692,0 L 33.3359,81.8211 43.9031,71.2535 c 2.4563,0.8293 5.2727,0.2727 7.2297,-1.6847 1.9688,-1.9696 2.5203,-4.8102 1.6699,-7.275 L 62.9883,52.1094 c 2.4648,0.8496 5.3066,0.3004 7.2754,-1.6711 2.75,-2.7492 2.75,-7.2059 0,-9.9574 -2.752,-2.7516 -7.2078,-2.7516 -9.961,0 -2.0683,2.0703 -2.58,5.1097 -1.5312,7.6582 l -9.5,9.4992 V 32.6414 c 0.6699,-0.332 1.3027,-0.7742 1.8613,-1.3312 2.75,-2.7497 2.75,-7.2059 0,-9.9598 -2.75,-2.7488 -7.209,-2.7488 -9.957,0 -2.75,2.7539 -2.75,7.2101 0,9.9598 0.6797,0.6789 1.4668,1.1925 2.3066,1.5363 v 25.2281 c -0.8398,0.3438 -1.625,0.8531 -2.3066,1.5367 -2.0828,2.0821 -2.584,5.1395 -1.5156,7.6977 L 29.2422,77.7285 1.73242,50.2211 c -2.310545,-2.3129 -2.310545,-6.0602 0,-8.3711 L 41.8535,1.73242 c 2.3098,-2.310545 6.0559,-2.310545 8.3692,0 L 90.1543,41.6641 c 2.3113,2.3113 2.3113,6.0605 0,8.3711"
       style="fill:#f03c2e;fill-opacity:1;fill-rule:nonzero;stroke:none;stroke-width:0.1"
       id="path14" /></g></svg>